Grotesca Reforma-Magra Condensada.ufo
<glyph name="exclam" format="2">
	<advance width="161"/>
	<unicode hex="0021"/>
	<outline>
		<contour>
			<point x="43" y="800" type="line"/>
			<point x="63" y="158" type="line"/>
			<point x="98" y="158" type="line"/>
			<point x="118" y="800" type="line"/>
		</contour>
		<component base="period" xOffset="7"/>
	</outline>
</glyph>
<glyph name="numbersign" format="2">
	<advance width="595"/>
	<unicode hex="0023"/>
	<outline>
		<contour>
			<point x="45" y="230" type="line"/>
			<point x="144" y="230" type="line"/>
			<point x="105" y="0" type="line"/>
			<point x="156" y="0" type="line"/>
			<point x="195" y="230" type="line"/>
			<point x="344" y="230" type="line"/>
			<point x="305" y="0" type="line"/>
			<point x="356" y="0" type="line"/>
			<point x="395" y="230" type="line"/>
			<point x="515" y="230" type="line"/>
			<point x="515" y="280" type="line"/>
			<point x="403" y="280" type="line"/>
			<point x="443" y="520" type="line"/>
			<point x="550" y="520" type="line"/>
			<point x="550" y="570" type="line"/>
			<point x="451" y="570" type="line"/>
			<point x="490" y="800" type="line"/>
			<point x="439" y="800" type="line"/>
			<point x="400" y="570" type="line"/>
			<point x="252" y="570" type="line"/>
			<point x="291" y="800" type="line"/>
			<point x="240" y="800" type="line"/>
			<point x="201" y="570" type="line"/>
			<point x="80" y="570" type="line"/>
			<point x="80" y="520" type="line"/>
			<point x="193" y="520" type="line"/>
			<point x="152" y="280" type="line"/>
			<point x="45" y="280" type="line"/>
		</contour>
		<contour>
			<point x="203" y="280" type="line"/>
			<point x="244" y="520" type="line"/>
			<point x="392" y="520" type="line"/>
			<point x="352" y="280" type="line"/>
		</contour>
	</outline>
</glyph>
<glyph name="ampersand" format="2">
	<advance width="663"/>
	<unicode hex="0026"/>
	<outline>
		<contour>
			<point x="589" y="6" type="curve"/>
			<point x="589" y="55" type="line"/>
			<point x="576" y="52"/>
			<point x="563" y="50"/>
			<point x="551" y="50" type="curve" smooth="yes"/>
			<point x="519" y="50"/>
			<point x="488" y="69"/>
			<point x="468" y="102" type="curve" smooth="yes"/>
			<point x="195" y="546" type="line" smooth="yes"/>
			<point x="168" y="591"/>
			<point x="153" y="641"/>
			<point x="153" y="685" type="curve" smooth="yes"/>
			<point x="153" y="734"/>
			<point x="183" y="763"/>
			<point x="234" y="763" type="curve" smooth="yes"/>
			<point x="284" y="763"/>
			<point x="313" y="735"/>
			<point x="313" y="688" type="curve" smooth="yes"/>
			<point x="313" y="663"/>
			<point x="308" y="635"/>
			<point x="299" y="614" type="curve" smooth="yes"/>
			<point x="284" y="578"/>
			<point x="256" y="525"/>
			<point x="213" y="480" type="curve" smooth="yes"/>
			<point x="154" y="419" type="line" smooth="yes"/>
			<point x="119" y="383"/>
			<point x="93" y="337"/>
			<point x="75" y="295" type="curve" smooth="yes"/>
			<point x="57" y="253"/>
			<point x="46" y="211"/>
			<point x="46" y="174" type="curve" smooth="yes"/>
			<point x="46" y="55"/>
			<point x="120" y="-16"/>
			<point x="245" y="-16" type="curve" smooth="yes"/>
			<point x="418" y="-16"/>
			<point x="520" y="117"/>
			<point x="520" y="342" type="curve" smooth="yes"/>
			<point x="520" y="413" type="line"/>
			<point x="467" y="413" type="line"/>
			<point x="467" y="342" type="line" smooth="yes"/>
			<point x="467" y="149"/>
			<point x="382" y="35"/>
			<point x="245" y="35" type="curve" smooth="yes"/>
			<point x="154" y="35"/>
			<point x="100" y="87"/>
			<point x="100" y="174" type="curve" smooth="yes"/>
			<point x="100" y="204"/>
			<point x="108" y="242"/>
			<point x="121" y="275" type="curve" smooth="yes"/>
			<point x="137" y="315"/>
			<point x="159" y="362"/>
			<point x="190" y="393" type="curve" smooth="yes"/>
			<point x="249" y="453" type="line" smooth="yes"/>
			<point x="295" y="500"/>
			<point x="329" y="554"/>
			<point x="345" y="592" type="curve" smooth="yes"/>
			<point x="359" y="625"/>
			<point x="367" y="660"/>
			<point x="367" y="686" type="curve" smooth="yes"/>
			<point x="367" y="766"/>
			<point x="319" y="814"/>
			<point x="238" y="814" type="curve" smooth="yes"/>
			<point x="149" y="814"/>
			<point x="97" y="765"/>
			<point x="97" y="683" type="curve" smooth="yes"/>
			<point x="97" y="633"/>
			<point x="115" y="572"/>
			<point x="148" y="518" type="curve" smooth="yes"/>
			<point x="421" y="74" type="line" smooth="yes"/>
			<point x="449" y="28"/>
			<point x="496" y="0"/>
			<point x="548" y="0" type="curve" smooth="yes"/>
			<point x="560" y="0"/>
			<point x="575" y="3"/>
		</contour>
	</outline>
</glyph>
<glyph name="quotesingle" format="2">
	<advance width="142"/>
	<unicode hex="0027"/>
	<outline>
		<contour>
			<point x="44" y="700" type="line"/>
			<point x="54" y="570" type="line"/>
			<point x="89" y="570" type="line"/>
			<point x="99" y="700" type="line"/>
			<point x="99" y="820" type="line"/>
			<point x="44" y="820" type="line"/>
		</contour>
	</outline>
</glyph>
<glyph name="parenleft" format="2">
	<advance width="260"/>
	<unicode hex="0028"/>
	<outline>
		<contour>
			<point x="50" y="135" type="line" smooth="yes"/>
			<point x="50" y="-21"/>
			<point x="116" y="-142"/>
			<point x="227" y="-190" type="curve"/>
			<point x="245" y="-145" type="line"/>
			<point x="157" y="-98"/>
			<point x="105" y="5"/>
			<point x="105" y="130" type="curve" smooth="yes"/>
			<point x="105" y="510" type="line" smooth="yes"/>
			<point x="105" y="636"/>
			<point x="157" y="738"/>
			<point x="245" y="785" type="curve"/>
			<point x="227" y="830" type="line"/>
			<point x="116" y="782"/>
			<point x="50" y="661"/>
			<point x="50" y="505" type="curve" smooth="yes"/>
		</contour>
	</outline>
</glyph>
<glyph name="parenright" format="2">
	<advance width="259"/>
	<unicode hex="0029"/>
	<outline>
		<contour>
			<point x="210" y="135" type="curve" smooth="yes"/>
			<point x="210" y="505" type="line" smooth="yes"/>
			<point x="210" y="661"/>
			<point x="144" y="782"/>
			<point x="33" y="830" type="curve"/>
			<point x="15" y="785" type="line"/>
			<point x="103" y="738"/>
			<point x="155" y="636"/>
			<point x="155" y="510" type="curve" smooth="yes"/>
			<point x="155" y="130" type="line" smooth="yes"/>
			<point x="155" y="5"/>
			<point x="103" y="-98"/>
			<point x="15" y="-145" type="curve"/>
			<point x="33" y="-190" type="line"/>
			<point x="144" y="-142"/>
			<point x="210" y="-21"/>
		</contour>
	</outline>
</glyph>
<glyph name="asterisk" format="2">
	<advance width="322"/>
	<unicode hex="002A"/>
	<outline>
		<contour>
			<point x="35" y="606" type="line"/>
			<point x="60" y="562" type="line"/>
			<point x="63" y="561" type="line"/>
			<point x="143" y="617" type="line"/>
			<point x="134" y="520" type="line"/>
			<point x="136" y="518" type="line"/>
			<point x="187" y="518" type="line"/>
			<point x="189" y="520" type="line"/>
			<point x="180" y="617" type="line"/>
			<point x="259" y="561" type="line"/>
			<point x="262" y="562" type="line"/>
			<point x="287" y="606" type="line"/>
			<point x="287" y="608" type="line"/>
			<point x="198" y="649" type="line"/>
			<point x="287" y="690" type="line"/>
			<point x="287" y="693" type="line"/>
			<point x="262" y="737" type="line"/>
			<point x="259" y="737" type="line"/>
			<point x="180" y="681" type="line"/>
			<point x="189" y="778" type="line"/>
			<point x="187" y="780" type="line"/>
			<point x="136" y="780" type="line"/>
			<point x="134" y="778" type="line"/>
			<point x="143" y="681" type="line"/>
			<point x="63" y="737" type="line"/>
			<point x="60" y="737" type="line"/>
			<point x="35" y="693" type="line"/>
			<point x="36" y="690" type="line"/>
			<point x="124" y="649" type="line"/>
			<point x="36" y="608" type="line"/>
		</contour>
	</outline>
</glyph>
<glyph name="comma" format="2">
	<advance width="152"/>
	<unicode hex="002C"/>
	<outline>
		<contour>
			<point x="49" y="-79" type="line"/>
			<point x="77" y="-79" type="line"/>
			<point x="109" y="0" type="line"/>
			<point x="109" y="90" type="line"/>
			<point x="44" y="90" type="line"/>
			<point x="44" y="0" type="line"/>
			<point x="74" y="0" type="line"/>
		</contour>
	</outline>
</glyph>
<glyph name="hyphen" format="2">
	<advance width="258"/>
	<unicode hex="002D"/>
	<outline>
		<contour>
			<point x="34" y="297" type="line"/>
			<point x="224" y="297" type="line"/>
			<point x="224" y="345" type="line"/>
			<point x="34" y="345" type="line"/>
		</contour>
	</outline>
</glyph>
<glyph name="period" format="2">
	<advance width="152"/>
	<unicode hex="002E"/>
	<outline>
		<contour>
			<point x="44" y="0" type="line"/>
			<point x="109" y="0" type="line"/>
			<point x="109" y="90" type="line"/>
			<point x="44" y="90" type="line"/>
		</contour>
	</outline>
</glyph>
<glyph name="slash" format="2">
	<advance width="237"/>
	<unicode hex="002F"/>
	<outline>
		<contour>
			<point x="200" y="820" type="line"/>
			<point x="-15" y="-26" type="line"/>
			<point x="37" y="-26" type="line"/>
			<point x="252" y="820" type="line"/>
		</contour>
	</outline>
</glyph>
<glyph name="zero" format="2">
	<advance width="485"/>
	<unicode hex="0030"/>
	<outline>
		<contour>
			<point x="50" y="230" type="line" smooth="yes"/>
			<point x="50" y="78"/>
			<point x="121" y="-13"/>
			<point x="243" y="-13" type="curve" smooth="yes"/>
			<point x="365" y="-13"/>
			<point x="436" y="77"/>
			<point x="436" y="229" type="curve" smooth="yes"/>
			<point x="436" y="551" type="line" smooth="yes"/>
			<point x="436" y="703"/>
			<point x="365" y="793"/>
			<point x="243" y="793" type="curve" smooth="yes"/>
			<point x="120" y="793"/>
			<point x="50" y="704"/>
			<point x="50" y="552" type="curve" smooth="yes"/>
		</contour>
		<contour>
			<point x="106" y="226" type="curve" smooth="yes"/>
			<point x="106" y="550" type="line" smooth="yes"/>
			<point x="106" y="671"/>
			<point x="155" y="742"/>
			<point x="242" y="742" type="curve" smooth="yes"/>
			<point x="330" y="742"/>
			<point x="380" y="673"/>
			<point x="380" y="555" type="curve" smooth="yes"/>
			<point x="380" y="231" type="line" smooth="yes"/>
			<point x="380" y="110"/>
			<point x="330" y="38"/>
			<point x="244" y="38" type="curve" smooth="yes"/>
			<point x="156" y="38"/>
			<point x="106" y="108"/>
		</contour>
	</outline>
</glyph>
<glyph name="one" format="2">
	<advance width="280"/>
	<unicode hex="0031"/>
	<outline>
		<contour>
			<point x="39" y="546" type="curve"/>
			<point x="75" y="512" type="line"/>
			<point x="112" y="552"/>
			<point x="137" y="596"/>
			<point x="147" y="638" type="curve"/>
			<point x="151" y="638" type="line"/>
			<point x="151" y="0" type="line"/>
			<point x="206" y="0" type="line"/>
			<point x="206" y="780" type="line"/>
			<point x="161" y="780" type="line"/>
			<point x="139" y="697"/>
			<point x="94" y="610"/>
		</contour>
	</outline>
</glyph>
<glyph name="two" format="2">
	<advance width="444"/>
	<unicode hex="0032"/>
	<outline>
		<contour>
			<point x="62" y="581" type="line"/>
			<point x="113" y="579" type="line"/>
			<point x="113" y="630" type="line" smooth="yes"/>
			<point x="113" y="700"/>
			<point x="153" y="742"/>
			<point x="220" y="742" type="curve" smooth="yes"/>
			<point x="287" y="742"/>
			<point x="327" y="701"/>
			<point x="327" y="632" type="curve" smooth="yes"/>
			<point x="327" y="456"/>
			<point x="224" y="241"/>
			<point x="50" y="53" type="curve"/>
			<point x="50" y="0" type="line"/>
			<point x="403" y="0" type="line"/>
			<point x="403" y="50" type="line"/>
			<point x="118" y="50" type="line"/>
			<point x="118" y="54" type="line"/>
			<point x="285" y="235"/>
			<point x="383" y="448"/>
			<point x="383" y="630" type="curve" smooth="yes"/>
			<point x="383" y="732"/>
			<point x="323" y="793"/>
			<point x="221" y="793" type="curve" smooth="yes"/>
			<point x="121" y="793"/>
			<point x="62" y="734"/>
			<point x="62" y="635" type="curve" smooth="yes"/>
		</contour>
	</outline>
</glyph>
<glyph name="three" format="2">
	<advance width="462"/>
	<unicode hex="0033"/>
	<outline>
		<contour>
			<point x="50" y="156" type="line" smooth="yes"/>
			<point x="50" y="50"/>
			<point x="118" y="-13"/>
			<point x="234" y="-13" type="curve" smooth="yes"/>
			<point x="350" y="-13"/>
			<point x="419" y="56"/>
			<point x="419" y="173" type="curve" smooth="yes"/>
			<point x="419" y="288" type="line" smooth="yes"/>
			<point x="419" y="363"/>
			<point x="374" y="416"/>
			<point x="298" y="431" type="curve"/>
			<point x="298" y="435" type="line"/>
			<point x="355" y="447"/>
			<point x="389" y="490"/>
			<point x="389" y="550" type="curve" smooth="yes"/>
			<point x="389" y="640" type="line" smooth="yes"/>
			<point x="389" y="736"/>
			<point x="331" y="793"/>
			<point x="232" y="793" type="curve" smooth="yes"/>
			<point x="127" y="793"/>
			<point x="65" y="740"/>
			<point x="65" y="650" type="curve" smooth="yes"/>
			<point x="65" y="577" type="line"/>
			<point x="119" y="575" type="line"/>
			<point x="119" y="645" type="line" smooth="yes"/>
			<point x="119" y="706"/>
			<point x="161" y="742"/>
			<point x="231" y="742" type="curve" smooth="yes"/>
			<point x="295" y="742"/>
			<point x="333" y="704"/>
			<point x="333" y="640" type="curve" smooth="yes"/>
			<point x="333" y="548" type="line" smooth="yes"/>
			<point x="333" y="490"/>
			<point x="296" y="455"/>
			<point x="233" y="455" type="curve" smooth="yes"/>
			<point x="196" y="455" type="line"/>
			<point x="196" y="405" type="line"/>
			<point x="228" y="405" type="line" smooth="yes"/>
			<point x="311" y="405"/>
			<point x="360" y="362"/>
			<point x="360" y="290" type="curve" smooth="yes"/>
			<point x="360" y="175" type="line" smooth="yes"/>
			<point x="360" y="89"/>
			<point x="313" y="38"/>
			<point x="234" y="38" type="curve" smooth="yes"/>
			<point x="153" y="38"/>
			<point x="105" y="83"/>
			<point x="105" y="159" type="curve" smooth="yes"/>
			<point x="105" y="234" type="line"/>
			<point x="50" y="231" type="line"/>
		</contour>
	</outline>
</glyph>
<glyph name="four" format="2">
	<advance width="474"/>
	<unicode hex="0034"/>
	<outline>
		<contour>
			<point x="431" y="190" type="line"/>
			<point x="431" y="240" type="line"/>
			<point x="91" y="240" type="line"/>
			<point x="91" y="244" type="line"/>
			<point x="175" y="357"/>
			<point x="245" y="504"/>
			<point x="280" y="640" type="curve"/>
			<point x="284" y="640" type="line"/>
			<point x="284" y="0" type="line"/>
			<point x="339" y="0" type="line"/>
			<point x="339" y="780" type="line"/>
			<point x="287" y="780" type="line"/>
			<point x="227" y="581"/>
			<point x="135" y="383"/>
			<point x="39" y="245" type="curve"/>
			<point x="39" y="190" type="line"/>
		</contour>
	</outline>
</glyph>
<glyph name="five" format="2">
	<advance width="455"/>
	<unicode hex="0035"/>
	<outline>
		<contour>
			<point x="50" y="161" type="line" smooth="yes"/>
			<point x="50" y="52"/>
			<point x="116" y="-13"/>
			<point x="227" y="-13" type="curve" smooth="yes"/>
			<point x="340" y="-13"/>
			<point x="406" y="52"/>
			<point x="406" y="163" type="curve" smooth="yes"/>
			<point x="406" y="343" type="line" smooth="yes"/>
			<point x="406" y="456"/>
			<point x="337" y="531"/>
			<point x="236" y="531" type="curve" smooth="yes"/>
			<point x="191" y="531"/>
			<point x="147" y="512"/>
			<point x="127" y="485" type="curve"/>
			<point x="123" y="485" type="line"/>
			<point x="135" y="730" type="line"/>
			<point x="365" y="730" type="line"/>
			<point x="365" y="780" type="line"/>
			<point x="86" y="780" type="line"/>
			<point x="70" y="434" type="line"/>
			<point x="119" y="422" type="line"/>
			<point x="136" y="457"/>
			<point x="179" y="480"/>
			<point x="224" y="480" type="curve" smooth="yes"/>
			<point x="298" y="480"/>
			<point x="350" y="427"/>
			<point x="350" y="349" type="curve" smooth="yes"/>
			<point x="350" y="165" type="line" smooth="yes"/>
			<point x="350" y="85"/>
			<point x="304" y="38"/>
			<point x="225" y="38" type="curve" smooth="yes"/>
			<point x="148" y="38"/>
			<point x="102" y="85"/>
			<point x="102" y="164" type="curve" smooth="yes"/>
			<point x="102" y="232" type="line"/>
			<point x="50" y="228" type="line"/>
		</contour>
	</outline>
</glyph>
<glyph name="six" format="2">
	<advance width="466"/>
	<unicode hex="0036"/>
	<outline>
		<contour>
			<point x="50" y="170" type="line" smooth="yes"/>
			<point x="50" y="55"/>
			<point x="117" y="-13"/>
			<point x="231" y="-13" type="curve" smooth="yes"/>
			<point x="348" y="-13"/>
			<point x="417" y="55"/>
			<point x="417" y="171" type="curve" smooth="yes"/>
			<point x="417" y="321" type="line" smooth="yes"/>
			<point x="417" y="427"/>
			<point x="355" y="490"/>
			<point x="250" y="490" type="curve" smooth="yes"/>
			<point x="177" y="490"/>
			<point x="125" y="455"/>
			<point x="110" y="396" type="curve"/>
			<point x="106" y="396" type="line"/>
			<point x="106" y="605" type="line" smooth="yes"/>
			<point x="106" y="691"/>
			<point x="154" y="742"/>
			<point x="236" y="742" type="curve" smooth="yes"/>
			<point x="309" y="742"/>
			<point x="352" y="693"/>
			<point x="352" y="609" type="curve" smooth="yes"/>
			<point x="352" y="587" type="line"/>
			<point x="404" y="590" type="line"/>
			<point x="404" y="607" type="line" smooth="yes"/>
			<point x="404" y="724"/>
			<point x="341" y="793"/>
			<point x="235" y="793" type="curve" smooth="yes"/>
			<point x="119" y="793"/>
			<point x="50" y="722"/>
			<point x="50" y="602" type="curve" smooth="yes"/>
		</contour>
		<contour>
			<point x="106" y="172" type="curve" smooth="yes"/>
			<point x="106" y="322" type="line" smooth="yes"/>
			<point x="106" y="396"/>
			<point x="156" y="439"/>
			<point x="240" y="439" type="curve" smooth="yes"/>
			<point x="317" y="439"/>
			<point x="362" y="393"/>
			<point x="362" y="315" type="curve" smooth="yes"/>
			<point x="362" y="168" type="line" smooth="yes"/>
			<point x="362" y="86"/>
			<point x="313" y="38"/>
			<point x="231" y="38" type="curve" smooth="yes"/>
			<point x="152" y="38"/>
			<point x="106" y="88"/>
		</contour>
	</outline>
</glyph>
<glyph name="seven" format="2">
	<advance width="438"/>
	<unicode hex="0037"/>
	<outline>
		<contour>
			<point x="39" y="730" type="line"/>
			<point x="350" y="730" type="line"/>
			<point x="350" y="723" type="line"/>
			<point x="228" y="563"/>
			<point x="156" y="295"/>
			<point x="156" y="0" type="curve"/>
			<point x="211" y="0" type="line"/>
			<point x="211" y="278"/>
			<point x="283" y="549"/>
			<point x="404" y="730" type="curve"/>
			<point x="404" y="780" type="line"/>
			<point x="39" y="780" type="line"/>
		</contour>
	</outline>
</glyph>
<glyph name="eight" format="2">
	<advance width="460"/>
	<unicode hex="0038"/>
	<outline>
		<contour>
			<point x="50" y="148" type="line" smooth="yes"/>
			<point x="50" y="47"/>
			<point x="118" y="-13"/>
			<point x="233" y="-13" type="curve" smooth="yes"/>
			<point x="345" y="-13"/>
			<point x="411" y="47"/>
			<point x="411" y="148" type="curve" smooth="yes"/>
			<point x="411" y="298" type="line" smooth="yes"/>
			<point x="411" y="367"/>
			<point x="371" y="417"/>
			<point x="303" y="434" type="curve"/>
			<point x="303" y="438" type="line"/>
			<point x="356" y="453"/>
			<point x="388" y="495"/>
			<point x="388" y="553" type="curve" smooth="yes"/>
			<point x="388" y="652" type="line" smooth="yes"/>
			<point x="388" y="741"/>
			<point x="329" y="793"/>
			<point x="229" y="793" type="curve" smooth="yes"/>
			<point x="130" y="793"/>
			<point x="72" y="741"/>
			<point x="72" y="652" type="curve" smooth="yes"/>
			<point x="72" y="553" type="line" smooth="yes"/>
			<point x="72" y="496"/>
			<point x="104" y="453"/>
			<point x="158" y="438" type="curve"/>
			<point x="158" y="434" type="line"/>
			<point x="90" y="417"/>
			<point x="50" y="367"/>
			<point x="50" y="298" type="curve" smooth="yes"/>
		</contour>
		<contour>
			<point x="106" y="149" type="curve" smooth="yes"/>
			<point x="106" y="298" type="line" smooth="yes"/>
			<point x="106" y="368"/>
			<point x="151" y="410"/>
			<point x="228" y="410" type="curve" smooth="yes"/>
			<point x="308" y="410"/>
			<point x="355" y="370"/>
			<point x="355" y="301" type="curve" smooth="yes"/>
			<point x="355" y="151" type="line" smooth="yes"/>
			<point x="355" y="80"/>
			<point x="308" y="38"/>
			<point x="228" y="38" type="curve" smooth="yes"/>
			<point x="151" y="38"/>
			<point x="106" y="79"/>
		</contour>
		<contour>
			<point x="127" y="549" type="curve" smooth="yes"/>
			<point x="127" y="651" type="line" smooth="yes"/>
			<point x="127" y="708"/>
			<point x="166" y="742"/>
			<point x="232" y="742" type="curve" smooth="yes"/>
			<point x="295" y="742"/>
			<point x="333" y="709"/>
			<point x="333" y="653" type="curve" smooth="yes"/>
			<point x="333" y="552" type="line" smooth="yes"/>
			<point x="333" y="494"/>
			<point x="296" y="460"/>
			<point x="233" y="460" type="curve" smooth="yes"/>
			<point x="166" y="460"/>
			<point x="127" y="493"/>
		</contour>
	</outline>
</glyph>
<glyph name="nine" format="2">
	<advance width="466"/>
	<unicode hex="0039"/>
	<outline>
		<contour>
			<point x="417" y="600" type="line" smooth="yes"/>
			<point x="417" y="721"/>
			<point x="350" y="793"/>
			<point x="236" y="793" type="curve" smooth="yes"/>
			<point x="119" y="793"/>
			<point x="50" y="725"/>
			<point x="50" y="610" type="curve" smooth="yes"/>
			<point x="50" y="459" type="line" smooth="yes"/>
			<point x="50" y="353"/>
			<point x="112" y="291"/>
			<point x="217" y="291" type="curve" smooth="yes"/>
			<point x="306" y="291"/>
			<point x="364" y="337"/>
			<point x="375" y="415" type="curve"/>
			<point x="361" y="415" type="line"/>
			<point x="361" y="176" type="line" smooth="yes"/>
			<point x="361" y="89"/>
			<point x="312" y="38"/>
			<point x="230" y="38" type="curve" smooth="yes"/>
			<point x="157" y="38"/>
			<point x="114" y="87"/>
			<point x="114" y="171" type="curve" smooth="yes"/>
			<point x="114" y="194" type="line"/>
			<point x="63" y="190" type="line"/>
			<point x="63" y="173" type="line" smooth="yes"/>
			<point x="63" y="56"/>
			<point x="125" y="-13"/>
			<point x="231" y="-13" type="curve" smooth="yes"/>
			<point x="348" y="-13"/>
			<point x="417" y="58"/>
			<point x="417" y="178" type="curve" smooth="yes"/>
		</contour>
		<contour>
			<point x="361" y="608" type="curve" smooth="yes"/>
			<point x="361" y="459" type="line" smooth="yes"/>
			<point x="361" y="385"/>
			<point x="304" y="342"/>
			<point x="227" y="342" type="curve" smooth="yes"/>
			<point x="150" y="342"/>
			<point x="105" y="388"/>
			<point x="105" y="465" type="curve" smooth="yes"/>
			<point x="105" y="612" type="line" smooth="yes"/>
			<point x="105" y="694"/>
			<point x="153" y="742"/>
			<point x="235" y="742" type="curve" smooth="yes"/>
			<point x="314" y="742"/>
			<point x="361" y="692"/>
		</contour>
	</outline>
</glyph>
<glyph name="question" format="2">
	<advance width="435"/>
	<unicode hex="003F"/>
	<outline>
		<contour>
			<point x="46" y="566" type="line"/>
			<point x="100" y="564" type="line"/>
			<point x="100" y="600" type="line" smooth="yes"/>
			<point x="100" y="696"/>
			<point x="145" y="752"/>
			<point x="220" y="752" type="curve" smooth="yes"/>
			<point x="294" y="752"/>
			<point x="338" y="715"/>
			<point x="338" y="651" type="curve" smooth="yes"/>
			<point x="338" y="626"/>
			<point x="333" y="596"/>
			<point x="325" y="570" type="curve" smooth="yes"/>
			<point x="317" y="543"/>
			<point x="300" y="507"/>
			<point x="284" y="475" type="curve" smooth="yes"/>
			<point x="256" y="419" type="line" smooth="yes"/>
			<point x="236" y="380"/>
			<point x="219" y="341"/>
			<point x="210" y="314" type="curve" smooth="yes"/>
			<point x="197" y="276"/>
			<point x="190" y="238"/>
			<point x="190" y="210" type="curve" smooth="yes"/>
			<point x="190" y="158" type="line"/>
			<point x="245" y="158" type="line"/>
			<point x="245" y="212" type="line" smooth="yes"/>
			<point x="245" y="241"/>
			<point x="251" y="274"/>
			<point x="261" y="301" type="curve" smooth="yes"/>
			<point x="272" y="330"/>
			<point x="286" y="365"/>
			<point x="300" y="393" type="curve" smooth="yes"/>
			<point x="328" y="449" type="line" smooth="yes"/>
			<point x="350" y="492"/>
			<point x="368" y="531"/>
			<point x="376" y="553" type="curve" smooth="yes"/>
			<point x="387" y="584"/>
			<point x="394" y="621"/>
			<point x="394" y="645" type="curve" smooth="yes"/>
			<point x="394" y="745"/>
			<point x="330" y="803"/>
			<point x="221" y="803" type="curve" smooth="yes"/>
			<point x="111" y="803"/>
			<point x="46" y="729"/>
			<point x="46" y="605" type="curve" smooth="yes"/>
		</contour>
		<component base="period" xOffset="144"/>
	</outline>
</glyph>
<glyph name="at" format="2">
	<advance width="743"/>
	<unicode hex="0040"/>
	<outline>
		<contour>
			<point x="482" y="499" type="line"/>
			<point x="466" y="562"/>
			<point x="414" y="603"/>
			<point x="352" y="603" type="curve" smooth="yes"/>
			<point x="272" y="603"/>
			<point x="217" y="540"/>
			<point x="217" y="446" type="curve" smooth="yes"/>
			<point x="217" y="280" type="line" smooth="yes"/>
			<point x="217" y="186"/>
			<point x="272" y="122"/>
			<point x="353" y="122" type="curve" smooth="yes"/>
			<point x="416" y="122"/>
			<point x="467" y="164"/>
			<point x="482" y="226" type="curve"/>
			<point x="482" y="302" type="line"/>
			<point x="462" y="302" type="line"/>
			<point x="462" y="273" type="line" smooth="yes"/>
			<point x="462" y="210"/>
			<point x="420" y="167"/>
			<point x="359" y="167" type="curve" smooth="yes"/>
			<point x="305" y="167"/>
			<point x="268" y="212"/>
			<point x="268" y="277" type="curve" smooth="yes"/>
			<point x="268" y="441" type="line" smooth="yes"/>
			<point x="268" y="510"/>
			<point x="307" y="558"/>
			<point x="365" y="558" type="curve" smooth="yes"/>
			<point x="422" y="558"/>
			<point x="462" y="515"/>
			<point x="462" y="453" type="curve"/>
			<point x="482" y="453" type="line"/>
		</contour>
		<contour>
			<point x="50" y="261" type="line" smooth="yes"/>
			<point x="50" y="60"/>
			<point x="185" y="-75"/>
			<point x="387" y="-75" type="curve" smooth="yes"/>
			<point x="459" y="-75"/>
			<point x="543" y="-53"/>
			<point x="596" y="-21" type="curve"/>
			<point x="596" y="23" type="line"/>
			<point x="591" y="26" type="line"/>
			<point x="537" y="-7"/>
			<point x="456" y="-30"/>
			<point x="388" y="-30" type="curve" smooth="yes"/>
			<point x="216" y="-30"/>
			<point x="101" y="82"/>
			<point x="101" y="248" type="curve" smooth="yes"/>
			<point x="101" y="478" type="line" smooth="yes"/>
			<point x="101" y="641"/>
			<point x="212" y="750"/>
			<point x="376" y="750" type="curve" smooth="yes"/>
			<point x="536" y="750"/>
			<point x="643" y="642"/>
			<point x="643" y="480" type="curve" smooth="yes"/>
			<point x="643" y="287" type="line" smooth="yes"/>
			<point x="643" y="215"/>
			<point x="611" y="165"/>
			<point x="565" y="165" type="curve" smooth="yes"/>
			<point x="533" y="165"/>
			<point x="512" y="192"/>
			<point x="512" y="231" type="curve" smooth="yes"/>
			<point x="512" y="590" type="line"/>
			<point x="472" y="590" type="line"/>
			<point x="462" y="513" type="line"/>
			<point x="462" y="239" type="line" smooth="yes"/>
			<point x="462" y="167"/>
			<point x="502" y="120"/>
			<point x="564" y="120" type="curve" smooth="yes"/>
			<point x="642" y="120"/>
			<point x="694" y="187"/>
			<point x="694" y="287" type="curve" smooth="yes"/>
			<point x="694" y="467" type="line" smooth="yes"/>
			<point x="694" y="664"/>
			<point x="567" y="795"/>
			<point x="377" y="795" type="curve" smooth="yes"/>
			<point x="181" y="795"/>
			<point x="50" y="664"/>
			<point x="50" y="468" type="curve" smooth="yes"/>
		</contour>
	</outline>
</glyph>
<glyph name="A" format="2">
	<advance width="524"/>
	<unicode hex="0041"/>
	<anchor x="490" y="10" name="ogonek"/>
	<anchor x="258" y="0" name="bottom"/>
	<anchor x="258" y="800" name="top"/>
	<outline>
		<contour>
			<point x="490" y="0" type="line"/>
			<point x="290" y="800" type="line"/>
			<point x="227" y="800" type="line"/>
			<point x="39" y="0" type="line"/>
			<point x="96" y="0" type="line"/>
			<point x="242" y="654" type="line"/>
			<point x="255" y="740" type="line"/>
			<point x="260" y="740" type="line"/>
			<point x="274" y="654" type="line"/>
			<point x="429" y="0" type="line"/>
		</contour>
		<contour>
			<point x="126" y="275" type="line"/>
			<point x="126" y="225" type="line"/>
			<point x="396" y="225" type="line"/>
			<point x="396" y="275" type="line"/>
		</contour>
	</outline>
</glyph>
<glyph name="B" format="2">
	<advance width="514"/>
	<unicode hex="0042"/>
	<outline>
		<contour>
			<point x="75" y="0" type="line"/>
			<point x="278" y="0" type="line" smooth="yes"/>
			<point x="399" y="0"/>
			<point x="471" y="70"/>
			<point x="471" y="189" type="curve" smooth="yes"/>
			<point x="471" y="271" type="line" smooth="yes"/>
			<point x="471" y="358"/>
			<point x="424" y="419"/>
			<point x="345" y="435" type="curve"/>
			<point x="345" y="440" type="line"/>
			<point x="407" y="451"/>
			<point x="444" y="500"/>
			<point x="444" y="572" type="curve" smooth="yes"/>
			<point x="444" y="638" type="line" smooth="yes"/>
			<point x="444" y="740"/>
			<point x="383" y="800"/>
			<point x="280" y="800" type="curve" smooth="yes"/>
			<point x="75" y="800" type="line"/>
		</contour>
		<contour>
			<point x="130" y="50" type="line"/>
			<point x="130" y="410" type="line"/>
			<point x="276" y="410" type="line" smooth="yes"/>
			<point x="363" y="410"/>
			<point x="415" y="359"/>
			<point x="415" y="273" type="curve" smooth="yes"/>
			<point x="415" y="187" type="line" smooth="yes"/>
			<point x="415" y="101"/>
			<point x="364" y="50"/>
			<point x="278" y="50" type="curve" smooth="yes"/>
		</contour>
		<contour>
			<point x="130" y="460" type="line"/>
			<point x="130" y="750" type="line"/>
			<point x="279" y="750" type="line" smooth="yes"/>
			<point x="348" y="750"/>
			<point x="388" y="710"/>
			<point x="388" y="641" type="curve" smooth="yes"/>
			<point x="388" y="569" type="line" smooth="yes"/>
			<point x="388" y="500"/>
			<point x="348" y="460"/>
			<point x="281" y="460" type="curve" smooth="yes"/>
		</contour>
	</outline>
</glyph>
<glyph name="C" format="2">
	<advance width="522"/>
	<unicode hex="0043"/>
	<anchor x="279" y="800" name="top"/>
	<anchor x="274" y="0" name="bottom"/>
	<outline>
		<contour>
			<point x="475" y="259" type="line"/>
			<point x="421" y="261" type="line"/>
			<point x="421" y="215" type="line" smooth="yes"/>
			<point x="421" y="104"/>
			<point x="363" y="38"/>
			<point x="264" y="38" type="curve" smooth="yes"/>
			<point x="165" y="38"/>
			<point x="106" y="110"/>
			<point x="106" y="231" type="curve" smooth="yes"/>
			<point x="106" y="565" type="line" smooth="yes"/>
			<point x="106" y="689"/>
			<point x="165" y="762"/>
			<point x="264" y="762" type="curve" smooth="yes"/>
			<point x="356" y="762"/>
			<point x="411" y="696"/>
			<point x="411" y="583" type="curve" smooth="yes"/>
			<point x="411" y="546" type="line"/>
			<point x="465" y="548" type="line"/>
			<point x="465" y="584" type="line" smooth="yes"/>
			<point x="465" y="728"/>
			<point x="390" y="813"/>
			<point x="264" y="813" type="curve" smooth="yes"/>
			<point x="129" y="813"/>
			<point x="50" y="722"/>
			<point x="50" y="567" type="curve" smooth="yes"/>
			<point x="50" y="235" type="line" smooth="yes"/>
			<point x="50" y="79"/>
			<point x="129" y="-13"/>
			<point x="263" y="-13" type="curve" smooth="yes"/>
			<point x="396" y="-13"/>
			<point x="475" y="70"/>
			<point x="475" y="211" type="curve" smooth="yes"/>
		</contour>
	</outline>
</glyph>
<glyph name="D" format="2">
	<advance width="530"/>
	<unicode hex="0044"/>
	<anchor x="253" y="400" name="center"/>
	<anchor x="253" y="0" name="bottom"/>
	<anchor x="253" y="800" name="top"/>
	<outline>
		<contour>
			<point x="75" y="0" type="line"/>
			<point x="250" y="0" type="line" smooth="yes"/>
			<point x="394" y="0"/>
			<point x="481" y="90"/>
			<point x="481" y="236" type="curve" smooth="yes"/>
			<point x="481" y="561" type="line" smooth="yes"/>
			<point x="481" y="710"/>
			<point x="394" y="800"/>
			<point x="250" y="800" type="curve" smooth="yes"/>
			<point x="75" y="800" type="line"/>
		</contour>
		<contour>
			<point x="130" y="50" type="line"/>
			<point x="130" y="750" type="line"/>
			<point x="249" y="750" type="line" smooth="yes"/>
			<point x="358" y="750"/>
			<point x="425" y="681"/>
			<point x="425" y="568" type="curve" smooth="yes"/>
			<point x="425" y="239" type="line" smooth="yes"/>
			<point x="425" y="122"/>
			<point x="359" y="50"/>
			<point x="251" y="50" type="curve" smooth="yes"/>
		</contour>
	</outline>
</glyph>
<glyph name="E" format="2">
	<advance width="473"/>
	<unicode hex="0045"/>
	<anchor x="430" y="10" name="ogonek"/>
	<anchor x="246" y="800" name="top"/>
	<anchor x="32" y="800" name="topleft"/>
	<anchor x="243" y="0" name="bottom"/>
	<outline>
		<contour>
			<point x="75" y="0" type="line"/>
			<point x="430" y="0" type="line"/>
			<point x="430" y="50" type="line"/>
			<point x="130" y="50" type="line"/>
			<point x="130" y="420" type="line"/>
			<point x="372" y="420" type="line"/>
			<point x="372" y="470" type="line"/>
			<point x="130" y="470" type="line"/>
			<point x="130" y="750" type="line"/>
			<point x="415" y="750" type="line"/>
			<point x="415" y="800" type="line"/>
			<point x="75" y="800" type="line"/>
		</contour>
	</outline>
</glyph>
<glyph name="F" format="2">
	<advance width="463"/>
	<unicode hex="0046"/>
	<outline>
		<contour>
			<point x="75" y="0" type="line"/>
			<point x="130" y="0" type="line"/>
			<point x="130" y="420" type="line"/>
			<point x="370" y="420" type="line"/>
			<point x="370" y="470" type="line"/>
			<point x="130" y="470" type="line"/>
			<point x="130" y="750" type="line"/>
			<point x="420" y="750" type="line"/>
			<point x="420" y="800" type="line"/>
			<point x="75" y="800" type="line"/>
		</contour>
	</outline>
</glyph>
<glyph name="G" format="2">
	<advance width="536"/>
	<unicode hex="0047"/>
	<anchor x="264" y="800" name="top"/>
	<anchor x="264" y="0" name="bottom"/>
	<outline>
		<contour>
			<point x="487" y="423" type="line"/>
			<point x="280" y="423" type="line"/>
			<point x="280" y="373" type="line"/>
			<point x="432" y="373" type="line"/>
			<point x="432" y="223" type="line" smooth="yes"/>
			<point x="432" y="107"/>
			<point x="370" y="38"/>
			<point x="264" y="38" type="curve" smooth="yes"/>
			<point x="165" y="38"/>
			<point x="106" y="110"/>
			<point x="106" y="231" type="curve" smooth="yes"/>
			<point x="106" y="565" type="line" smooth="yes"/>
			<point x="106" y="689"/>
			<point x="165" y="762"/>
			<point x="264" y="762" type="curve" smooth="yes"/>
			<point x="356" y="762"/>
			<point x="411" y="697"/>
			<point x="411" y="588" type="curve" smooth="yes"/>
			<point x="411" y="551" type="line"/>
			<point x="465" y="553" type="line"/>
			<point x="465" y="589" type="line" smooth="yes"/>
			<point x="465" y="730"/>
			<point x="390" y="813"/>
			<point x="264" y="813" type="curve" smooth="yes"/>
			<point x="129" y="813"/>
			<point x="50" y="722"/>
			<point x="50" y="567" type="curve" smooth="yes"/>
			<point x="50" y="235" type="line" smooth="yes"/>
			<point x="50" y="79"/>
			<point x="129" y="-13"/>
			<point x="263" y="-13" type="curve" smooth="yes"/>
			<point x="404" y="-13"/>
			<point x="487" y="74"/>
			<point x="487" y="221" type="curve" smooth="yes"/>
		</contour>
	</outline>
</glyph>
<glyph name="H" format="2">
	<advance width="549"/>
	<unicode hex="0048"/>
	<outline>
		<contour>
			<point x="75" y="0" type="line"/>
			<point x="130" y="0" type="line"/>
			<point x="130" y="410" type="line"/>
			<point x="420" y="410" type="line"/>
			<point x="420" y="0" type="line"/>
			<point x="475" y="0" type="line"/>
			<point x="475" y="800" type="line"/>
			<point x="420" y="800" type="line"/>
			<point x="420" y="460" type="line"/>
			<point x="130" y="460" type="line"/>
			<point x="130" y="800" type="line"/>
			<point x="75" y="800" type="line"/>
		</contour>
	</outline>
</glyph>
<glyph name="I" format="2">
	<advance width="204"/>
	<unicode hex="0049"/>
	<anchor x="130" y="10" name="ogonek"/>
	<anchor x="103" y="800" name="top"/>
	<anchor x="32" y="800" name="topleft"/>
	<anchor x="103" y="0" name="bottom"/>
	<outline>
		<contour>
			<point x="130" y="800" type="line"/>
			<point x="75" y="800" type="line"/>
			<point x="75" y="0" type="line"/>
			<point x="130" y="0" type="line"/>
		</contour>
	</outline>
</glyph>
<glyph name="J" format="2">
	<advance width="431"/>
	<unicode hex="004A"/>
	<outline>
		<contour>
			<point x="357" y="800" type="line"/>
			<point x="302" y="800" type="line"/>
			<point x="302" y="156" type="line" smooth="yes"/>
			<point x="302" y="82"/>
			<point x="262" y="38"/>
			<point x="195" y="38" type="curve" smooth="yes"/>
			<point x="132" y="38"/>
			<point x="94" y="80"/>
			<point x="94" y="151" type="curve" smooth="yes"/>
			<point x="94" y="287" type="line"/>
			<point x="39" y="282" type="line"/>
			<point x="39" y="155" type="line" smooth="yes"/>
			<point x="39" y="49"/>
			<point x="97" y="-13"/>
			<point x="195" y="-13" type="curve" smooth="yes"/>
			<point x="297" y="-13"/>
			<point x="357" y="49"/>
			<point x="357" y="154" type="curve" smooth="yes"/>
		</contour>
	</outline>
</glyph>
<glyph name="K" format="2">
	<advance width="499"/>
	<unicode hex="004B"/>
	<anchor x="252" y="800" name="top"/>
	<anchor x="252" y="0" name="bottom"/>
	<outline>
		<contour>
			<point x="75" y="0" type="line"/>
			<point x="130" y="0" type="line"/>
			<point x="130" y="326" type="line"/>
			<point x="220" y="477" type="line"/>
			<point x="225" y="477" type="line"/>
			<point x="406" y="0" type="line"/>
			<point x="465" y="0" type="line"/>
			<point x="264" y="519" type="line"/>
			<point x="444" y="800" type="line"/>
			<point x="381" y="800" type="line"/>
			<point x="142" y="426" type="line"/>
			<point x="131" y="391" type="line"/>
			<point x="126" y="391" type="line"/>
			<point x="130" y="429" type="line"/>
			<point x="130" y="800" type="line"/>
			<point x="75" y="800" type="line"/>
		</contour>
	</outline>
</glyph>
<glyph name="L" format="2">
	<advance width="464"/>
	<unicode hex="004C"/>
	<anchor x="116" y="400" name="center"/>
	<anchor x="115" y="800" name="top"/>
	<anchor x="170" y="810" name="topright"/>
	<anchor x="255" y="0" name="bottom"/>
	<outline>
		<contour>
			<point x="430" y="0" type="line"/>
			<point x="430" y="50" type="line"/>
			<point x="130" y="50" type="line"/>
			<point x="130" y="800" type="line"/>
			<point x="75" y="800" type="line"/>
			<point x="75" y="0" type="line"/>
		</contour>
	</outline>
</glyph>
<glyph name="M" format="2">
	<advance width="686"/>
	<unicode hex="004D"/>
	<outline>
		<contour>
			<point x="612" y="0" type="line"/>
			<point x="612" y="800" type="line"/>
			<point x="536" y="800" type="line"/>
			<point x="351" y="142" type="line"/>
			<point x="344" y="68" type="line"/>
			<point x="339" y="68" type="line"/>
			<point x="332" y="142" type="line"/>
			<point x="151" y="800" type="line"/>
			<point x="75" y="800" type="line"/>
			<point x="75" y="0" type="line"/>
			<point x="126" y="0" type="line"/>
			<point x="126" y="633" type="line"/>
			<point x="118" y="740" type="line"/>
			<point x="123" y="740" type="line"/>
			<point x="142" y="633" type="line"/>
			<point x="316" y="0" type="line"/>
			<point x="365" y="0" type="line"/>
			<point x="540" y="633" type="line"/>
			<point x="562" y="740" type="line"/>
			<point x="567" y="740" type="line"/>
			<point x="557" y="633" type="line"/>
			<point x="557" y="0" type="line"/>
		</contour>
	</outline>
</glyph>
<glyph name="N" format="2">
	<advance width="540"/>
	<unicode hex="004E"/>
	<anchor x="276" y="800" name="top"/>
	<anchor x="276" y="0" name="bottom"/>
	<outline>
		<contour>
			<point x="75" y="800" type="line"/>
			<point x="75" y="0" type="line"/>
			<point x="124" y="0" type="line"/>
			<point x="124" y="660" type="line"/>
			<point x="118" y="740" type="line"/>
			<point x="123" y="740" type="line"/>
			<point x="148" y="660" type="line"/>
			<point x="391" y="0" type="line"/>
			<point x="466" y="0" type="line"/>
			<point x="466" y="800" type="line"/>
			<point x="417" y="800" type="line"/>
			<point x="417" y="145" type="line"/>
			<point x="423" y="60" type="line"/>
			<point x="418" y="60" type="line"/>
			<point x="393" y="145" type="line"/>
			<point x="151" y="800" type="line"/>
		</contour>
	</outline>
</glyph>
<glyph name="O" format="2">
	<advance width="532"/>
	<unicode hex="004F"/>
	<anchor x="266" y="400" name="center"/>
	<anchor x="348" y="10" name="ogonek"/>
	<anchor x="266" y="800" name="top"/>
	<anchor x="514" y="800" name="topright"/>
	<anchor x="18" y="800" name="topleft"/>
	<anchor x="266" y="0" name="bottom"/>
	<outline>
		<contour>
			<point x="50" y="235" type="line" smooth="yes"/>
			<point x="50" y="81"/>
			<point x="131" y="-13"/>
			<point x="266" y="-13" type="curve" smooth="yes"/>
			<point x="401" y="-13"/>
			<point x="483" y="81"/>
			<point x="483" y="234" type="curve" smooth="yes"/>
			<point x="483" y="566" type="line" smooth="yes"/>
			<point x="483" y="720"/>
			<point x="401" y="813"/>
			<point x="266" y="813" type="curve" smooth="yes"/>
			<point x="132" y="813"/>
			<point x="50" y="720"/>
			<point x="50" y="567" type="curve" smooth="yes"/>
		</contour>
		<contour>
			<point x="106" y="231" type="curve" smooth="yes"/>
			<point x="106" y="565" type="line" smooth="yes"/>
			<point x="106" y="687"/>
			<point x="166" y="762"/>
			<point x="265" y="762" type="curve" smooth="yes"/>
			<point x="366" y="762"/>
			<point x="427" y="689"/>
			<point x="427" y="570" type="curve" smooth="yes"/>
			<point x="427" y="236" type="line" smooth="yes"/>
			<point x="427" y="113"/>
			<point x="366" y="38"/>
			<point x="267" y="38" type="curve" smooth="yes"/>
			<point x="167" y="38"/>
			<point x="106" y="111"/>
		</contour>
	</outline>
</glyph>
<glyph name="P" format="2">
	<advance width="493"/>
	<unicode hex="0050"/>
	<outline>
		<contour>
			<point x="75" y="0" type="line"/>
			<point x="130" y="0" type="line"/>
			<point x="130" y="370" type="line"/>
			<point x="254" y="370" type="line" smooth="yes"/>
			<point x="374" y="370"/>
			<point x="445" y="436"/>
			<point x="445" y="548" type="curve" smooth="yes"/>
			<point x="445" y="622" type="line" smooth="yes"/>
			<point x="445" y="734"/>
			<point x="374" y="800"/>
			<point x="255" y="800" type="curve" smooth="yes"/>
			<point x="75" y="800" type="line"/>
		</contour>
		<contour>
			<point x="130" y="420" type="line"/>
			<point x="130" y="750" type="line"/>
			<point x="255" y="750" type="line" smooth="yes"/>
			<point x="340" y="750"/>
			<point x="390" y="703"/>
			<point x="390" y="624" type="curve" smooth="yes"/>
			<point x="390" y="545" type="line" smooth="yes"/>
			<point x="390" y="466"/>
			<point x="340" y="420"/>
			<point x="255" y="420" type="curve" smooth="yes"/>
		</contour>
	</outline>
</glyph>
<glyph name="Q" format="2">
	<advance width="532"/>
	<unicode hex="0051"/>
	<outline>
		<contour>
			<point x="50" y="235" type="line" smooth="yes"/>
			<point x="50" y="81"/>
			<point x="131" y="-13"/>
			<point x="266" y="-13" type="curve" smooth="yes"/>
			<point x="401" y="-13"/>
			<point x="483" y="81"/>
			<point x="483" y="234" type="curve" smooth="yes"/>
			<point x="483" y="566" type="line" smooth="yes"/>
			<point x="483" y="720"/>
			<point x="401" y="813"/>
			<point x="266" y="813" type="curve" smooth="yes"/>
			<point x="132" y="813"/>
			<point x="50" y="720"/>
			<point x="50" y="567" type="curve" smooth="yes"/>
		</contour>
		<contour>
			<point x="106" y="231" type="curve" smooth="yes"/>
			<point x="106" y="565" type="line" smooth="yes"/>
			<point x="106" y="687"/>
			<point x="166" y="762"/>
			<point x="265" y="762" type="curve" smooth="yes"/>
			<point x="366" y="762"/>
			<point x="427" y="689"/>
			<point x="427" y="570" type="curve" smooth="yes"/>
			<point x="427" y="236" type="line" smooth="yes"/>
			<point x="427" y="113"/>
			<point x="366" y="38"/>
			<point x="267" y="38" type="curve" smooth="yes"/>
			<point x="167" y="38"/>
			<point x="106" y="111"/>
		</contour>
		<contour>
			<point x="302" y="19" type="line"/>
			<point x="302" y="-1" type="line" smooth="yes"/>
			<point x="302" y="-70"/>
			<point x="346" y="-111"/>
			<point x="421" y="-111" type="curve" smooth="yes"/>
			<point x="432" y="-111"/>
			<point x="443" y="-110"/>
			<point x="452" y="-107" type="curve"/>
			<point x="452" y="-57" type="line"/>
			<point x="441" y="-60"/>
			<point x="429" y="-61"/>
			<point x="419" y="-61" type="curve" smooth="yes"/>
			<point x="369" y="-61"/>
			<point x="340" y="-36"/>
			<point x="340" y="7" type="curve" smooth="yes"/>
			<point x="340" y="19" type="line"/>
		</contour>
	</outline>
</glyph>
<glyph name="R" format="2">
	<advance width="519"/>
	<unicode hex="0052"/>
	<anchor x="253" y="800" name="top"/>
	<anchor x="263" y="0" name="bottom"/>
	<outline>
		<contour>
			<point x="75" y="0" type="line"/>
			<point x="130" y="0" type="line"/>
			<point x="130" y="390" type="line"/>
			<point x="289" y="390" type="line"/>
			<point x="426" y="0" type="line"/>
			<point x="485" y="0" type="line"/>
			<point x="353" y="376" type="line" smooth="yes"/>
			<point x="349" y="388"/>
			<point x="338" y="398"/>
			<point x="326" y="403" type="curve"/>
			<point x="326" y="407" type="line"/>
			<point x="401" y="424"/>
			<point x="445" y="482"/>
			<point x="445" y="565" type="curve" smooth="yes"/>
			<point x="445" y="625" type="line" smooth="yes"/>
			<point x="445" y="735"/>
			<point x="376" y="800"/>
			<point x="260" y="800" type="curve" smooth="yes"/>
			<point x="75" y="800" type="line"/>
		</contour>
		<contour>
			<point x="130" y="440" type="line"/>
			<point x="130" y="750" type="line"/>
			<point x="259" y="750" type="line" smooth="yes"/>
			<point x="341" y="750"/>
			<point x="390" y="704"/>
			<point x="390" y="627" type="curve" smooth="yes"/>
			<point x="390" y="563" type="line" smooth="yes"/>
			<point x="390" y="486"/>
			<point x="342" y="440"/>
			<point x="261" y="440" type="curve" smooth="yes"/>
		</contour>
	</outline>
</glyph>
<glyph name="S" format="2">
	<advance width="476"/>
	<unicode hex="0053"/>
	<anchor x="238" y="800" name="top"/>
	<anchor x="238" y="0" name="bottom"/>
	<outline>
		<contour>
			<point x="46" y="237" type="line"/>
			<point x="46" y="188" type="line" smooth="yes"/>
			<point x="46" y="62"/>
			<point x="120" y="-13"/>
			<point x="245" y="-13" type="curve" smooth="yes"/>
			<point x="364" y="-13"/>
			<point x="435" y="49"/>
			<point x="435" y="155" type="curve" smooth="yes"/>
			<point x="435" y="197"/>
			<point x="423" y="245"/>
			<point x="403" y="282" type="curve" smooth="yes"/>
			<point x="383" y="320"/>
			<point x="343" y="363"/>
			<point x="303" y="400" type="curve" smooth="yes"/>
			<point x="222" y="475" type="line" smooth="yes"/>
			<point x="189" y="506"/>
			<point x="160" y="541"/>
			<point x="146" y="569" type="curve" smooth="yes"/>
			<point x="131" y="598"/>
			<point x="122" y="634"/>
			<point x="122" y="667" type="curve" smooth="yes"/>
			<point x="122" y="671" type="line" smooth="yes"/>
			<point x="122" y="728"/>
			<point x="166" y="762"/>
			<point x="240" y="762" type="curve" smooth="yes"/>
			<point x="317" y="762"/>
			<point x="362" y="719"/>
			<point x="362" y="645" type="curve" smooth="yes"/>
			<point x="362" y="594" type="line"/>
			<point x="416" y="601" type="line"/>
			<point x="416" y="651" type="line" smooth="yes"/>
			<point x="416" y="753"/>
			<point x="350" y="813"/>
			<point x="239" y="813" type="curve" smooth="yes"/>
			<point x="130" y="813"/>
			<point x="66" y="757"/>
			<point x="66" y="661" type="curve" smooth="yes"/>
			<point x="66" y="625"/>
			<point x="77" y="582"/>
			<point x="96" y="545" type="curve" smooth="yes"/>
			<point x="114" y="510"/>
			<point x="147" y="469"/>
			<point x="183" y="435" type="curve" smooth="yes"/>
			<point x="264" y="360" type="line" smooth="yes"/>
			<point x="306" y="321"/>
			<point x="339" y="284"/>
			<point x="353" y="260" type="curve" smooth="yes"/>
			<point x="370" y="231"/>
			<point x="379" y="193"/>
			<point x="379" y="156" type="curve" smooth="yes"/>
			<point x="379" y="150" type="line" smooth="yes"/>
			<point x="379" y="80"/>
			<point x="329" y="38"/>
			<point x="245" y="38" type="curve" smooth="yes"/>
			<point x="154" y="38"/>
			<point x="100" y="96"/>
			<point x="100" y="194" type="curve" smooth="yes"/>
			<point x="100" y="244" type="line"/>
		</contour>
	</outline>
</glyph>
<glyph name="T" format="2">
	<advance width="463"/>
	<unicode hex="0054"/>
	<anchor x="233" y="400" name="center"/>
	<anchor x="234" y="0" name="bottom"/>
	<anchor x="233" y="800" name="top"/>
	<outline>
		<contour>
			<point x="39" y="800" type="line"/>
			<point x="39" y="750" type="line"/>
			<point x="206" y="750" type="line"/>
			<point x="206" y="0" type="line"/>
			<point x="261" y="0" type="line"/>
			<point x="261" y="750" type="line"/>
			<point x="429" y="750" type="line"/>
			<point x="429" y="800" type="line"/>
		</contour>
	</outline>
</glyph>
<glyph name="U" format="2">
	<advance width="542"/>
	<unicode hex="0055"/>
	<anchor x="350" y="10" name="ogonek"/>
	<anchor x="271" y="800" name="top"/>
	<anchor x="526" y="800" name="topright"/>
	<anchor x="271" y="0" name="bottom"/>
	<outline>
		<contour>
			<point x="468" y="800" type="line"/>
			<point x="413" y="800" type="line"/>
			<point x="413" y="206" type="line" smooth="yes"/>
			<point x="413" y="101"/>
			<point x="360" y="38"/>
			<point x="271" y="38" type="curve" smooth="yes"/>
			<point x="182" y="38"/>
			<point x="130" y="99"/>
			<point x="130" y="201" type="curve" smooth="yes"/>
			<point x="130" y="800" type="line"/>
			<point x="75" y="800" type="line"/>
			<point x="75" y="205" type="line" smooth="yes"/>
			<point x="75" y="68"/>
			<point x="147" y="-13"/>
			<point x="271" y="-13" type="curve" smooth="yes"/>
			<point x="395" y="-13"/>
			<point x="468" y="68"/>
			<point x="468" y="204" type="curve" smooth="yes"/>
		</contour>
	</outline>
</glyph>
<glyph name="V" format="2">
	<advance width="522"/>
	<unicode hex="0056"/>
	<outline>
		<contour>
			<point x="39" y="800" type="line"/>
			<point x="239" y="0" type="line"/>
			<point x="300" y="0" type="line"/>
			<point x="488" y="800" type="line"/>
			<point x="432" y="800" type="line"/>
			<point x="285" y="147" type="line"/>
			<point x="273" y="60" type="line"/>
			<point x="268" y="60" type="line"/>
			<point x="255" y="147" type="line"/>
			<point x="99" y="800" type="line"/>
		</contour>
	</outline>
</glyph>
<glyph name="W" format="2">
	<advance width="774"/>
	<unicode hex="0057"/>
	<anchor x="390" y="800" name="top"/>
	<anchor x="390" y="0" name="bottom"/>
	<outline>
		<contour>
			<point x="39" y="800" type="line"/>
			<point x="191" y="0" type="line"/>
			<point x="262" y="0" type="line"/>
			<point x="384" y="658" type="line"/>
			<point x="388" y="740" type="line"/>
			<point x="393" y="740" type="line"/>
			<point x="398" y="658" type="line"/>
			<point x="521" y="0" type="line"/>
			<point x="589" y="0" type="line"/>
			<point x="740" y="800" type="line"/>
			<point x="685" y="800" type="line"/>
			<point x="565" y="138" type="line"/>
			<point x="559" y="60" type="line"/>
			<point x="554" y="60" type="line"/>
			<point x="548" y="138" type="line"/>
			<point x="425" y="800" type="line"/>
			<point x="358" y="800" type="line"/>
			<point x="234" y="138" type="line"/>
			<point x="228" y="60" type="line"/>
			<point x="223" y="60" type="line"/>
			<point x="217" y="138" type="line"/>
			<point x="97" y="800" type="line"/>
		</contour>
	</outline>
</glyph>
<glyph name="X" format="2">
	<advance width="494"/>
	<unicode hex="0058"/>
	<outline>
		<contour>
			<point x="39" y="0" type="line"/>
			<point x="95" y="0" type="line"/>
			<point x="232" y="324" type="line"/>
			<point x="242" y="378" type="line"/>
			<point x="247" y="378" type="line"/>
			<point x="257" y="324" type="line"/>
			<point x="397" y="0" type="line"/>
			<point x="460" y="0" type="line"/>
			<point x="278" y="414" type="line"/>
			<point x="435" y="800" type="line"/>
			<point x="378" y="800" type="line"/>
			<point x="260" y="502" type="line"/>
			<point x="250" y="446" type="line"/>
			<point x="245" y="446" type="line"/>
			<point x="235" y="502" type="line"/>
			<point x="114" y="800" type="line"/>
			<point x="52" y="800" type="line"/>
			<point x="214" y="413" type="line"/>
		</contour>
	</outline>
</glyph>
<glyph name="Y" format="2">
	<advance width="484"/>
	<unicode hex="0059"/>
	<anchor x="246" y="800" name="top"/>
	<anchor x="246" y="0" name="bottom"/>
	<anchor x="7" y="800" name="topleft"/>
	<outline>
		<contour>
			<point x="39" y="800" type="line"/>
			<point x="217" y="307" type="line"/>
			<point x="217" y="0" type="line"/>
			<point x="272" y="0" type="line"/>
			<point x="272" y="307" type="line"/>
			<point x="450" y="800" type="line"/>
			<point x="391" y="800" type="line"/>
			<point x="263" y="433" type="line"/>
			<point x="249" y="372" type="line"/>
			<point x="244" y="372" type="line"/>
			<point x="229" y="433" type="line"/>
			<point x="101" y="800" type="line"/>
		</contour>
	</outline>
</glyph>
<glyph name="Z" format="2">
	<advance width="467"/>
	<unicode hex="005A"/>
	<anchor x="234" y="800" name="top"/>
	<anchor x="234" y="0" name="bottom"/>
	<outline>
		<contour>
			<point x="37" y="0" type="line"/>
			<point x="430" y="0" type="line"/>
			<point x="430" y="50" type="line"/>
			<point x="89" y="50" type="line"/>
			<point x="89" y="54" type="line"/>
			<point x="107" y="67" type="line"/>
			<point x="420" y="754" type="line"/>
			<point x="420" y="800" type="line"/>
			<point x="57" y="800" type="line"/>
			<point x="57" y="750" type="line"/>
			<point x="368" y="750" type="line"/>
			<point x="368" y="746" type="line"/>
			<point x="350" y="733" type="line"/>
			<point x="37" y="46" type="line"/>
		</contour>
	</outline>
</glyph>
<glyph name="bracketright" format="2">
	<advance width="231"/>
	<unicode hex="005D"/>
	<outline>
		<contour>
			<point x="183" y="-180" type="line"/>
			<point x="183" y="820" type="line"/>
			<point x="48" y="820" type="line"/>
			<point x="48" y="770" type="line"/>
			<point x="128" y="770" type="line"/>
			<point x="128" y="-130" type="line"/>
			<point x="48" y="-130" type="line"/>
			<point x="48" y="-180" type="line"/>
		</contour>
	</outline>
</glyph>
<glyph name="a" format="2">
	<advance width="405"/>
	<unicode hex="0061"/>
	<anchor x="368" y="10" name="ogonek"/>
	<anchor x="190" y="0" name="bottom"/>
	<anchor x="207" y="590" name="top"/>
	<outline>
		<contour>
			<point x="61" y="426" type="line"/>
			<point x="111" y="424" type="line"/>
			<point x="111" y="458" type="line" smooth="yes"/>
			<point x="111" y="521"/>
			<point x="147" y="558"/>
			<point x="209" y="558" type="curve" smooth="yes"/>
			<point x="267" y="558"/>
			<point x="302" y="521"/>
			<point x="302" y="459" type="curve" smooth="yes"/>
			<point x="302" y="95" type="line" smooth="yes"/>
			<point x="302" y="59"/>
			<point x="308" y="23"/>
			<point x="319" y="0" type="curve"/>
			<point x="368" y="0" type="line"/>
			<point x="370" y="4" type="line"/>
			<point x="359" y="32"/>
			<point x="352" y="69"/>
			<point x="352" y="104" type="curve" smooth="yes"/>
			<point x="352" y="456" type="line" smooth="yes"/>
			<point x="352" y="548"/>
			<point x="299" y="603"/>
			<point x="210" y="603" type="curve" smooth="yes"/>
			<point x="116" y="603"/>
			<point x="61" y="548"/>
			<point x="61" y="455" type="curve" smooth="yes"/>
		</contour>
		<contour>
			<point x="324" y="168" type="line"/>
			<point x="302" y="168" type="line"/>
			<point x="302" y="84"/>
			<point x="259" y="35"/>
			<point x="185" y="35" type="curve" smooth="yes"/>
			<point x="125" y="35"/>
			<point x="89" y="78"/>
			<point x="89" y="150" type="curve" smooth="yes"/>
			<point x="89" y="168" type="line" smooth="yes"/>
			<point x="89" y="232"/>
			<point x="131" y="280"/>
			<point x="201" y="296" type="curve" smooth="yes"/>
			<point x="329" y="325" type="line"/>
			<point x="329" y="371" type="line"/>
			<point x="184" y="334" type="line" smooth="yes"/>
			<point x="92" y="311"/>
			<point x="38" y="246"/>
			<point x="38" y="160" type="curve" smooth="yes"/>
			<point x="38" y="143" type="line" smooth="yes"/>
			<point x="38" y="45"/>
			<point x="89" y="-13"/>
			<point x="175" y="-13" type="curve" smooth="yes"/>
			<point x="252" y="-13"/>
			<point x="307" y="38"/>
			<point x="324" y="124" type="curve"/>
		</contour>
	</outline>
</glyph>
<glyph name="b" format="2">
	<advance width="417"/>
	<unicode hex="0062"/>
	<outline>
		<contour>
			<point x="50" y="820" type="line"/>
			<point x="50" y="0" type="line"/>
			<point x="93" y="0" type="line"/>
			<point x="100" y="93" type="line"/>
			<point x="100" y="820" type="line"/>
		</contour>
		<contour>
			<point x="85" y="91" type="line"/>
			<point x="99" y="27"/>
			<point x="151" y="-13"/>
			<point x="222" y="-13" type="curve" smooth="yes"/>
			<point x="314" y="-13"/>
			<point x="370" y="60"/>
			<point x="370" y="180" type="curve" smooth="yes"/>
			<point x="370" y="415" type="line" smooth="yes"/>
			<point x="370" y="534"/>
			<point x="316" y="603"/>
			<point x="226" y="603" type="curve" smooth="yes"/>
			<point x="153" y="603"/>
			<point x="99" y="562"/>
			<point x="85" y="494" type="curve"/>
			<point x="85" y="425" type="line"/>
			<point x="100" y="425" type="line"/>
			<point x="100" y="508"/>
			<point x="144" y="558"/>
			<point x="215" y="558" type="curve" smooth="yes"/>
			<point x="280" y="558"/>
			<point x="319" y="504"/>
			<point x="319" y="416" type="curve" smooth="yes"/>
			<point x="319" y="185" type="line" smooth="yes"/>
			<point x="319" y="90"/>
			<point x="278" y="32"/>
			<point x="209" y="32" type="curve" smooth="yes"/>
			<point x="142" y="32"/>
			<point x="100" y="83"/>
			<point x="100" y="165" type="curve"/>
			<point x="85" y="165" type="line"/>
		</contour>
	</outline>
</glyph>
<glyph name="c" format="2">
	<advance width="415"/>
	<unicode hex="0063"/>
	<anchor x="208" y="590" name="top"/>
	<anchor x="198" y="0" name="bottom"/>
	<outline>
		<contour>
			<point x="313" y="406" type="line"/>
			<point x="363" y="410" type="line"/>
			<point x="363" y="440" type="line" smooth="yes"/>
			<point x="363" y="542"/>
			<point x="304" y="603"/>
			<point x="205" y="603" type="curve" smooth="yes"/>
			<point x="100" y="603"/>
			<point x="38" y="535"/>
			<point x="38" y="421" type="curve" smooth="yes"/>
			<point x="38" y="171" type="line" smooth="yes"/>
			<point x="38" y="55"/>
			<point x="100" y="-13"/>
			<point x="206" y="-13" type="curve" smooth="yes"/>
			<point x="308" y="-13"/>
			<point x="368" y="48"/>
			<point x="368" y="152" type="curve" smooth="yes"/>
			<point x="368" y="182" type="line"/>
			<point x="318" y="184" type="line"/>
			<point x="318" y="156" type="line" smooth="yes"/>
			<point x="318" y="80"/>
			<point x="277" y="35"/>
			<point x="207" y="35" type="curve" smooth="yes"/>
			<point x="133" y="35"/>
			<point x="89" y="84"/>
			<point x="89" y="166" type="curve" smooth="yes"/>
			<point x="89" y="422" type="line" smooth="yes"/>
			<point x="89" y="506"/>
			<point x="132" y="556"/>
			<point x="204" y="556" type="curve" smooth="yes"/>
			<point x="273" y="556"/>
			<point x="313" y="511"/>
			<point x="313" y="435" type="curve" smooth="yes"/>
		</contour>
	</outline>
</glyph>
<glyph name="d" format="2">
	<advance width="417"/>
	<unicode hex="0064"/>
	<anchor x="254" y="295" name="center"/>
	<anchor x="209" y="820" name="top"/>
	<anchor x="406" y="820" name="topright"/>
	<anchor x="209" y="0" name="bottom"/>
	<outline>
		<contour>
			<point x="358" y="820" type="line"/>
			<point x="308" y="820" type="line"/>
			<point x="308" y="93" type="line"/>
			<point x="316" y="0" type="line"/>
			<point x="358" y="0" type="line"/>
		</contour>
		<contour>
			<point x="323" y="499" type="line"/>
			<point x="310" y="564"/>
			<point x="258" y="603"/>
			<point x="186" y="603" type="curve" smooth="yes"/>
			<point x="94" y="603"/>
			<point x="38" y="530"/>
			<point x="38" y="411" type="curve" smooth="yes"/>
			<point x="38" y="175" type="line" smooth="yes"/>
			<point x="38" y="57"/>
			<point x="93" y="-13"/>
			<point x="182" y="-13" type="curve" smooth="yes"/>
			<point x="256" y="-13"/>
			<point x="309" y="29"/>
			<point x="323" y="96" type="curve"/>
			<point x="323" y="165" type="line"/>
			<point x="308" y="165" type="line"/>
			<point x="308" y="83"/>
			<point x="265" y="32"/>
			<point x="193" y="32" type="curve" smooth="yes"/>
			<point x="129" y="32"/>
			<point x="89" y="86"/>
			<point x="89" y="175" type="curve" smooth="yes"/>
			<point x="89" y="406" type="line" smooth="yes"/>
			<point x="89" y="500"/>
			<point x="130" y="558"/>
			<point x="199" y="558" type="curve" smooth="yes"/>
			<point x="267" y="558"/>
			<point x="308" y="508"/>
			<point x="308" y="425" type="curve"/>
			<point x="323" y="425" type="line"/>
		</contour>
	</outline>
</glyph>
<glyph name="e" format="2">
	<advance width="411"/>
	<unicode hex="0065"/>
	<anchor x="268" y="10" name="ogonek"/>
	<anchor x="206" y="0" name="bottom"/>
	<anchor x="206" y="590" name="top"/>
	<outline>
		<contour>
			<point x="359" y="187" type="line"/>
			<point x="309" y="189" type="line"/>
			<point x="309" y="161" type="line" smooth="yes"/>
			<point x="309" y="82"/>
			<point x="270" y="35"/>
			<point x="203" y="35" type="curve" smooth="yes"/>
			<point x="131" y="35"/>
			<point x="89" y="87"/>
			<point x="89" y="176" type="curve" smooth="yes"/>
			<point x="89" y="412" type="line" smooth="yes"/>
			<point x="89" y="503"/>
			<point x="132" y="556"/>
			<point x="206" y="556" type="curve" smooth="yes"/>
			<point x="273" y="556"/>
			<point x="313" y="506"/>
			<point x="313" y="422" type="curve" smooth="yes"/>
			<point x="313" y="324" type="line"/>
			<point x="343" y="354" type="line"/>
			<point x="74" y="354" type="line"/>
			<point x="74" y="309" type="line"/>
			<point x="364" y="309" type="line"/>
			<point x="364" y="420" type="line" smooth="yes"/>
			<point x="364" y="535"/>
			<point x="306" y="603"/>
			<point x="207" y="603" type="curve" smooth="yes"/>
			<point x="101" y="603"/>
			<point x="38" y="532"/>
			<point x="38" y="411" type="curve" smooth="yes"/>
			<point x="38" y="181" type="line" smooth="yes"/>
			<point x="38" y="59"/>
			<point x="99" y="-13"/>
			<point x="202" y="-13" type="curve" smooth="yes"/>
			<point x="301" y="-13"/>
			<point x="359" y="50"/>
			<point x="359" y="157" type="curve" smooth="yes"/>
		</contour>
	</outline>
</glyph>
<glyph name="f" format="2">
	<advance width="293"/>
	<unicode hex="0066"/>
	<outline>
		<contour>
			<point x="110" y="0" type="line"/>
			<point x="160" y="0" type="line"/>
			<point x="160" y="735" type="line" smooth="yes"/>
			<point x="160" y="762"/>
			<point x="176" y="778"/>
			<point x="203" y="778" type="curve" smooth="yes"/>
			<point x="218" y="778"/>
			<point x="233" y="777"/>
			<point x="245" y="775" type="curve"/>
			<point x="245" y="820" type="line"/>
			<point x="231" y="823"/>
			<point x="213" y="825"/>
			<point x="197" y="825" type="curve" smooth="yes"/>
			<point x="143" y="825"/>
			<point x="110" y="796"/>
			<point x="110" y="745" type="curve" smooth="yes"/>
		</contour>
		<contour>
			<point x="25" y="590" type="line"/>
			<point x="25" y="545" type="line"/>
			<point x="245" y="545" type="line"/>
			<point x="245" y="590" type="line"/>
		</contour>
	</outline>
</glyph>
<glyph name="g" format="2">
	<advance width="417"/>
	<unicode hex="0067"/>
	<anchor x="197" y="590" name="top"/>
	<anchor x="203" y="-180" name="bottom"/>
	<outline>
		<contour>
			<point x="48" y="-46" type="line" smooth="yes"/>
			<point x="48" y="-138"/>
			<point x="106" y="-193"/>
			<point x="203" y="-193" type="curve" smooth="yes"/>
			<point x="300" y="-193"/>
			<point x="358" y="-134"/>
			<point x="358" y="-34" type="curve" smooth="yes"/>
			<point x="358" y="590" type="line"/>
			<point x="316" y="590" type="line"/>
			<point x="308" y="498" type="line"/>
			<point x="308" y="-42" type="line" smooth="yes"/>
			<point x="308" y="-109"/>
			<point x="269" y="-148"/>
			<point x="202" y="-148" type="curve" smooth="yes"/>
			<point x="137" y="-148"/>
			<point x="98" y="-111"/>
			<point x="98" y="-48" type="curve" smooth="yes"/>
			<point x="98" y="-29" type="line"/>
			<point x="48" y="-33" type="line"/>
		</contour>
		<contour>
			<point x="323" y="499" type="line"/>
			<point x="310" y="564"/>
			<point x="258" y="603"/>
			<point x="186" y="603" type="curve" smooth="yes"/>
			<point x="94" y="603"/>
			<point x="38" y="535"/>
			<point x="38" y="422" type="curve" smooth="yes"/>
			<point x="38" y="187" type="line" smooth="yes"/>
			<point x="38" y="76"/>
			<point x="93" y="10"/>
			<point x="182" y="10" type="curve" smooth="yes"/>
			<point x="256" y="10"/>
			<point x="309" y="52"/>
			<point x="323" y="119" type="curve"/>
			<point x="323" y="188" type="line"/>
			<point x="308" y="188" type="line"/>
			<point x="308" y="106"/>
			<point x="265" y="55"/>
			<point x="193" y="55" type="curve" smooth="yes"/>
			<point x="129" y="55"/>
			<point x="89" y="105"/>
			<point x="89" y="186" type="curve" smooth="yes"/>
			<point x="89" y="417" type="line" smooth="yes"/>
			<point x="89" y="505"/>
			<point x="131" y="558"/>
			<point x="199" y="558" type="curve" smooth="yes"/>
			<point x="267" y="558"/>
			<point x="308" y="508"/>
			<point x="308" y="425" type="curve"/>
			<point x="323" y="425" type="line"/>
		</contour>
	</outline>
</glyph>
<glyph name="h" format="2">
	<advance width="395"/>
	<unicode hex="0068"/>
	<outline>
		<contour>
			<point x="50" y="820" type="line"/>
			<point x="50" y="0" type="line"/>
			<point x="100" y="0" type="line"/>
			<point x="100" y="820" type="line"/>
		</contour>
		<contour>
			<point x="85" y="415" type="line"/>
			<point x="100" y="415" type="line"/>
			<point x="100" y="504"/>
			<point x="142" y="558"/>
			<point x="210" y="558" type="curve" smooth="yes"/>
			<point x="259" y="558"/>
			<point x="288" y="523"/>
			<point x="288" y="465" type="curve" smooth="yes"/>
			<point x="288" y="0" type="line"/>
			<point x="338" y="0" type="line"/>
			<point x="338" y="470" type="line" smooth="yes"/>
			<point x="338" y="555"/>
			<point x="296" y="603"/>
			<point x="225" y="603" type="curve" smooth="yes"/>
			<point x="153" y="603"/>
			<point x="101" y="558"/>
			<point x="85" y="484" type="curve"/>
		</contour>
	</outline>
</glyph>
<glyph name="k" format="2">
	<advance width="393"/>
	<unicode hex="006B"/>
	<anchor x="207" y="820" name="top"/>
	<anchor x="209" y="0" name="bottom"/>
	<outline>
		<contour>
			<point x="50" y="0" type="line"/>
			<point x="100" y="0" type="line"/>
			<point x="100" y="287" type="line"/>
			<point x="156" y="369" type="line"/>
			<point x="160" y="369" type="line"/>
			<point x="297" y="0" type="line"/>
			<point x="354" y="0" type="line"/>
			<point x="196" y="408" type="line"/>
			<point x="329" y="590" type="line"/>
			<point x="267" y="590" type="line"/>
			<point x="113" y="372" type="line"/>
			<point x="100" y="338" type="line"/>
			<point x="96" y="338" type="line"/>
			<point x="100" y="375" type="line"/>
			<point x="100" y="820" type="line"/>
			<point x="50" y="820" type="line"/>
		</contour>
	</outline>
</glyph>
<glyph name="l" format="2">
	<advance width="159"/>
	<unicode hex="006C"/>
	<anchor x="74" y="410" name="center"/>
	<anchor x="74" y="820" name="top"/>
	<anchor x="148" y="820" name="topright"/>
	<anchor x="74" y="0" name="bottom"/>
	<outline>
		<contour>
			<point x="50" y="820" type="line"/>
			<point x="50" y="0" type="line"/>
			<point x="100" y="0" type="line"/>
			<point x="100" y="820" type="line"/>
		</contour>
	</outline>
</glyph>
<glyph name="m" format="2">
	<advance width="630"/>
	<unicode hex="006D"/>
	<anchor x="280" y="590" name="top"/>
	<anchor x="280" y="0" name="bottom"/>
	<outline>
		<contour>
			<point x="50" y="590" type="line"/>
			<point x="50" y="0" type="line"/>
			<point x="100" y="0" type="line"/>
			<point x="100" y="498" type="line"/>
			<point x="93" y="590" type="line"/>
		</contour>
		<contour>
			<point x="287" y="463" type="curve" smooth="yes"/>
			<point x="287" y="0" type="line"/>
			<point x="337" y="0" type="line"/>
			<point x="337" y="468" type="line" smooth="yes"/>
			<point x="337" y="553"/>
			<point x="293" y="603"/>
			<point x="219" y="603" type="curve" smooth="yes"/>
			<point x="150" y="603"/>
			<point x="101" y="559"/>
			<point x="85" y="484" type="curve"/>
			<point x="85" y="413" type="line"/>
			<point x="100" y="413" type="line"/>
			<point x="100" y="503"/>
			<point x="139" y="556"/>
			<point x="205" y="556" type="curve" smooth="yes"/>
			<point x="256" y="556"/>
			<point x="287" y="521"/>
		</contour>
		<contour>
			<point x="523" y="463" type="curve" smooth="yes"/>
			<point x="523" y="0" type="line"/>
			<point x="573" y="0" type="line"/>
			<point x="573" y="468" type="line" smooth="yes"/>
			<point x="573" y="553"/>
			<point x="529" y="603"/>
			<point x="455" y="603" type="curve" smooth="yes"/>
			<point x="388" y="603"/>
			<point x="338" y="563"/>
			<point x="322" y="494" type="curve"/>
			<point x="322" y="413" type="line"/>
			<point x="337" y="413" type="line"/>
			<point x="337" y="503"/>
			<point x="376" y="556"/>
			<point x="442" y="556" type="curve" smooth="yes"/>
			<point x="493" y="556"/>
			<point x="523" y="521"/>
		</contour>
	</outline>
</glyph>
<glyph name="n" format="2">
	<advance width="405"/>
	<unicode hex="006E"/>
	<anchor x="198" y="590" name="top"/>
	<anchor x="198" y="0" name="bottom"/>
	<outline>
		<contour>
			<point x="50" y="590" type="line"/>
			<point x="50" y="0" type="line"/>
			<point x="100" y="0" type="line"/>
			<point x="100" y="498" type="line"/>
			<point x="93" y="590" type="line"/>
		</contour>
		<contour>
			<point x="298" y="465" type="curve" smooth="yes"/>
			<point x="298" y="0" type="line"/>
			<point x="348" y="0" type="line"/>
			<point x="348" y="470" type="line" smooth="yes"/>
			<point x="348" y="555"/>
			<point x="303" y="603"/>
			<point x="225" y="603" type="curve" smooth="yes"/>
			<point x="153" y="603"/>
			<point x="101" y="559"/>
			<point x="85" y="484" type="curve"/>
			<point x="85" y="415" type="line"/>
			<point x="100" y="415" type="line"/>
			<point x="100" y="505"/>
			<point x="141" y="558"/>
			<point x="210" y="558" type="curve" smooth="yes"/>
			<point x="265" y="558"/>
			<point x="298" y="524"/>
		</contour>
	</outline>
</glyph>
<glyph name="o" format="2">
	<advance width="421"/>
	<unicode hex="006F"/>
	<anchor x="210" y="295" name="center"/>
	<anchor x="358" y="10" name="ogonek"/>
	<anchor x="211" y="590" name="top"/>
	<anchor x="397" y="590" name="topright"/>
	<anchor x="210" y="0" name="bottom"/>
	<outline>
		<contour>
			<point x="38" y="178" type="line" smooth="yes"/>
			<point x="38" y="59"/>
			<point x="102" y="-13"/>
			<point x="206" y="-13" type="curve" smooth="yes"/>
			<point x="311" y="-13"/>
			<point x="374" y="59"/>
			<point x="374" y="176" type="curve" smooth="yes"/>
			<point x="374" y="414" type="line" smooth="yes"/>
			<point x="374" y="532"/>
			<point x="311" y="603"/>
			<point x="206" y="603" type="curve" smooth="yes"/>
			<point x="102" y="603"/>
			<point x="38" y="531"/>
			<point x="38" y="413" type="curve" smooth="yes"/>
		</contour>
		<contour>
			<point x="89" y="174" type="curve" smooth="yes"/>
			<point x="89" y="415" type="line" smooth="yes"/>
			<point x="89" y="504"/>
			<point x="133" y="558"/>
			<point x="205" y="558" type="curve" smooth="yes"/>
			<point x="279" y="558"/>
			<point x="323" y="504"/>
			<point x="323" y="416" type="curve" smooth="yes"/>
			<point x="323" y="178" type="line" smooth="yes"/>
			<point x="323" y="88"/>
			<point x="279" y="32"/>
			<point x="207" y="32" type="curve" smooth="yes"/>
			<point x="134" y="32"/>
			<point x="89" y="86"/>
		</contour>
	</outline>
</glyph>
<glyph name="r" format="2">
	<advance width="281"/>
	<unicode hex="0072"/>
	<anchor x="141" y="590" name="top"/>
	<anchor x="100" y="0" name="bottom"/>
	<outline>
		<contour>
			<point x="50" y="590" type="line"/>
			<point x="50" y="0" type="line"/>
			<point x="100" y="0" type="line"/>
			<point x="100" y="458" type="line"/>
			<point x="93" y="590" type="line"/>
		</contour>
		<contour>
			<point x="243" y="545" type="line"/>
			<point x="248" y="598" type="line"/>
			<point x="243" y="599"/>
			<point x="236" y="600"/>
			<point x="228" y="600" type="curve" smooth="yes"/>
			<point x="155" y="600"/>
			<point x="101" y="534"/>
			<point x="85" y="424" type="curve"/>
			<point x="85" y="320" type="line"/>
			<point x="100" y="320" type="line"/>
			<point x="100" y="460"/>
			<point x="148" y="545"/>
			<point x="228" y="545" type="curve" smooth="yes"/>
		</contour>
	</outline>
</glyph>
<glyph name="s" format="2">
	<advance width="379"/>
	<unicode hex="0073"/>
	<anchor x="185" y="590" name="top"/>
	<anchor x="187" y="0" name="bottom"/>
	<outline>
		<contour>
			<point x="33" y="160" type="line"/>
			<point x="33" y="139" type="line" smooth="yes"/>
			<point x="33" y="43"/>
			<point x="91" y="-13"/>
			<point x="189" y="-13" type="curve" smooth="yes"/>
			<point x="284" y="-13"/>
			<point x="340" y="41"/>
			<point x="340" y="133" type="curve" smooth="yes"/>
			<point x="340" y="169"/>
			<point x="327" y="208"/>
			<point x="305" y="239" type="curve" smooth="yes"/>
			<point x="290" y="261"/>
			<point x="260" y="288"/>
			<point x="224" y="313" type="curve" smooth="yes"/>
			<point x="184" y="341" type="line" smooth="yes"/>
			<point x="158" y="359"/>
			<point x="134" y="382"/>
			<point x="120" y="403" type="curve" smooth="yes"/>
			<point x="105" y="426"/>
			<point x="96" y="454"/>
			<point x="96" y="477" type="curve" smooth="yes"/>
			<point x="96" y="482" type="line" smooth="yes"/>
			<point x="96" y="530"/>
			<point x="129" y="558"/>
			<point x="184" y="558" type="curve" smooth="yes"/>
			<point x="244" y="558"/>
			<point x="279" y="526"/>
			<point x="279" y="471" type="curve" smooth="yes"/>
			<point x="279" y="445" type="line"/>
			<point x="329" y="448" type="line"/>
			<point x="329" y="471" type="line" smooth="yes"/>
			<point x="329" y="554"/>
			<point x="276" y="603"/>
			<point x="186" y="603" type="curve" smooth="yes"/>
			<point x="97" y="603"/>
			<point x="45" y="557"/>
			<point x="45" y="480" type="curve" smooth="yes"/>
			<point x="45" y="447"/>
			<point x="57" y="409"/>
			<point x="78" y="377" type="curve" smooth="yes"/>
			<point x="93" y="355"/>
			<point x="118" y="330"/>
			<point x="146" y="310" type="curve" smooth="yes"/>
			<point x="186" y="281" type="line" smooth="yes"/>
			<point x="224" y="253"/>
			<point x="253" y="226"/>
			<point x="264" y="210" type="curve" smooth="yes"/>
			<point x="280" y="186"/>
			<point x="289" y="159"/>
			<point x="289" y="136" type="curve" smooth="yes"/>
			<point x="289" y="130" type="line" smooth="yes"/>
			<point x="289" y="68"/>
			<point x="252" y="32"/>
			<point x="189" y="32" type="curve" smooth="yes"/>
			<point x="122" y="32"/>
			<point x="83" y="72"/>
			<point x="83" y="139" type="curve" smooth="yes"/>
			<point x="83" y="164" type="line"/>
		</contour>
	</outline>
</glyph>
<glyph name="t" format="2">
	<advance width="293"/>
	<unicode hex="0074"/>
	<anchor x="135" y="295" name="center"/>
	<anchor x="135" y="590" name="top"/>
	<anchor x="225" y="820" name="topright"/>
	<anchor x="184" y="0" name="bottom"/>
	<outline>
		<contour>
			<point x="110" y="76" type="line" smooth="yes"/>
			<point x="110" y="25"/>
			<point x="143" y="-5"/>
			<point x="197" y="-5" type="curve" smooth="yes"/>
			<point x="213" y="-5"/>
			<point x="231" y="-3"/>
			<point x="245" y="0" type="curve"/>
			<point x="245" y="45" type="line"/>
			<point x="233" y="44"/>
			<point x="218" y="43"/>
			<point x="203" y="43" type="curve" smooth="yes"/>
			<point x="176" y="43"/>
			<point x="160" y="59"/>
			<point x="160" y="86" type="curve" smooth="yes"/>
			<point x="160" y="740" type="line"/>
			<point x="140" y="740" type="line"/>
			<point x="110" y="690" type="line"/>
		</contour>
		<contour>
			<point x="25" y="545" type="line"/>
			<point x="245" y="545" type="line"/>
			<point x="245" y="590" type="line"/>
			<point x="25" y="590" type="line"/>
		</contour>
	</outline>
</glyph>
<glyph name="u" format="2">
	<advance width="397"/>
	<unicode hex="0075"/>
	<anchor x="338" y="10" name="ogonek"/>
	<anchor x="205" y="590" name="top"/>
	<anchor x="377" y="590" name="topright"/>
	<anchor x="205" y="0" name="bottom"/>
	<outline>
		<contour>
			<point x="338" y="0" type="line"/>
			<point x="338" y="590" type="line"/>
			<point x="288" y="590" type="line"/>
			<point x="288" y="93" type="line"/>
			<point x="296" y="0" type="line"/>
		</contour>
		<contour>
			<point x="100" y="128" type="curve" smooth="yes"/>
			<point x="100" y="590" type="line"/>
			<point x="50" y="590" type="line"/>
			<point x="50" y="123" type="line" smooth="yes"/>
			<point x="50" y="38"/>
			<point x="93" y="-13"/>
			<point x="163" y="-13" type="curve" smooth="yes"/>
			<point x="235" y="-13"/>
			<point x="288" y="32"/>
			<point x="303" y="106" type="curve"/>
			<point x="303" y="178" type="line"/>
			<point x="288" y="178" type="line"/>
			<point x="288" y="89"/>
			<point x="247" y="35"/>
			<point x="178" y="35" type="curve" smooth="yes"/>
			<point x="130" y="35"/>
			<point x="100" y="70"/>
		</contour>
	</outline>
</glyph>
<glyph name="v" format="2">
	<advance width="394"/>
	<unicode hex="0076"/>
	<outline>
		<contour>
			<point x="33" y="590" type="line"/>
			<point x="167" y="0" type="line"/>
			<point x="227" y="0" type="line"/>
			<point x="355" y="590" type="line"/>
			<point x="305" y="590" type="line"/>
			<point x="210" y="116" type="line"/>
			<point x="200" y="38" type="line"/>
			<point x="196" y="38" type="line"/>
			<point x="186" y="116" type="line"/>
			<point x="87" y="590" type="line"/>
		</contour>
	</outline>
</glyph>
<glyph name="w" format="2">
	<advance width="621"/>
	<unicode hex="0077"/>
	<anchor x="306" y="590" name="top"/>
	<anchor x="306" y="0" name="bottom"/>
	<outline>
		<contour>
			<point x="33" y="590" type="line"/>
			<point x="149" y="0" type="line"/>
			<point x="209" y="0" type="line"/>
			<point x="294" y="439" type="line"/>
			<point x="304" y="553" type="line"/>
			<point x="309" y="553" type="line"/>
			<point x="320" y="439" type="line"/>
			<point x="406" y="0" type="line"/>
			<point x="465" y="0" type="line"/>
			<point x="582" y="590" type="line"/>
			<point x="531" y="590" type="line"/>
			<point x="447" y="145" type="line"/>
			<point x="438" y="38" type="line"/>
			<point x="433" y="38" type="line"/>
			<point x="425" y="145" type="line"/>
			<point x="335" y="590" type="line"/>
			<point x="281" y="590" type="line"/>
			<point x="194" y="145" type="line"/>
			<point x="185" y="38" type="line"/>
			<point x="180" y="38" type="line"/>
			<point x="171" y="145" type="line"/>
			<point x="87" y="590" type="line"/>
		</contour>
	</outline>
</glyph>
<glyph name="x" format="2">
	<advance width="405"/>
	<unicode hex="0078"/>
	<outline>
		<contour>
			<point x="33" y="0" type="line"/>
			<point x="88" y="0" type="line"/>
			<point x="176" y="225" type="line"/>
			<point x="194" y="284" type="line"/>
			<point x="199" y="284" type="line"/>
			<point x="218" y="225" type="line"/>
			<point x="308" y="0" type="line"/>
			<point x="366" y="0" type="line"/>
			<point x="233" y="306" type="line"/>
			<point x="350" y="590" type="line"/>
			<point x="296" y="590" type="line"/>
			<point x="216" y="382" type="line"/>
			<point x="199" y="324" type="line"/>
			<point x="194" y="324" type="line"/>
			<point x="176" y="382" type="line"/>
			<point x="97" y="590" type="line"/>
			<point x="40" y="590" type="line"/>
			<point x="161" y="301" type="line"/>
		</contour>
	</outline>
</glyph>
<glyph name="y" format="2">
	<advance width="409"/>
	<unicode hex="0079"/>
	<anchor x="205" y="590" name="top"/>
	<anchor x="213" y="0" name="bottom"/>
	<outline>
		<contour>
			<point x="33" y="590" type="line"/>
			<point x="177" y="0" type="line"/>
			<point x="133" y="-180" type="line"/>
			<point x="187" y="-180" type="line"/>
			<point x="370" y="590" type="line"/>
			<point x="320" y="590" type="line"/>
			<point x="218" y="114" type="line"/>
			<point x="208" y="38" type="line"/>
			<point x="203" y="38" type="line"/>
			<point x="192" y="114" type="line"/>
			<point x="88" y="590" type="line"/>
		</contour>
	</outline>
</glyph>
<glyph name="z" format="2">
	<advance width="384"/>
	<unicode hex="007A"/>
	<anchor x="192" y="590" name="top"/>
	<anchor x="192" y="0" name="bottom"/>
	<outline>
		<contour>
			<point x="40" y="0" type="line"/>
			<point x="344" y="0" type="line"/>
			<point x="344" y="45" type="line"/>
			<point x="91" y="45" type="line"/>
			<point x="91" y="50" type="line"/>
			<point x="109" y="62" type="line"/>
			<point x="327" y="555" type="line"/>
			<point x="327" y="590" type="line"/>
			<point x="52" y="590" type="line"/>
			<point x="52" y="545" type="line"/>
			<point x="275" y="545" type="line"/>
			<point x="275" y="541" type="line"/>
			<point x="258" y="528" type="line"/>
			<point x="40" y="37" type="line"/>
		</contour>
	</outline>
</glyph>
<glyph name="braceleft" format="2">
	<advance width="266"/>
	<unicode hex="007B"/>
	<outline>
		<contour>
			<point x="48" y="295" type="line"/>
			<point x="68" y="295" type="line" smooth="yes"/>
			<point x="96" y="295"/>
			<point x="113" y="273"/>
			<point x="113" y="235" type="curve" smooth="yes"/>
			<point x="113" y="223"/>
			<point x="112" y="204"/>
			<point x="110" y="186" type="curve" smooth="yes"/>
			<point x="86" y="-15" type="line" smooth="yes"/>
			<point x="84" y="-29"/>
			<point x="83" y="-47"/>
			<point x="83" y="-63" type="curve" smooth="yes"/>
			<point x="83" y="-145"/>
			<point x="130" y="-193"/>
			<point x="208" y="-193" type="curve"/>
			<point x="218" y="-143" type="line"/>
			<point x="168" y="-143"/>
			<point x="138" y="-115"/>
			<point x="138" y="-68" type="curve" smooth="yes"/>
			<point x="138" y="-55"/>
			<point x="139" y="-37"/>
			<point x="141" y="-22" type="curve" smooth="yes"/>
			<point x="165" y="178" type="line" smooth="yes"/>
			<point x="167" y="196"/>
			<point x="168" y="217"/>
			<point x="168" y="233" type="curve" smooth="yes"/>
			<point x="168" y="278"/>
			<point x="144" y="310"/>
			<point x="103" y="318" type="curve"/>
			<point x="103" y="322" type="line"/>
			<point x="144" y="331"/>
			<point x="168" y="363"/>
			<point x="168" y="408" type="curve" smooth="yes"/>
			<point x="168" y="424"/>
			<point x="167" y="445"/>
			<point x="165" y="463" type="curve" smooth="yes"/>
			<point x="141" y="662" type="line" smooth="yes"/>
			<point x="139" y="677"/>
			<point x="138" y="695"/>
			<point x="138" y="708" type="curve" smooth="yes"/>
			<point x="138" y="755"/>
			<point x="168" y="783"/>
			<point x="218" y="783" type="curve"/>
			<point x="208" y="833" type="line"/>
			<point x="130" y="833"/>
			<point x="83" y="785"/>
			<point x="83" y="703" type="curve" smooth="yes"/>
			<point x="83" y="686"/>
			<point x="84" y="668"/>
			<point x="86" y="655" type="curve" smooth="yes"/>
			<point x="110" y="455" type="line" smooth="yes"/>
			<point x="112" y="436"/>
			<point x="113" y="418"/>
			<point x="113" y="405" type="curve" smooth="yes"/>
			<point x="113" y="368"/>
			<point x="96" y="345"/>
			<point x="68" y="345" type="curve" smooth="yes"/>
			<point x="48" y="345" type="line"/>
		</contour>
	</outline>
</glyph>
<glyph name="bar" format="2">
	<advance width="189"/>
	<unicode hex="007C"/>
	<outline>
		<contour>
			<point x="75" y="820" type="line"/>
			<point x="75" y="-180" type="line"/>
			<point x="115" y="-180" type="line"/>
			<point x="115" y="820" type="line"/>
		</contour>
	</outline>
</glyph>
<glyph name="braceright" format="2">
	<advance width="266"/>
	<unicode hex="007D"/>
	<outline>
		<contour>
			<point x="218" y="295" type="line"/>
			<point x="218" y="345" type="line"/>
			<point x="198" y="345" type="line" smooth="yes"/>
			<point x="170" y="345"/>
			<point x="153" y="368"/>
			<point x="153" y="405" type="curve" smooth="yes"/>
			<point x="153" y="422"/>
			<point x="155" y="439"/>
			<point x="157" y="455" type="curve" smooth="yes"/>
			<point x="180" y="655" type="line" smooth="yes"/>
			<point x="182" y="668"/>
			<point x="183" y="686"/>
			<point x="183" y="703" type="curve" smooth="yes"/>
			<point x="183" y="785"/>
			<point x="137" y="833"/>
			<point x="58" y="833" type="curve"/>
			<point x="48" y="783" type="line"/>
			<point x="98" y="783"/>
			<point x="128" y="755"/>
			<point x="128" y="708" type="curve" smooth="yes"/>
			<point x="128" y="695"/>
			<point x="127" y="677"/>
			<point x="125" y="662" type="curve" smooth="yes"/>
			<point x="102" y="463" type="line" smooth="yes"/>
			<point x="100" y="445"/>
			<point x="98" y="424"/>
			<point x="98" y="408" type="curve" smooth="yes"/>
			<point x="98" y="363"/>
			<point x="123" y="331"/>
			<point x="164" y="322" type="curve"/>
			<point x="164" y="318" type="line"/>
			<point x="123" y="310"/>
			<point x="98" y="278"/>
			<point x="98" y="233" type="curve" smooth="yes"/>
			<point x="98" y="217"/>
			<point x="100" y="196"/>
			<point x="102" y="178" type="curve" smooth="yes"/>
			<point x="125" y="-22" type="line" smooth="yes"/>
			<point x="127" y="-37"/>
			<point x="128" y="-55"/>
			<point x="128" y="-68" type="curve" smooth="yes"/>
			<point x="128" y="-115"/>
			<point x="98" y="-143"/>
			<point x="48" y="-143" type="curve"/>
			<point x="58" y="-193" type="line"/>
			<point x="137" y="-193"/>
			<point x="183" y="-145"/>
			<point x="183" y="-63" type="curve" smooth="yes"/>
			<point x="183" y="-48"/>
			<point x="182" y="-29"/>
			<point x="180" y="-13" type="curve" smooth="yes"/>
			<point x="157" y="186" type="line" smooth="yes"/>
			<point x="155" y="204"/>
			<point x="153" y="223"/>
			<point x="153" y="235" type="curve" smooth="yes"/>
			<point x="153" y="273"/>
			<point x="170" y="295"/>
			<point x="198" y="295" type="curve" smooth="yes"/>
		</contour>
	</outline>
</glyph>
<glyph name="cent" format="2">
	<advance width="415"/>
	<unicode hex="00A2"/>
	<outline>
		<contour>
			<point x="185" y="-120" type="line"/>
			<point x="236" y="-120" type="line"/>
			<point x="236" y="16" type="line"/>
			<point x="185" y="16" type="line"/>
		</contour>
		<contour>
			<point x="185" y="574" type="line"/>
			<point x="236" y="574" type="line"/>
			<point x="236" y="710" type="line"/>
			<point x="185" y="710" type="line"/>
		</contour>
		<component base="c"/>
	</outline>
</glyph>
<glyph name="sterling" format="2">
	<advance width="484"/>
	<unicode hex="00A3"/>
	<outline>
		<contour>
			<point x="415" y="64" type="line"/>
			<point x="412" y="64" type="line"/>
			<point x="395" y="47"/>
			<point x="366" y="37"/>
			<point x="334" y="37" type="curve" smooth="yes"/>
			<point x="319" y="37"/>
			<point x="297" y="42"/>
			<point x="275" y="47" type="curve" smooth="yes"/>
			<point x="230" y="58" type="line" smooth="yes"/>
			<point x="207" y="64"/>
			<point x="184" y="67"/>
			<point x="166" y="67" type="curve" smooth="yes"/>
			<point x="142" y="67"/>
			<point x="118" y="61"/>
			<point x="102" y="52" type="curve"/>
			<point x="99" y="56" type="line"/>
			<point x="156" y="114"/>
			<point x="190" y="208"/>
			<point x="190" y="308" type="curve" smooth="yes"/>
			<point x="190" y="340"/>
			<point x="185" y="381"/>
			<point x="177" y="417" type="curve" smooth="yes"/>
			<point x="146" y="553" type="line" smooth="yes"/>
			<point x="139" y="582"/>
			<point x="134" y="613"/>
			<point x="134" y="636" type="curve" smooth="yes"/>
			<point x="134" y="703"/>
			<point x="175" y="742"/>
			<point x="244" y="742" type="curve" smooth="yes"/>
			<point x="318" y="742"/>
			<point x="361" y="686"/>
			<point x="361" y="590" type="curve" smooth="yes"/>
			<point x="361" y="563" type="line"/>
			<point x="415" y="570" type="line"/>
			<point x="415" y="594" type="line" smooth="yes"/>
			<point x="415" y="719"/>
			<point x="351" y="793"/>
			<point x="243" y="793" type="curve" smooth="yes"/>
			<point x="139" y="793"/>
			<point x="78" y="735"/>
			<point x="78" y="635" type="curve" smooth="yes"/>
			<point x="78" y="612"/>
			<point x="84" y="576"/>
			<point x="93" y="539" type="curve" smooth="yes"/>
			<point x="124" y="404" type="line" smooth="yes"/>
			<point x="130" y="376"/>
			<point x="134" y="340"/>
			<point x="134" y="308" type="curve" smooth="yes"/>
			<point x="134" y="225"/>
			<point x="102" y="127"/>
			<point x="46" y="45" type="curve"/>
			<point x="77" y="3" type="line"/>
			<point x="82" y="3" type="line"/>
			<point x="103" y="11"/>
			<point x="132" y="16"/>
			<point x="160" y="16" type="curve" smooth="yes"/>
			<point x="178" y="16"/>
			<point x="197" y="13"/>
			<point x="215" y="8" type="curve" smooth="yes"/>
			<point x="262" y="-4" type="line" smooth="yes"/>
			<point x="286" y="-10"/>
			<point x="309" y="-13"/>
			<point x="328" y="-13" type="curve" smooth="yes"/>
			<point x="369" y="-13"/>
			<point x="410" y="-3"/>
			<point x="434" y="21" type="curve" smooth="yes"/>
			<point x="437" y="24" type="line"/>
		</contour>
		<contour>
			<point x="51" y="340" type="line"/>
			<point x="301" y="340" type="line"/>
			<point x="316" y="390" type="line"/>
			<point x="66" y="390" type="line"/>
		</contour>
	</outline>
</glyph>
<glyph name="currency" format="2">
	<advance width="500"/>
	<unicode hex="00A4"/>
	<outline>
		<contour>
			<point x="169" y="194" type="line"/>
			<point x="130" y="233" type="line"/>
			<point x="26" y="129" type="line"/>
			<point x="65" y="90" type="line"/>
		</contour>
		<contour>
			<point x="65" y="538" type="line"/>
			<point x="26" y="499" type="line"/>
			<point x="130" y="395" type="line"/>
			<point x="169" y="434" type="line"/>
		</contour>
		<contour>
			<point x="251" y="154" type="curve" smooth="yes"/>
			<point x="349" y="154"/>
			<point x="410" y="216"/>
			<point x="410" y="315" type="curve" smooth="yes"/>
			<point x="410" y="413"/>
			<point x="349" y="474"/>
			<point x="251" y="474" type="curve" smooth="yes"/>
			<point x="152" y="474"/>
			<point x="90" y="413"/>
			<point x="90" y="315" type="curve" smooth="yes"/>
			<point x="90" y="216"/>
			<point x="152" y="154"/>
		</contour>
		<contour>
			<point x="250" y="209" type="curve" smooth="yes"/>
			<point x="187" y="209"/>
			<point x="145" y="251"/>
			<point x="145" y="314" type="curve" smooth="yes"/>
			<point x="145" y="378"/>
			<point x="187" y="419"/>
			<point x="250" y="419" type="curve" smooth="yes"/>
			<point x="314" y="419"/>
			<point x="355" y="378"/>
			<point x="355" y="314" type="curve" smooth="yes"/>
			<point x="355" y="251"/>
			<point x="314" y="209"/>
		</contour>
		<contour>
			<point x="370" y="233" type="line"/>
			<point x="331" y="194" type="line"/>
			<point x="435" y="90" type="line"/>
			<point x="474" y="129" type="line"/>
		</contour>
		<contour>
			<point x="474" y="499" type="line"/>
			<point x="435" y="538" type="line"/>
			<point x="331" y="434" type="line"/>
			<point x="370" y="395" type="line"/>
		</contour>
	</outline>
</glyph>
<glyph name="yen" format="2">
	<advance width="484"/>
	<unicode hex="00A5"/>
	<outline>
		<contour>
			<point x="82" y="225" type="line"/>
			<point x="392" y="225" type="line"/>
			<point x="407" y="275" type="line"/>
			<point x="97" y="275" type="line"/>
		</contour>
		<contour>
			<point x="266" y="405" type="line"/>
			<point x="266" y="355" type="line"/>
			<point x="392" y="355" type="line"/>
			<point x="407" y="405" type="line"/>
		</contour>
		<contour>
			<point x="223" y="355" type="line"/>
			<point x="223" y="405" type="line"/>
			<point x="97" y="405" type="line"/>
			<point x="82" y="355" type="line"/>
		</contour>
		<component base="Y"/>
	</outline>
</glyph>
<glyph name="brokenbar" format="2">
	<advance width="189"/>
	<unicode hex="00A6"/>
	<outline>
		<contour>
			<point x="115" y="270" type="line"/>
			<point x="75" y="270" type="line"/>
			<point x="75" y="-180" type="line"/>
			<point x="115" y="-180" type="line"/>
		</contour>
		<contour>
			<point x="75" y="370" type="line"/>
			<point x="115" y="370" type="line"/>
			<point x="115" y="820" type="line"/>
			<point x="75" y="820" type="line"/>
		</contour>
	</outline>
</glyph>
<glyph name="section" format="2">
	<advance width="436"/>
	<unicode hex="00A7"/>
	<outline>
		<contour>
			<point x="358" y="641" type="line"/>
			<point x="358" y="661" type="line" smooth="yes"/>
			<point x="358" y="744"/>
			<point x="305" y="793"/>
			<point x="214" y="793" type="curve" smooth="yes"/>
			<point x="121" y="793"/>
			<point x="66" y="746"/>
			<point x="66" y="666" type="curve" smooth="yes"/>
			<point x="66" y="643"/>
			<point x="72" y="616"/>
			<point x="82" y="593" type="curve" smooth="yes"/>
			<point x="91" y="573"/>
			<point x="102" y="555"/>
			<point x="112" y="544" type="curve" smooth="yes"/>
			<point x="130" y="525" type="line"/>
			<point x="104" y="514"/>
			<point x="80" y="493"/>
			<point x="65" y="469" type="curve" smooth="yes"/>
			<point x="53" y="450"/>
			<point x="46" y="425"/>
			<point x="46" y="402" type="curve" smooth="yes"/>
			<point x="46" y="373"/>
			<point x="55" y="341"/>
			<point x="70" y="316" type="curve" smooth="yes"/>
			<point x="87" y="287"/>
			<point x="116" y="257"/>
			<point x="148" y="235" type="curve" smooth="yes"/>
			<point x="223" y="183" type="line" smooth="yes"/>
			<point x="254" y="162"/>
			<point x="280" y="136"/>
			<point x="295" y="113" type="curve" smooth="yes"/>
			<point x="310" y="89"/>
			<point x="319" y="58"/>
			<point x="319" y="28" type="curve" smooth="yes"/>
			<point x="319" y="22" type="line" smooth="yes"/>
			<point x="319" y="-31"/>
			<point x="280" y="-62"/>
			<point x="215" y="-62" type="curve" smooth="yes"/>
			<point x="146" y="-62"/>
			<point x="105" y="-19"/>
			<point x="105" y="54" type="curve" smooth="yes"/>
			<point x="105" y="84" type="line"/>
			<point x="51" y="77" type="line"/>
			<point x="51" y="48" type="line" smooth="yes"/>
			<point x="51" y="-53"/>
			<point x="112" y="-113"/>
			<point x="215" y="-113" type="curve" smooth="yes"/>
			<point x="316" y="-113"/>
			<point x="375" y="-61"/>
			<point x="375" y="26" type="curve" smooth="yes"/>
			<point x="375" y="48"/>
			<point x="370" y="76"/>
			<point x="361" y="101" type="curve" smooth="yes"/>
			<point x="352" y="125"/>
			<point x="341" y="148"/>
			<point x="329" y="163" type="curve" smooth="yes"/>
			<point x="318" y="177" type="line"/>
			<point x="342" y="193"/>
			<point x="363" y="210"/>
			<point x="373" y="223" type="curve" smooth="yes"/>
			<point x="386" y="240"/>
			<point x="395" y="267"/>
			<point x="395" y="296" type="curve" smooth="yes"/>
			<point x="395" y="320"/>
			<point x="386" y="350"/>
			<point x="372" y="377" type="curve" smooth="yes"/>
			<point x="353" y="414"/>
			<point x="320" y="449"/>
			<point x="286" y="474" type="curve" smooth="yes"/>
			<point x="211" y="529" type="line" smooth="yes"/>
			<point x="183" y="550"/>
			<point x="157" y="575"/>
			<point x="142" y="597" type="curve" smooth="yes"/>
			<point x="130" y="615"/>
			<point x="122" y="640"/>
			<point x="122" y="667" type="curve" smooth="yes"/>
			<point x="122" y="672" type="line" smooth="yes"/>
			<point x="122" y="716"/>
			<point x="157" y="742"/>
			<point x="215" y="742" type="curve" smooth="yes"/>
			<point x="271" y="742"/>
			<point x="304" y="710"/>
			<point x="304" y="655" type="curve" smooth="yes"/>
			<point x="304" y="634" type="line"/>
		</contour>
		<contour>
			<point x="102" y="407" type="curve" smooth="yes"/>
			<point x="102" y="412" type="line" smooth="yes"/>
			<point x="102" y="459"/>
			<point x="123" y="494"/>
			<point x="159" y="506" type="curve"/>
			<point x="165" y="497"/>
			<point x="177" y="486"/>
			<point x="191" y="475" type="curve" smooth="yes"/>
			<point x="258" y="424" type="line" smooth="yes"/>
			<point x="310" y="385"/>
			<point x="340" y="335"/>
			<point x="340" y="289" type="curve" smooth="yes"/>
			<point x="340" y="283" type="line" smooth="yes"/>
			<point x="340" y="246"/>
			<point x="322" y="215"/>
			<point x="292" y="199" type="curve"/>
			<point x="286" y="207"/>
			<point x="269" y="220"/>
			<point x="248" y="234" type="curve" smooth="yes"/>
			<point x="181" y="281" type="line" smooth="yes"/>
			<point x="131" y="316"/>
			<point x="102" y="363"/>
		</contour>
	</outline>
</glyph>
<glyph name="copyright" format="2">
	<advance width="899"/>
	<unicode hex="00A9"/>
	<outline>
		<contour>
			<point x="450" y="800" type="curve" smooth="yes"/>
			<point x="229" y="800"/>
			<point x="50" y="621"/>
			<point x="50" y="400" type="curve" smooth="yes"/>
			<point x="50" y="179"/>
			<point x="229" y="0"/>
			<point x="450" y="0" type="curve" smooth="yes"/>
			<point x="673" y="0"/>
			<point x="850" y="179"/>
			<point x="850" y="400" type="curve" smooth="yes"/>
			<point x="850" y="621"/>
			<point x="671" y="800"/>
		</contour>
		<contour>
			<point x="450" y="760" type="curve" smooth="yes"/>
			<point x="650" y="760"/>
			<point x="810" y="600"/>
			<point x="810" y="400" type="curve" smooth="yes"/>
			<point x="810" y="200"/>
			<point x="650" y="40"/>
			<point x="450" y="40" type="curve" smooth="yes"/>
			<point x="250" y="40"/>
			<point x="90" y="200"/>
			<point x="90" y="400" type="curve" smooth="yes"/>
			<point x="90" y="600"/>
			<point x="250" y="760"/>
		</contour>
		<contour>
			<point x="588" y="337" type="line"/>
			<point x="546" y="338" type="line"/>
			<point x="546" y="312" type="line" smooth="yes"/>
			<point x="546" y="242"/>
			<point x="510" y="201"/>
			<point x="449" y="201" type="curve" smooth="yes"/>
			<point x="386" y="201"/>
			<point x="349" y="241"/>
			<point x="349" y="309" type="curve" smooth="yes"/>
			<point x="349" y="489" type="line" smooth="yes"/>
			<point x="349" y="559"/>
			<point x="386" y="600"/>
			<point x="448" y="600" type="curve" smooth="yes"/>
			<point x="506" y="600"/>
			<point x="541" y="561"/>
			<point x="541" y="495" type="curve" smooth="yes"/>
			<point x="541" y="468" type="line"/>
			<point x="583" y="469" type="line"/>
			<point x="583" y="496" type="line" smooth="yes"/>
			<point x="583" y="587"/>
			<point x="533" y="640"/>
			<point x="448" y="640" type="curve" smooth="yes"/>
			<point x="357" y="640"/>
			<point x="304" y="584"/>
			<point x="304" y="490" type="curve" smooth="yes"/>
			<point x="304" y="312" type="line" smooth="yes"/>
			<point x="304" y="216"/>
			<point x="357" y="160"/>
			<point x="448" y="160" type="curve" smooth="yes"/>
			<point x="536" y="160"/>
			<point x="588" y="215"/>
			<point x="588" y="308" type="curve" smooth="yes"/>
		</contour>
	</outline>
</glyph>
<glyph name="ordfeminine" format="2">
	<advance width="284"/>
	<unicode hex="00AA"/>
	<outline>
		<contour>
			<point x="51" y="704" type="line"/>
			<point x="88" y="703" type="line"/>
			<point x="88" y="721" type="line" smooth="yes"/>
			<point x="88" y="758"/>
			<point x="109" y="780"/>
			<point x="144" y="780" type="curve" smooth="yes"/>
			<point x="180" y="780"/>
			<point x="201" y="759"/>
			<point x="201" y="723" type="curve" smooth="yes"/>
			<point x="201" y="504" type="line" smooth="yes"/>
			<point x="201" y="481"/>
			<point x="205" y="459"/>
			<point x="212" y="445" type="curve"/>
			<point x="248" y="445" type="line"/>
			<point x="249" y="447" type="line"/>
			<point x="242" y="464"/>
			<point x="238" y="486"/>
			<point x="238" y="508" type="curve" smooth="yes"/>
			<point x="238" y="723" type="line" smooth="yes"/>
			<point x="238" y="779"/>
			<point x="203" y="812"/>
			<point x="144" y="812" type="curve" smooth="yes"/>
			<point x="86" y="812"/>
			<point x="51" y="778"/>
			<point x="51" y="720" type="curve" smooth="yes"/>
		</contour>
		<contour>
			<point x="215" y="548" type="line"/>
			<point x="201" y="548" type="line"/>
			<point x="201" y="499"/>
			<point x="172" y="470"/>
			<point x="124" y="470" type="curve" smooth="yes"/>
			<point x="94" y="470"/>
			<point x="76" y="488"/>
			<point x="76" y="519" type="curve" smooth="yes"/>
			<point x="76" y="559" type="line" smooth="yes"/>
			<point x="76" y="588"/>
			<point x="96" y="611"/>
			<point x="129" y="618" type="curve" smooth="yes"/>
			<point x="218" y="637" type="line"/>
			<point x="218" y="671" type="line"/>
			<point x="119" y="646" type="line" smooth="yes"/>
			<point x="68" y="633"/>
			<point x="38" y="598"/>
			<point x="38" y="554" type="curve" smooth="yes"/>
			<point x="38" y="513" type="line" smooth="yes"/>
			<point x="38" y="465"/>
			<point x="68" y="437"/>
			<point x="118" y="437" type="curve" smooth="yes"/>
			<point x="168" y="437"/>
			<point x="204" y="468"/>
			<point x="215" y="520" type="curve"/>
		</contour>
		<contour>
			<point x="59" y="381" type="line"/>
			<point x="59" y="343" type="line"/>
			<point x="238" y="343" type="line"/>
			<point x="238" y="381" type="line"/>
		</contour>
	</outline>
</glyph>
<glyph name="registered" format="2">
	<advance width="530"/>
	<unicode hex="00AE"/>
	<outline>
		<contour>
			<point x="265" y="349" type="curve" smooth="yes"/>
			<point x="392" y="349"/>
			<point x="495" y="452"/>
			<point x="495" y="579" type="curve" smooth="yes"/>
			<point x="495" y="706"/>
			<point x="392" y="809"/>
			<point x="265" y="809" type="curve" smooth="yes"/>
			<point x="138" y="809"/>
			<point x="35" y="706"/>
			<point x="35" y="579" type="curve" smooth="yes"/>
			<point x="35" y="452"/>
			<point x="138" y="349"/>
		</contour>
		<contour>
			<point x="265" y="374" type="curve" smooth="yes"/>
			<point x="152" y="374"/>
			<point x="60" y="466"/>
			<point x="60" y="579" type="curve" smooth="yes"/>
			<point x="60" y="692"/>
			<point x="152" y="784"/>
			<point x="265" y="784" type="curve" smooth="yes"/>
			<point x="378" y="784"/>
			<point x="470" y="692"/>
			<point x="470" y="579" type="curve" smooth="yes"/>
			<point x="470" y="466"/>
			<point x="378" y="374"/>
		</contour>
		<contour>
			<point x="201" y="449" type="line"/>
			<point x="225" y="449" type="line"/>
			<point x="225" y="573" type="line"/>
			<point x="283" y="573" type="line"/>
			<point x="325" y="449" type="line"/>
			<point x="351" y="449" type="line"/>
			<point x="309" y="568" type="line" smooth="yes"/>
			<point x="307" y="574"/>
			<point x="303" y="578"/>
			<point x="298" y="579" type="curve"/>
			<point x="298" y="583" type="line"/>
			<point x="322" y="587"/>
			<point x="337" y="604"/>
			<point x="337" y="628" type="curve" smooth="yes"/>
			<point x="337" y="662" type="line" smooth="yes"/>
			<point x="337" y="697"/>
			<point x="315" y="718"/>
			<point x="279" y="718" type="curve" smooth="yes"/>
			<point x="201" y="718" type="line"/>
		</contour>
		<contour>
			<point x="225" y="595" type="line"/>
			<point x="225" y="696" type="line"/>
			<point x="279" y="696" type="line" smooth="yes"/>
			<point x="301" y="696"/>
			<point x="313" y="684"/>
			<point x="313" y="663" type="curve" smooth="yes"/>
			<point x="313" y="627" type="line" smooth="yes"/>
			<point x="313" y="607"/>
			<point x="301" y="595"/>
			<point x="279" y="595" type="curve" smooth="yes"/>
		</contour>
	</outline>
</glyph>
<glyph name="degree" format="2">
	<advance width="298"/>
	<unicode hex="00B0"/>
	<outline>
		<contour>
			<point x="149" y="487" type="curve" smooth="yes"/>
			<point x="209" y="487"/>
			<point x="254" y="533"/>
			<point x="254" y="592" type="curve" smooth="yes"/>
			<point x="254" y="652"/>
			<point x="209" y="697"/>
			<point x="149" y="697" type="curve" smooth="yes"/>
			<point x="90" y="697"/>
			<point x="44" y="652"/>
			<point x="44" y="592" type="curve" smooth="yes"/>
			<point x="44" y="533"/>
			<point x="90" y="487"/>
		</contour>
		<contour>
			<point x="149" y="535" type="curve" smooth="yes"/>
			<point x="118" y="535"/>
			<point x="92" y="561"/>
			<point x="92" y="592" type="curve" smooth="yes"/>
			<point x="92" y="625"/>
			<point x="118" y="650"/>
			<point x="149" y="650" type="curve" smooth="yes"/>
			<point x="182" y="650"/>
			<point x="207" y="625"/>
			<point x="207" y="592" type="curve" smooth="yes"/>
			<point x="207" y="561"/>
			<point x="182" y="535"/>
		</contour>
	</outline>
</glyph>
<glyph name="paragraph" format="2">
	<advance width="478"/>
	<unicode hex="00B6"/>
	<outline>
		<contour>
			<point x="304" y="0" type="line"/>
			<point x="304" y="800" type="line"/>
			<point x="262" y="800" type="line" smooth="yes"/>
			<point x="132" y="800"/>
			<point x="50" y="727"/>
			<point x="50" y="609" type="curve" smooth="yes"/>
			<point x="50" y="490" type="line" smooth="yes"/>
			<point x="50" y="374"/>
			<point x="132" y="300"/>
			<point x="264" y="300" type="curve"/>
			<point x="264" y="0" type="line"/>
		</contour>
		<contour>
			<point x="364" y="800" type="line"/>
			<point x="364" y="0" type="line"/>
			<point x="404" y="0" type="line"/>
			<point x="404" y="800" type="line"/>
		</contour>
	</outline>
</glyph>
<glyph name="ordmasculine" format="2">
	<advance width="293"/>
	<unicode hex="00BA"/>
	<outline>
		<contour>
			<point x="38" y="555" type="line" smooth="yes"/>
			<point x="38" y="482"/>
			<point x="79" y="439"/>
			<point x="142" y="439" type="curve" smooth="yes"/>
			<point x="205" y="439"/>
			<point x="246" y="482"/>
			<point x="246" y="553" type="curve" smooth="yes"/>
			<point x="246" y="696" type="line" smooth="yes"/>
			<point x="246" y="768"/>
			<point x="205" y="810"/>
			<point x="142" y="810" type="curve" smooth="yes"/>
			<point x="79" y="810"/>
			<point x="38" y="767"/>
			<point x="38" y="695" type="curve" smooth="yes"/>
		</contour>
		<contour>
			<point x="77" y="553" type="curve" smooth="yes"/>
			<point x="77" y="695" type="line" smooth="yes"/>
			<point x="77" y="747"/>
			<point x="101" y="778"/>
			<point x="141" y="778" type="curve" smooth="yes"/>
			<point x="183" y="778"/>
			<point x="207" y="747"/>
			<point x="207" y="696" type="curve" smooth="yes"/>
			<point x="207" y="555" type="line" smooth="yes"/>
			<point x="207" y="503"/>
			<point x="183" y="471"/>
			<point x="143" y="471" type="curve" smooth="yes"/>
			<point x="101" y="471"/>
			<point x="77" y="501"/>
		</contour>
		<contour>
			<point x="56" y="381" type="line"/>
			<point x="56" y="343" type="line"/>
			<point x="229" y="343" type="line"/>
			<point x="229" y="381" type="line"/>
		</contour>
	</outline>
</glyph>
<glyph name="AE" format="2">
	<advance width="700"/>
	<unicode hex="00C6"/>
	<outline>
		<contour>
			<point x="39" y="0" type="line"/>
			<point x="96" y="0" type="line"/>
			<point x="300" y="750" type="line"/>
			<point x="332" y="750" type="line"/>
			<point x="332" y="0" type="line"/>
			<point x="657" y="0" type="line"/>
			<point x="657" y="50" type="line"/>
			<point x="387" y="50" type="line"/>
			<point x="387" y="440" type="line"/>
			<point x="600" y="440" type="line"/>
			<point x="600" y="490" type="line"/>
			<point x="387" y="490" type="line"/>
			<point x="387" y="750" type="line"/>
			<point x="642" y="750" type="line"/>
			<point x="642" y="800" type="line"/>
			<point x="261" y="800" type="line"/>
		</contour>
		<contour>
			<point x="136" y="275" type="line"/>
			<point x="136" y="225" type="line"/>
			<point x="356" y="225" type="line"/>
			<point x="356" y="275" type="line"/>
		</contour>
	</outline>
</glyph>
<glyph name="Eth" format="2">
	<advance width="540"/>
	<unicode hex="00D0"/>
	<outline>
		<contour>
			<point x="31" y="445" type="line"/>
			<point x="16" y="395" type="line"/>
			<point x="216" y="395" type="line"/>
			<point x="231" y="445" type="line"/>
		</contour>
		<component base="D" xOffset="10"/>
	</outline>
</glyph>
<glyph name="Oslash" format="2">
	<advance width="538"/>
	<unicode hex="00D8"/>
	<outline>
		<contour>
			<point x="537" y="588" type="line"/>
			<point x="537" y="650" type="line"/>
			<point x="-6" y="208" type="line"/>
			<point x="-6" y="146" type="line"/>
		</contour>
		<component base="O" xOffset="3"/>
	</outline>
</glyph>
<glyph name="Thorn" format="2">
	<advance width="494"/>
	<unicode hex="00DE"/>
	<outline>
		<contour>
			<point x="75" y="0" type="line"/>
			<point x="130" y="0" type="line"/>
			<point x="130" y="190" type="line"/>
			<point x="254" y="190" type="line" smooth="yes"/>
			<point x="374" y="190"/>
			<point x="445" y="256"/>
			<point x="445" y="368" type="curve" smooth="yes"/>
			<point x="445" y="442" type="line" smooth="yes"/>
			<point x="445" y="554"/>
			<point x="374" y="620"/>
			<point x="255" y="620" type="curve" smooth="yes"/>
			<point x="130" y="620" type="line"/>
			<point x="130" y="810" type="line"/>
			<point x="75" y="810" type="line"/>
		</contour>
		<contour>
			<point x="130" y="240" type="line"/>
			<point x="130" y="570" type="line"/>
			<point x="255" y="570" type="line" smooth="yes"/>
			<point x="340" y="570"/>
			<point x="390" y="523"/>
			<point x="390" y="444" type="curve" smooth="yes"/>
			<point x="390" y="365" type="line" smooth="yes"/>
			<point x="390" y="286"/>
			<point x="340" y="240"/>
			<point x="255" y="240" type="curve" smooth="yes"/>
		</contour>
	</outline>
</glyph>
<glyph name="germandbls" format="2">
	<advance width="428"/>
	<unicode hex="00DF"/>
	<outline>
		<contour>
			<point x="213" y="-11" type="curve" smooth="yes"/>
			<point x="324" y="-11"/>
			<point x="389" y="65"/>
			<point x="389" y="194" type="curve" smooth="yes"/>
			<point x="389" y="304" type="line" smooth="yes"/>
			<point x="389" y="411"/>
			<point x="343" y="478"/>
			<point x="264" y="485" type="curve"/>
			<point x="264" y="489" type="line"/>
			<point x="324" y="491"/>
			<point x="359" y="539"/>
			<point x="359" y="619" type="curve" smooth="yes"/>
			<point x="359" y="684" type="line" smooth="yes"/>
			<point x="359" y="778"/>
			<point x="304" y="833"/>
			<point x="212" y="833" type="curve" smooth="yes"/>
			<point x="110" y="833"/>
			<point x="50" y="771"/>
			<point x="50" y="665" type="curve" smooth="yes"/>
			<point x="50" y="-60" type="line"/>
			<point x="100" y="-60" type="line"/>
			<point x="100" y="665" type="line" smooth="yes"/>
			<point x="100" y="742"/>
			<point x="141" y="788"/>
			<point x="211" y="788" type="curve" smooth="yes"/>
			<point x="272" y="788"/>
			<point x="308" y="749"/>
			<point x="308" y="682" type="curve" smooth="yes"/>
			<point x="308" y="617" type="line" smooth="yes"/>
			<point x="308" y="548"/>
			<point x="273" y="508"/>
			<point x="214" y="508" type="curve" smooth="yes"/>
			<point x="184" y="508" type="line"/>
			<point x="184" y="463" type="line"/>
			<point x="210" y="463" type="line" smooth="yes"/>
			<point x="290" y="463"/>
			<point x="338" y="407"/>
			<point x="338" y="312" type="curve" smooth="yes"/>
			<point x="338" y="191" type="line" smooth="yes"/>
			<point x="338" y="94"/>
			<point x="291" y="37"/>
			<point x="211" y="37" type="curve" smooth="yes"/>
			<point x="190" y="37"/>
			<point x="175" y="38"/>
			<point x="169" y="40" type="curve"/>
			<point x="169" y="-6" type="line"/>
			<point x="182" y="-9"/>
			<point x="198" y="-11"/>
		</contour>
	</outline>
</glyph>
<glyph name="ae" format="2">
	<advance width="674"/>
	<unicode hex="00E6"/>
	<outline>
		<contour>
			<point x="38" y="143" type="line" smooth="yes"/>
			<point x="38" y="45"/>
			<point x="91" y="-13"/>
			<point x="180" y="-13" type="curve" smooth="yes"/>
			<point x="257" y="-13"/>
			<point x="312" y="38"/>
			<point x="329" y="124" type="curve"/>
			<point x="329" y="206" type="line"/>
			<point x="302" y="206" type="line"/>
			<point x="302" y="168" type="line" smooth="yes"/>
			<point x="302" y="84"/>
			<point x="259" y="35"/>
			<point x="185" y="35" type="curve" smooth="yes"/>
			<point x="125" y="35"/>
			<point x="89" y="78"/>
			<point x="89" y="150" type="curve" smooth="yes"/>
			<point x="89" y="168" type="line" smooth="yes"/>
			<point x="89" y="233"/>
			<point x="137" y="282"/>
			<point x="218" y="300" type="curve" smooth="yes"/>
			<point x="329" y="325" type="line"/>
			<point x="329" y="371" type="line"/>
			<point x="203" y="340" type="line" smooth="yes"/>
			<point x="99" y="314"/>
			<point x="38" y="247"/>
			<point x="38" y="160" type="curve" smooth="yes"/>
		</contour>
		<contour>
			<point x="65" y="421" type="line"/>
			<point x="115" y="419" type="line"/>
			<point x="115" y="453" type="line" smooth="yes"/>
			<point x="115" y="519"/>
			<point x="149" y="558"/>
			<point x="206" y="558" type="curve" smooth="yes"/>
			<point x="266" y="558"/>
			<point x="302" y="525"/>
			<point x="302" y="470" type="curve" smooth="yes"/>
			<point x="302" y="181" type="line" smooth="yes"/>
			<point x="302" y="59"/>
			<point x="361" y="-13"/>
			<point x="462" y="-13" type="curve" smooth="yes"/>
			<point x="562" y="-13"/>
			<point x="621" y="46"/>
			<point x="621" y="147" type="curve" smooth="yes"/>
			<point x="621" y="187" type="line"/>
			<point x="571" y="189" type="line"/>
			<point x="571" y="151" type="line" smooth="yes"/>
			<point x="571" y="78"/>
			<point x="531" y="35"/>
			<point x="463" y="35" type="curve" smooth="yes"/>
			<point x="393" y="35"/>
			<point x="352" y="87"/>
			<point x="352" y="176" type="curve" smooth="yes"/>
			<point x="352" y="412" type="line" smooth="yes"/>
			<point x="352" y="503"/>
			<point x="395" y="556"/>
			<point x="469" y="556" type="curve" smooth="yes"/>
			<point x="536" y="556"/>
			<point x="576" y="506"/>
			<point x="576" y="422" type="curve" smooth="yes"/>
			<point x="576" y="324" type="line"/>
			<point x="606" y="354" type="line"/>
			<point x="342" y="354" type="line"/>
			<point x="342" y="309" type="line"/>
			<point x="627" y="309" type="line"/>
			<point x="627" y="420" type="line" smooth="yes"/>
			<point x="627" y="535"/>
			<point x="569" y="603"/>
			<point x="472" y="603" type="curve" smooth="yes"/>
			<point x="404" y="603"/>
			<point x="353" y="566"/>
			<point x="335" y="504" type="curve"/>
			<point x="330" y="504" type="line"/>
			<point x="321" y="566"/>
			<point x="274" y="603"/>
			<point x="205" y="603" type="curve" smooth="yes"/>
			<point x="117" y="603"/>
			<point x="65" y="546"/>
			<point x="65" y="450" type="curve" smooth="yes"/>
		</contour>
	</outline>
</glyph>
<glyph name="eth" format="2">
	<advance width="436"/>
	<unicode hex="00F0"/>
	<outline>
		<contour>
			<point x="38" y="411" type="curve"/>
			<point x="38" y="178" type="line"/>
			<point x="38" y="59"/>
			<point x="98" y="-13"/>
			<point x="195" y="-13" type="curve" smooth="yes"/>
			<point x="297" y="-13"/>
			<point x="358" y="52"/>
			<point x="358" y="159" type="curve" smooth="yes"/>
			<point x="358" y="530" type="line" smooth="yes"/>
			<point x="358" y="577"/>
			<point x="349" y="630"/>
			<point x="335" y="670" type="curve" smooth="yes"/>
			<point x="282" y="820" type="line"/>
			<point x="228" y="820" type="line"/>
			<point x="286" y="658" type="line" smooth="yes"/>
			<point x="300" y="618"/>
			<point x="308" y="570"/>
			<point x="308" y="530" type="curve" smooth="yes"/>
			<point x="308" y="161" type="line" smooth="yes"/>
			<point x="308" y="81"/>
			<point x="265" y="32"/>
			<point x="194" y="32" type="curve" smooth="yes"/>
			<point x="129" y="32"/>
			<point x="89" y="86"/>
			<point x="89" y="174" type="curve"/>
			<point x="89" y="406" type="line"/>
			<point x="89" y="500"/>
			<point x="131" y="558"/>
			<point x="199" y="558" type="curve" smooth="yes"/>
			<point x="267" y="558"/>
			<point x="308" y="508"/>
			<point x="308" y="425" type="curve"/>
			<point x="323" y="425" type="line"/>
			<point x="323" y="499" type="line"/>
			<point x="310" y="564"/>
			<point x="258" y="603"/>
			<point x="186" y="603" type="curve" smooth="yes"/>
			<point x="94" y="603"/>
			<point x="38" y="530"/>
		</contour>
		<contour>
			<point x="175" y="682" type="line"/>
			<point x="389" y="716" type="line"/>
			<point x="389" y="762" type="line"/>
			<point x="175" y="728" type="line"/>
		</contour>
	</outline>
</glyph>
<glyph name="oslash" format="2">
	<advance width="421"/>
	<unicode hex="00F8"/>
	<outline>
		<contour>
			<point x="-2" y="207" type="line"/>
			<point x="-2" y="155" type="line"/>
			<point x="414" y="412" type="line"/>
			<point x="414" y="464" type="line"/>
		</contour>
		<component base="o"/>
	</outline>
</glyph>
<glyph name="dcroat" format="2">
	<advance width="401"/>
	<unicode hex="0111"/>
	<outline>
		<contour>
			<point x="212" y="689" type="line"/>
			<point x="412" y="689" type="line"/>
			<point x="427" y="734" type="line"/>
			<point x="227" y="734" type="line"/>
		</contour>
		<component base="d"/>
	</outline>
</glyph>
<glyph name="Hbar" format="2">
	<advance width="551"/>
	<unicode hex="0126"/>
	<outline>
		<contour>
			<point x="43" y="668" type="line"/>
			<point x="28" y="618" type="line"/>
			<point x="508" y="618" type="line"/>
			<point x="523" y="668" type="line"/>
		</contour>
		<component base="H" xOffset="1"/>
	</outline>
</glyph>
<glyph name="hbar" format="2">
	<advance width="399"/>
	<unicode hex="0127"/>
	<outline>
		<contour>
			<point x="-24" y="689" type="line"/>
			<point x="177" y="689" type="line"/>
			<point x="192" y="734" type="line"/>
			<point x="-9" y="734" type="line"/>
		</contour>
		<component base="h" xOffset="4"/>
	</outline>
</glyph>
<glyph name="Lslash" format="2">
	<advance width="489"/>
	<unicode hex="0141"/>
	<outline>
		<contour>
			<point x="30" y="397" type="line"/>
			<point x="260" y="434" type="line"/>
			<point x="260" y="482" type="line"/>
			<point x="30" y="446" type="line"/>
		</contour>
		<component base="L" xOffset="25"/>
	</outline>
</glyph>
<glyph name="lslash" format="2">
	<advance width="178"/>
	<unicode hex="0142"/>
	<outline>
		<contour>
			<point x="-17" y="307" type="line"/>
			<point x="183" y="339" type="line"/>
			<point x="183" y="385" type="line"/>
			<point x="-17" y="353" type="line"/>
		</contour>
		<component base="l" xOffset="8"/>
	</outline>
</glyph>
<glyph name="Eng" format="2">
	<advance width="540"/>
	<unicode hex="014A"/>
	<outline>
		<contour>
			<point x="466" y="20" type="line"/>
			<point x="412" y="20" type="line"/>
			<point x="412" y="-47" type="line" smooth="yes"/>
			<point x="412" y="-103"/>
			<point x="379" y="-135"/>
			<point x="324" y="-135" type="curve" smooth="yes"/>
			<point x="307" y="-135"/>
			<point x="287" y="-133"/>
			<point x="272" y="-129" type="curve"/>
			<point x="272" y="-180" type="line"/>
			<point x="288" y="-185"/>
			<point x="311" y="-188"/>
			<point x="332" y="-188" type="curve" smooth="yes"/>
			<point x="416" y="-188"/>
			<point x="466" y="-140"/>
			<point x="466" y="-60" type="curve" smooth="yes"/>
		</contour>
		<component base="N"/>
	</outline>
</glyph>
<glyph name="eng" format="2">
	<advance width="402"/>
	<unicode hex="014B"/>
	<outline>
		<contour>
			<point x="348" y="100" type="line"/>
			<point x="298" y="100" type="line"/>
			<point x="298" y="-95" type="line" smooth="yes"/>
			<point x="298" y="-122"/>
			<point x="282" y="-138"/>
			<point x="255" y="-138" type="curve" smooth="yes"/>
			<point x="241" y="-138"/>
			<point x="225" y="-137"/>
			<point x="213" y="-135" type="curve"/>
			<point x="213" y="-180" type="line"/>
			<point x="227" y="-183"/>
			<point x="246" y="-185"/>
			<point x="261" y="-185" type="curve" smooth="yes"/>
			<point x="316" y="-185"/>
			<point x="348" y="-156"/>
			<point x="348" y="-105" type="curve" smooth="yes"/>
		</contour>
		<component base="n"/>
	</outline>
</glyph>
<glyph name="OE" format="2">
	<advance width="795"/>
	<unicode hex="0152"/>
	<outline>
		<contour>
			<point x="50" y="235" type="line" smooth="yes"/>
			<point x="50" y="79"/>
			<point x="125" y="-13"/>
			<point x="251" y="-13" type="curve" smooth="yes"/>
			<point x="332" y="-13"/>
			<point x="391" y="24"/>
			<point x="411" y="87" type="curve"/>
			<point x="415" y="87" type="line"/>
			<point x="415" y="0" type="line"/>
			<point x="752" y="0" type="line"/>
			<point x="752" y="50" type="line"/>
			<point x="462" y="50" type="line"/>
			<point x="462" y="440" type="line"/>
			<point x="682" y="440" type="line"/>
			<point x="682" y="490" type="line"/>
			<point x="462" y="490" type="line"/>
			<point x="462" y="750" type="line"/>
			<point x="732" y="750" type="line"/>
			<point x="732" y="800" type="line"/>
			<point x="415" y="800" type="line"/>
			<point x="415" y="713" type="line"/>
			<point x="411" y="713" type="line"/>
			<point x="391" y="776"/>
			<point x="332" y="813"/>
			<point x="251" y="813" type="curve" smooth="yes"/>
			<point x="124" y="813"/>
			<point x="50" y="722"/>
			<point x="50" y="567" type="curve" smooth="yes"/>
		</contour>
		<contour>
			<point x="106" y="231" type="curve" smooth="yes"/>
			<point x="106" y="565" type="line" smooth="yes"/>
			<point x="106" y="689"/>
			<point x="161" y="762"/>
			<point x="255" y="762" type="curve" smooth="yes"/>
			<point x="351" y="762"/>
			<point x="407" y="691"/>
			<point x="407" y="570" type="curve" smooth="yes"/>
			<point x="407" y="236" type="line" smooth="yes"/>
			<point x="407" y="112"/>
			<point x="351" y="38"/>
			<point x="257" y="38" type="curve" smooth="yes"/>
			<point x="162" y="38"/>
			<point x="106" y="110"/>
		</contour>
	</outline>
</glyph>
<glyph name="oe" format="2">
	<advance width="696"/>
	<unicode hex="0153"/>
	<outline>
		<contour>
			<point x="38" y="178" type="line" smooth="yes"/>
			<point x="38" y="59"/>
			<point x="101" y="-13"/>
			<point x="203" y="-13" type="curve" smooth="yes"/>
			<point x="281" y="-13"/>
			<point x="334" y="30"/>
			<point x="346" y="103" type="curve"/>
			<point x="351" y="103" type="line"/>
			<point x="363" y="30"/>
			<point x="416" y="-13"/>
			<point x="492" y="-13" type="curve" smooth="yes"/>
			<point x="587" y="-13"/>
			<point x="643" y="50"/>
			<point x="643" y="157" type="curve" smooth="yes"/>
			<point x="643" y="187" type="line"/>
			<point x="593" y="189" type="line"/>
			<point x="593" y="161" type="line" smooth="yes"/>
			<point x="593" y="82"/>
			<point x="555" y="35"/>
			<point x="492" y="35" type="curve" smooth="yes"/>
			<point x="418" y="35"/>
			<point x="374" y="87"/>
			<point x="374" y="176" type="curve" smooth="yes"/>
			<point x="374" y="412" type="line" smooth="yes"/>
			<point x="374" y="502"/>
			<point x="418" y="556"/>
			<point x="491" y="556" type="curve" smooth="yes"/>
			<point x="558" y="556"/>
			<point x="598" y="505"/>
			<point x="598" y="422" type="curve" smooth="yes"/>
			<point x="598" y="324" type="line"/>
			<point x="628" y="354" type="line"/>
			<point x="359" y="354" type="line"/>
			<point x="359" y="309" type="line"/>
			<point x="649" y="309" type="line"/>
			<point x="649" y="420" type="line" smooth="yes"/>
			<point x="649" y="534"/>
			<point x="591" y="603"/>
			<point x="494" y="603" type="curve" smooth="yes"/>
			<point x="416" y="603"/>
			<point x="363" y="560"/>
			<point x="352" y="487" type="curve"/>
			<point x="347" y="487" type="line"/>
			<point x="336" y="560"/>
			<point x="283" y="603"/>
			<point x="205" y="603" type="curve" smooth="yes"/>
			<point x="101" y="603"/>
			<point x="38" y="531"/>
			<point x="38" y="413" type="curve" smooth="yes"/>
		</contour>
		<contour>
			<point x="89" y="174" type="curve" smooth="yes"/>
			<point x="89" y="415" type="line" smooth="yes"/>
			<point x="89" y="504"/>
			<point x="133" y="558"/>
			<point x="206" y="558" type="curve" smooth="yes"/>
			<point x="280" y="558"/>
			<point x="323" y="505"/>
			<point x="323" y="416" type="curve" smooth="yes"/>
			<point x="323" y="178" type="line" smooth="yes"/>
			<point x="323" y="87"/>
			<point x="280" y="32"/>
			<point x="206" y="32" type="curve" smooth="yes"/>
			<point x="133" y="32"/>
			<point x="89" y="86"/>
		</contour>
	</outline>
</glyph>
<glyph name="tbar" format="2">
	<advance width="293"/>
	<unicode hex="0167"/>
	<outline>
		<contour>
			<point x="30" y="305" type="line"/>
			<point x="230" y="305" type="line"/>
			<point x="245" y="350" type="line"/>
			<point x="45" y="350" type="line"/>
		</contour>
		<component base="t"/>
	</outline>
</glyph>
<glyph name="jdotless" format="2">
	<advance width="161"/>
	<unicode hex="0237"/>
	<anchor x="77" y="590" name="top"/>
	<anchor x="77" y="-180" name="bottom"/>
	<outline>
		<contour>
			<point x="102" y="-105" type="curve" smooth="yes"/>
			<point x="102" y="590" type="line"/>
			<point x="52" y="590" type="line"/>
			<point x="52" y="-95" type="line" smooth="yes"/>
			<point x="52" y="-122"/>
			<point x="36" y="-138"/>
			<point x="9" y="-138" type="curve" smooth="yes"/>
			<point x="-6" y="-138"/>
			<point x="-21" y="-137"/>
			<point x="-33" y="-135" type="curve"/>
			<point x="-33" y="-180" type="line"/>
			<point x="-19" y="-183"/>
			<point x="-1" y="-185"/>
			<point x="15" y="-185" type="curve" smooth="yes"/>
			<point x="70" y="-185"/>
			<point x="102" y="-156"/>
		</contour>
	</outline>
</glyph>
<glyph name="gravecomb" format="2">
	<advance width="183"/>
	<unicode hex="0300"/>
	<anchor x="93" y="790" name="top"/>
	<anchor x="101" y="590" name="_top"/>
	<outline>
		<contour>
			<point x="93" y="780" type="line"/>
			<point x="32" y="780" type="line"/>
			<point x="94" y="670" type="line"/>
			<point x="130" y="670" type="line"/>
		</contour>
	</outline>
</glyph>
<glyph name="acutecomb" format="2">
	<advance width="183"/>
	<unicode hex="0301"/>
	<anchor x="90" y="790" name="top"/>
	<anchor x="82" y="590" name="_top"/>
	<outline>
		<contour>
			<point x="90" y="780" type="line"/>
			<point x="52" y="670" type="line"/>
			<point x="89" y="670" type="line"/>
			<point x="151" y="780" type="line"/>
		</contour>
	</outline>
</glyph>
<glyph name="circumflexcomb" format="2">
	<advance width="181"/>
	<unicode hex="0302"/>
	<anchor x="91" y="790" name="top"/>
	<anchor x="91" y="590" name="_top"/>
	<outline>
		<contour>
			<point x="0" y="670" type="line"/>
			<point x="43" y="670" type="line"/>
			<point x="85" y="736" type="line"/>
			<point x="89" y="754" type="line"/>
			<point x="93" y="754" type="line"/>
			<point x="97" y="736" type="line"/>
			<point x="139" y="670" type="line"/>
			<point x="181" y="670" type="line"/>
			<point x="120" y="783" type="line"/>
			<point x="62" y="783" type="line"/>
		</contour>
	</outline>
</glyph>
<glyph name="tildecomb" format="2">
	<advance width="363"/>
	<unicode hex="0303"/>
	<anchor x="182" y="776" name="top"/>
	<anchor x="182" y="590" name="_top"/>
	<outline>
		<contour>
			<point x="50" y="678" type="curve"/>
			<point x="89" y="672" type="line"/>
			<point x="92" y="702"/>
			<point x="105" y="719"/>
			<point x="124" y="719" type="curve" smooth="yes"/>
			<point x="133" y="719"/>
			<point x="143" y="714"/>
			<point x="153" y="707" type="curve" smooth="yes"/>
			<point x="179" y="687" type="line" smooth="yes"/>
			<point x="194" y="675"/>
			<point x="212" y="666"/>
			<point x="229" y="666" type="curve" smooth="yes"/>
			<point x="271" y="666"/>
			<point x="300" y="698"/>
			<point x="305" y="750" type="curve"/>
			<point x="267" y="757" type="line"/>
			<point x="264" y="727"/>
			<point x="251" y="709"/>
			<point x="232" y="709" type="curve" smooth="yes"/>
			<point x="223" y="709"/>
			<point x="212" y="714"/>
			<point x="203" y="721" type="curve" smooth="yes"/>
			<point x="177" y="741" type="line" smooth="yes"/>
			<point x="161" y="753"/>
			<point x="144" y="762"/>
			<point x="127" y="762" type="curve" smooth="yes"/>
			<point x="84" y="762"/>
			<point x="56" y="731"/>
		</contour>
	</outline>
</glyph>
<glyph name="macroncomb" format="2">
	<advance width="338"/>
	<unicode hex="0304"/>
	<anchor x="169" y="760" name="top"/>
	<anchor x="169" y="590" name="_top"/>
	<outline>
		<contour>
			<point x="69" y="740" type="line"/>
			<point x="69" y="695" type="line"/>
			<point x="269" y="695" type="line"/>
			<point x="269" y="740" type="line"/>
		</contour>
	</outline>
</glyph>
<glyph name="brevecomb" format="2">
	<advance width="312"/>
	<unicode hex="0306"/>
	<anchor x="156" y="790" name="top"/>
	<anchor x="156" y="590" name="_top"/>
	<outline>
		<contour>
			<point x="264" y="763" type="curve"/>
			<point x="221" y="770" type="line"/>
			<point x="221" y="732"/>
			<point x="198" y="710"/>
			<point x="156" y="710" type="curve" smooth="yes"/>
			<point x="115" y="710"/>
			<point x="91" y="732"/>
			<point x="91" y="770" type="curve"/>
			<point x="49" y="763" type="line"/>
			<point x="49" y="704"/>
			<point x="88" y="670"/>
			<point x="156" y="670" type="curve" smooth="yes"/>
			<point x="225" y="670"/>
			<point x="264" y="704"/>
		</contour>
	</outline>
</glyph>
<glyph name="dotaccentcomb" format="2">
	<advance width="128"/>
	<unicode hex="0307"/>
	<anchor x="64" y="780" name="top"/>
	<anchor x="64" y="590" name="_top"/>
	<outline>
		<contour>
			<point x="34" y="780" type="line"/>
			<point x="34" y="680" type="line"/>
			<point x="94" y="680" type="line"/>
			<point x="94" y="780" type="line"/>
		</contour>
	</outline>
</glyph>
<glyph name="dieresiscomb" format="2">
	<advance width="283"/>
	<unicode hex="0308"/>
	<anchor x="142" y="780" name="top"/>
	<anchor x="142" y="590" name="_top"/>
	<outline>
		<contour>
			<point x="34" y="780" type="line"/>
			<point x="34" y="680" type="line"/>
			<point x="89" y="680" type="line"/>
			<point x="89" y="780" type="line"/>
		</contour>
		<contour>
			<point x="194" y="780" type="line"/>
			<point x="194" y="680" type="line"/>
			<point x="249" y="680" type="line"/>
			<point x="249" y="780" type="line"/>
		</contour>
	</outline>
</glyph>
<glyph name="ringcomb" format="2">
	<advance width="228"/>
	<unicode hex="030A"/>
	<anchor x="114" y="811" name="top"/>
	<anchor x="114" y="590" name="_top"/>
	<outline>
		<contour>
			<point x="114" y="654" type="curve" smooth="yes"/>
			<point x="161" y="654"/>
			<point x="192" y="684"/>
			<point x="192" y="731" type="curve" smooth="yes"/>
			<point x="192" y="778"/>
			<point x="161" y="809"/>
			<point x="114" y="809" type="curve" smooth="yes"/>
			<point x="67" y="809"/>
			<point x="37" y="778"/>
			<point x="37" y="731" type="curve" smooth="yes"/>
			<point x="37" y="684"/>
			<point x="67" y="654"/>
		</contour>
		<contour>
			<point x="114" y="689" type="curve" smooth="yes"/>
			<point x="92" y="689"/>
			<point x="77" y="706"/>
			<point x="77" y="731" type="curve" smooth="yes"/>
			<point x="77" y="757"/>
			<point x="92" y="774"/>
			<point x="114" y="774" type="curve" smooth="yes"/>
			<point x="137" y="774"/>
			<point x="152" y="757"/>
			<point x="152" y="731" type="curve" smooth="yes"/>
			<point x="152" y="706"/>
			<point x="137" y="689"/>
		</contour>
	</outline>
</glyph>
<glyph name="hungarumlautcomb" format="2">
	<advance width="350"/>
	<unicode hex="030B"/>
	<anchor x="183" y="790" name="top"/>
	<anchor x="183" y="590" name="_top"/>
	<outline>
		<contour>
			<point x="113" y="780" type="line"/>
			<point x="75" y="670" type="line"/>
			<point x="110" y="670" type="line"/>
			<point x="174" y="780" type="line"/>
		</contour>
		<contour>
			<point x="230" y="780" type="line"/>
			<point x="193" y="670" type="line"/>
			<point x="228" y="670" type="line"/>
			<point x="291" y="780" type="line"/>
		</contour>
	</outline>
</glyph>
<glyph name="commaaccentcomb" format="2">
	<advance width="111"/>
	<unicode hex="0326"/>
	<anchor x="54" y="0" name="_bottom"/>
	<anchor x="54" y="-180" name="bottom"/>
	<outline>
		<contour>
			<point x="27" y="-214" type="line"/>
			<point x="55" y="-214" type="line"/>
			<point x="87" y="-150" type="line"/>
			<point x="87" y="-70" type="line"/>
			<point x="24" y="-70" type="line"/>
			<point x="24" y="-150" type="line"/>
			<point x="52" y="-150" type="line"/>
		</contour>
	</outline>
</glyph>
<glyph name="cedillacomb" format="2">
	<advance width="174"/>
	<unicode hex="0327"/>
	<anchor x="76" y="0" name="_bottom"/>
	<anchor x="81" y="-161" name="bottom"/>
	<outline>
		<contour>
			<point x="56" y="20" type="line"/>
			<point x="56" y="-8"/>
			<point x="51" y="-37"/>
			<point x="42" y="-57" type="curve"/>
			<point x="60" y="-80" type="line"/>
			<point x="73" y="-80" type="line" smooth="yes"/>
			<point x="94" y="-80"/>
			<point x="107" y="-89"/>
			<point x="107" y="-103" type="curve" smooth="yes"/>
			<point x="107" y="-117"/>
			<point x="94" y="-125"/>
			<point x="73" y="-125" type="curve" smooth="yes"/>
			<point x="60" y="-125"/>
			<point x="47" y="-124"/>
			<point x="37" y="-121" type="curve"/>
			<point x="31" y="-154" type="line"/>
			<point x="44" y="-159"/>
			<point x="62" y="-161"/>
			<point x="77" y="-161" type="curve" smooth="yes"/>
			<point x="122" y="-161"/>
			<point x="150" y="-139"/>
			<point x="150" y="-102" type="curve" smooth="yes"/>
			<point x="150" y="-70"/>
			<point x="126" y="-49"/>
			<point x="86" y="-45" type="curve"/>
			<point x="92" y="-25"/>
			<point x="96" y="0"/>
			<point x="96" y="20" type="curve"/>
		</contour>
	</outline>
</glyph>
<glyph name="ogonekcomb" format="2">
	<advance width="171"/>
	<unicode hex="0328"/>
	<anchor x="139" y="10" name="_ogonek"/>
	<outline>
		<contour>
			<point x="139" y="0" type="curve"/>
			<point x="129" y="20" type="line"/>
			<point x="99" y="20" type="line"/>
			<point x="68" y="4"/>
			<point x="47" y="-36"/>
			<point x="47" y="-80" type="curve" smooth="yes"/>
			<point x="47" y="-123"/>
			<point x="75" y="-151"/>
			<point x="118" y="-151" type="curve" smooth="yes"/>
			<point x="132" y="-151"/>
			<point x="146" y="-149"/>
			<point x="154" y="-145" type="curve"/>
			<point x="154" y="-111" type="line"/>
			<point x="148" y="-113"/>
			<point x="140" y="-114"/>
			<point x="131" y="-114" type="curve" smooth="yes"/>
			<point x="107" y="-114"/>
			<point x="92" y="-98"/>
			<point x="92" y="-72" type="curve" smooth="yes"/>
			<point x="92" y="-41"/>
			<point x="111" y="-12"/>
		</contour>
	</outline>
</glyph>
<glyph name="endash" format="2">
	<advance width="581"/>
	<unicode hex="2013"/>
	<outline>
		<contour>
			<point x="51" y="297" type="line"/>
			<point x="530" y="297" type="line"/>
			<point x="530" y="345" type="line"/>
			<point x="51" y="345" type="line"/>
		</contour>
	</outline>
</glyph>
<glyph name="emdash" format="2">
	<advance width="715"/>
	<unicode hex="2014"/>
	<outline>
		<contour>
			<point x="51" y="297" type="line"/>
			<point x="664" y="297" type="line"/>
			<point x="664" y="345" type="line"/>
			<point x="51" y="345" type="line"/>
		</contour>
	</outline>
</glyph>
<glyph name="guilsinglleft" format="2">
	<advance width="223"/>
	<unicode hex="2039"/>
	<outline>
		<contour>
			<point x="129" y="473" type="line"/>
			<point x="44" y="290" type="line"/>
			<point x="129" y="107" type="line"/>
			<point x="180" y="107" type="line"/>
			<point x="105" y="290" type="line"/>
			<point x="180" y="473" type="line"/>
		</contour>
	</outline>
</glyph>
<glyph name="guilsinglright" format="2">
	<advance width="223"/>
	<unicode hex="203A"/>
	<outline>
		<contour>
			<point x="95" y="473" type="line"/>
			<point x="44" y="473" type="line"/>
			<point x="119" y="290" type="line"/>
			<point x="44" y="107" type="line"/>
			<point x="95" y="107" type="line"/>
			<point x="180" y="290" type="line"/>
		</contour>
	</outline>
</glyph>
<glyph name="euro" format="2">
	<advance width="557"/>
	<unicode hex="20AC"/>
	<outline>
		<contour>
			<point x="510" y="237" type="line"/>
			<point x="456" y="239" type="line"/>
			<point x="456" y="205" type="line" smooth="yes"/>
			<point x="456" y="100"/>
			<point x="398" y="38"/>
			<point x="299" y="38" type="curve" smooth="yes"/>
			<point x="200" y="38"/>
			<point x="141" y="110"/>
			<point x="141" y="231" type="curve" smooth="yes"/>
			<point x="141" y="565" type="line" smooth="yes"/>
			<point x="141" y="689"/>
			<point x="200" y="762"/>
			<point x="299" y="762" type="curve" smooth="yes"/>
			<point x="391" y="762"/>
			<point x="446" y="703"/>
			<point x="446" y="603" type="curve" smooth="yes"/>
			<point x="446" y="567" type="line"/>
			<point x="500" y="569" type="line"/>
			<point x="500" y="604" type="line" smooth="yes"/>
			<point x="500" y="735"/>
			<point x="425" y="813"/>
			<point x="299" y="813" type="curve" smooth="yes"/>
			<point x="164" y="813"/>
			<point x="85" y="722"/>
			<point x="85" y="567" type="curve" smooth="yes"/>
			<point x="85" y="235" type="line" smooth="yes"/>
			<point x="85" y="79"/>
			<point x="164" y="-13"/>
			<point x="298" y="-13" type="curve" smooth="yes"/>
			<point x="431" y="-13"/>
			<point x="510" y="66"/>
			<point x="510" y="201" type="curve" smooth="yes"/>
		</contour>
		<contour>
			<point x="16" y="305" type="line"/>
			<point x="326" y="305" type="line"/>
			<point x="341" y="355" type="line"/>
			<point x="31" y="355" type="line"/>
		</contour>
		<contour>
			<point x="16" y="435" type="line"/>
			<point x="326" y="435" type="line"/>
			<point x="341" y="485" type="line"/>
			<point x="31" y="485" type="line"/>
		</contour>
	</outline>
</glyph>
<glyph name="trademark" format="2">
	<advance width="417"/>
	<unicode hex="2122"/>
	<outline>
		<contour>
			<point x="29" y="820" type="line"/>
			<point x="29" y="801" type="line"/>
			<point x="86" y="801" type="line"/>
			<point x="86" y="590" type="line"/>
			<point x="106" y="590" type="line"/>
			<point x="106" y="801" type="line"/>
			<point x="163" y="801" type="line"/>
			<point x="163" y="820" type="line"/>
		</contour>
		<contour>
			<point x="390" y="590" type="line"/>
			<point x="390" y="820" type="line"/>
			<point x="359" y="820" type="line"/>
			<point x="294" y="633" type="line"/>
			<point x="289" y="613" type="line"/>
			<point x="285" y="613" type="line"/>
			<point x="280" y="633" type="line"/>
			<point x="216" y="820" type="line"/>
			<point x="184" y="820" type="line"/>
			<point x="184" y="590" type="line"/>
			<point x="203" y="590" type="line"/>
			<point x="203" y="769" type="line"/>
			<point x="201" y="799" type="line"/>
			<point x="205" y="799" type="line"/>
			<point x="212" y="769" type="line"/>
			<point x="275" y="590" type="line"/>
			<point x="298" y="590" type="line"/>
			<point x="361" y="769" type="line"/>
			<point x="368" y="799" type="line"/>
			<point x="372" y="799" type="line"/>
			<point x="369" y="770" type="line"/>
			<point x="369" y="590" type="line"/>
		</contour>
	</outline>
</glyph>
<glyph name="lozenge" format="2">
	<advance width="493"/>
	<unicode hex="25CA"/>
	<outline>
		<contour>
			<point x="50" y="400" type="line"/>
			<point x="217" y="0" type="line"/>
			<point x="276" y="0" type="line"/>
			<point x="444" y="400" type="line"/>
			<point x="276" y="800" type="line"/>
			<point x="217" y="800" type="line"/>
		</contour>
		<contour>
			<point x="387" y="400" type="line"/>
			<point x="259" y="91" type="line"/>
			<point x="250" y="47" type="line"/>
			<point x="244" y="47" type="line"/>
			<point x="235" y="91" type="line"/>
			<point x="107" y="400" type="line"/>
			<point x="235" y="709" type="line"/>
			<point x="244" y="754" type="line"/>
			<point x="250" y="754" type="line"/>
			<point x="259" y="709" type="line"/>
		</contour>
	</outline>
</glyph>
<glyph name="G.ss02" format="2">
	<advance width="527"/>
	<anchor x="264" y="800" name="top"/>
	<anchor x="264" y="0" name="bottom"/>
	<outline>
		<contour>
			<point x="487" y="423" type="line"/>
			<point x="280" y="423" type="line"/>
			<point x="280" y="373" type="line"/>
			<point x="432" y="373" type="line"/>
			<point x="432" y="203" type="line" smooth="yes"/>
			<point x="432" y="99"/>
			<point x="371" y="38"/>
			<point x="269" y="38" type="curve" smooth="yes"/>
			<point x="167" y="38"/>
			<point x="106" y="110"/>
			<point x="106" y="231" type="curve" smooth="yes"/>
			<point x="106" y="565" type="line" smooth="yes"/>
			<point x="106" y="689"/>
			<point x="167" y="762"/>
			<point x="269" y="762" type="curve" smooth="yes"/>
			<point x="361" y="762"/>
			<point x="416" y="697"/>
			<point x="416" y="588" type="curve" smooth="yes"/>
			<point x="416" y="551" type="line"/>
			<point x="470" y="553" type="line"/>
			<point x="470" y="589" type="line" smooth="yes"/>
			<point x="470" y="730"/>
			<point x="395" y="813"/>
			<point x="269" y="813" type="curve" smooth="yes"/>
			<point x="131" y="813"/>
			<point x="50" y="722"/>
			<point x="50" y="567" type="curve" smooth="yes"/>
			<point x="50" y="235" type="line" smooth="yes"/>
			<point x="50" y="79"/>
			<point x="130" y="-13"/>
			<point x="266" y="-13" type="curve" smooth="yes"/>
			<point x="359" y="-13"/>
			<point x="428" y="27"/>
			<point x="451" y="95" type="curve"/>
			<point x="456" y="95" type="line"/>
			<point x="463" y="0" type="line"/>
			<point x="487" y="0" type="line"/>
		</contour>
	</outline>
</glyph>
<glyph name="J.ss03" format="2">
	<advance width="308"/>
	<outline>
		<contour>
			<point x="234" y="121" type="curve" smooth="yes"/>
			<point x="234" y="800" type="line"/>
			<point x="179" y="800" type="line"/>
			<point x="179" y="133" type="line" smooth="yes"/>
			<point x="179" y="78"/>
			<point x="143" y="45"/>
			<point x="91" y="45" type="curve" smooth="yes"/>
			<point x="73" y="45"/>
			<point x="54" y="48"/>
			<point x="39" y="51" type="curve"/>
			<point x="39" y="0" type="line"/>
			<point x="55" y="-5"/>
			<point x="78" y="-8"/>
			<point x="99" y="-8" type="curve" smooth="yes"/>
			<point x="180" y="-8"/>
			<point x="234" y="40"/>
		</contour>
	</outline>
</glyph>
<glyph name="K.ss04" format="2">
	<advance width="468"/>
	<anchor x="244" y="800" name="top"/>
	<anchor x="244" y="0" name="bottom"/>
	<outline>
		<contour>
			<point x="75" y="0" type="line"/>
			<point x="130" y="0" type="line"/>
			<point x="130" y="364" type="line"/>
			<point x="127" y="396" type="line"/>
			<point x="132" y="396" type="line"/>
			<point x="144" y="364" type="line"/>
			<point x="364" y="0" type="line"/>
			<point x="434" y="0" type="line"/>
			<point x="177" y="420" type="line"/>
			<point x="416" y="800" type="line"/>
			<point x="348" y="800" type="line"/>
			<point x="144" y="468" type="line"/>
			<point x="132" y="436" type="line"/>
			<point x="127" y="436" type="line"/>
			<point x="130" y="468" type="line"/>
			<point x="130" y="800" type="line"/>
			<point x="75" y="800" type="line"/>
		</contour>
	</outline>
</glyph>
<glyph name="R.ss05" format="2">
	<advance width="504"/>
	<anchor x="256" y="800" name="top"/>
	<anchor x="256" y="0" name="bottom"/>
	<outline>
		<contour>
			<point x="75" y="0" type="line"/>
			<point x="130" y="0" type="line"/>
			<point x="130" y="390" type="line"/>
			<point x="251" y="390" type="line" smooth="yes"/>
			<point x="335" y="390"/>
			<point x="385" y="342"/>
			<point x="385" y="260" type="curve" smooth="yes"/>
			<point x="385" y="80" type="line" smooth="yes"/>
			<point x="385" y="45"/>
			<point x="391" y="16"/>
			<point x="402" y="0" type="curve"/>
			<point x="459" y="0" type="line"/>
			<point x="461" y="4" type="line"/>
			<point x="450" y="30"/>
			<point x="443" y="61"/>
			<point x="443" y="89" type="curve" smooth="yes"/>
			<point x="443" y="257" type="line" smooth="yes"/>
			<point x="443" y="337"/>
			<point x="401" y="395"/>
			<point x="330" y="412" type="curve"/>
			<point x="330" y="416" type="line"/>
			<point x="396" y="434"/>
			<point x="435" y="486"/>
			<point x="435" y="555" type="curve" smooth="yes"/>
			<point x="435" y="625" type="line" smooth="yes"/>
			<point x="435" y="735"/>
			<point x="366" y="800"/>
			<point x="250" y="800" type="curve" smooth="yes"/>
			<point x="75" y="800" type="line"/>
		</contour>
		<contour>
			<point x="130" y="440" type="line"/>
			<point x="130" y="750" type="line"/>
			<point x="249" y="750" type="line" smooth="yes"/>
			<point x="331" y="750"/>
			<point x="380" y="704"/>
			<point x="380" y="627" type="curve" smooth="yes"/>
			<point x="380" y="553" type="line" smooth="yes"/>
			<point x="380" y="482"/>
			<point x="332" y="440"/>
			<point x="251" y="440" type="curve" smooth="yes"/>
		</contour>
	</outline>
</glyph>
<glyph name="a.sc" format="2">
	<advance width="484"/>
	<anchor x="450" y="10" name="ogonek"/>
	<anchor x="244" y="0" name="bottom"/>
	<anchor x="242" y="620" name="top"/>
	<outline>
		<contour>
			<point x="450" y="0" type="line"/>
			<point x="273" y="620" type="line"/>
			<point x="205" y="620" type="line"/>
			<point x="39" y="0" type="line"/>
			<point x="95" y="0" type="line"/>
			<point x="222" y="492" type="line"/>
			<point x="236" y="570" type="line"/>
			<point x="241" y="570" type="line"/>
			<point x="255" y="492" type="line"/>
			<point x="390" y="0" type="line"/>
		</contour>
		<contour>
			<point x="117" y="190" type="line"/>
			<point x="117" y="140" type="line"/>
			<point x="372" y="140" type="line"/>
			<point x="372" y="190" type="line"/>
		</contour>
	</outline>
</glyph>
<glyph name="a.ss01" format="2">
	<advance width="411"/>
	<anchor x="374" y="10" name="ogonek"/>
	<anchor x="186" y="0" name="bottom"/>
	<anchor x="210" y="590" name="top"/>
	<outline>
		<contour>
			<point x="308" y="95" type="line" smooth="yes"/>
			<point x="308" y="59"/>
			<point x="314" y="23"/>
			<point x="325" y="0" type="curve"/>
			<point x="374" y="0" type="line"/>
			<point x="376" y="4" type="line"/>
			<point x="365" y="32"/>
			<point x="358" y="69"/>
			<point x="358" y="104" type="curve" smooth="yes"/>
			<point x="358" y="590" type="line"/>
			<point x="316" y="590" type="line"/>
			<point x="308" y="498" type="line"/>
		</contour>
		<contour>
			<point x="323" y="499" type="line"/>
			<point x="310" y="564"/>
			<point x="259" y="603"/>
			<point x="186" y="603" type="curve" smooth="yes"/>
			<point x="93" y="603"/>
			<point x="38" y="524"/>
			<point x="38" y="391" type="curve" smooth="yes"/>
			<point x="38" y="195" type="line" smooth="yes"/>
			<point x="38" y="64"/>
			<point x="91" y="-13"/>
			<point x="182" y="-13" type="curve" smooth="yes"/>
			<point x="256" y="-13"/>
			<point x="309" y="27"/>
			<point x="323" y="96" type="curve"/>
			<point x="323" y="165" type="line"/>
			<point x="308" y="165" type="line"/>
			<point x="308" y="81"/>
			<point x="265" y="32"/>
			<point x="193" y="32" type="curve" smooth="yes"/>
			<point x="128" y="32"/>
			<point x="89" y="93"/>
			<point x="89" y="195" type="curve" smooth="yes"/>
			<point x="89" y="386" type="line" smooth="yes"/>
			<point x="89" y="494"/>
			<point x="130" y="558"/>
			<point x="199" y="558" type="curve" smooth="yes"/>
			<point x="268" y="558"/>
			<point x="308" y="509"/>
			<point x="308" y="425" type="curve"/>
			<point x="323" y="425" type="line"/>
		</contour>
	</outline>
</glyph>
<glyph name="ae.sc" format="2">
	<advance width="670"/>
	<outline>
		<contour>
			<point x="39" y="0" type="line"/>
			<point x="97" y="0" type="line"/>
			<point x="257" y="570" type="line"/>
			<point x="317" y="570" type="line"/>
			<point x="317" y="0" type="line"/>
			<point x="627" y="0" type="line"/>
			<point x="627" y="50" type="line"/>
			<point x="372" y="50" type="line"/>
			<point x="372" y="320" type="line"/>
			<point x="570" y="320" type="line"/>
			<point x="570" y="370" type="line"/>
			<point x="372" y="370" type="line"/>
			<point x="372" y="570" type="line"/>
			<point x="612" y="570" type="line"/>
			<point x="612" y="620" type="line"/>
			<point x="219" y="620" type="line"/>
		</contour>
		<contour>
			<point x="123" y="190" type="line"/>
			<point x="123" y="140" type="line"/>
			<point x="348" y="140" type="line"/>
			<point x="348" y="190" type="line"/>
		</contour>
	</outline>
</glyph>
<glyph name="b.sc" format="2">
	<advance width="425"/>
	<outline>
		<contour>
			<point x="45" y="0" type="line"/>
			<point x="231" y="0" type="line" smooth="yes"/>
			<point x="326" y="0"/>
			<point x="382" y="56"/>
			<point x="382" y="151" type="curve" smooth="yes"/>
			<point x="382" y="208" type="line" smooth="yes"/>
			<point x="382" y="280"/>
			<point x="348" y="328"/>
			<point x="290" y="338" type="curve"/>
			<point x="290" y="342" type="line"/>
			<point x="330" y="351"/>
			<point x="354" y="391"/>
			<point x="354" y="449" type="curve" smooth="yes"/>
			<point x="354" y="481" type="line" smooth="yes"/>
			<point x="354" y="568"/>
			<point x="303" y="620"/>
			<point x="218" y="620" type="curve" smooth="yes"/>
			<point x="45" y="620" type="line"/>
		</contour>
		<contour>
			<point x="100" y="50" type="line"/>
			<point x="100" y="310" type="line"/>
			<point x="230" y="310" type="line" smooth="yes"/>
			<point x="290" y="310"/>
			<point x="326" y="273"/>
			<point x="326" y="211" type="curve" smooth="yes"/>
			<point x="326" y="149" type="line" smooth="yes"/>
			<point x="326" y="87"/>
			<point x="290" y="50"/>
			<point x="230" y="50" type="curve" smooth="yes"/>
		</contour>
		<contour>
			<point x="100" y="360" type="line"/>
			<point x="100" y="570" type="line"/>
			<point x="218" y="570" type="line" smooth="yes"/>
			<point x="268" y="570"/>
			<point x="298" y="538"/>
			<point x="298" y="484" type="curve" smooth="yes"/>
			<point x="298" y="447" type="line" smooth="yes"/>
			<point x="298" y="392"/>
			<point x="268" y="360"/>
			<point x="218" y="360" type="curve" smooth="yes"/>
		</contour>
	</outline>
</glyph>
<glyph name="c.sc" format="2">
	<advance width="464"/>
	<anchor x="235" y="620" name="top"/>
	<anchor x="235" y="0" name="bottom"/>
	<outline>
		<contour>
			<point x="417" y="224" type="line"/>
			<point x="363" y="226" type="line"/>
			<point x="363" y="185" type="line" smooth="yes"/>
			<point x="363" y="93"/>
			<point x="312" y="38"/>
			<point x="226" y="38" type="curve" smooth="yes"/>
			<point x="143" y="38"/>
			<point x="94" y="93"/>
			<point x="94" y="186" type="curve" smooth="yes"/>
			<point x="94" y="430" type="line" smooth="yes"/>
			<point x="94" y="526"/>
			<point x="142" y="582"/>
			<point x="224" y="582" type="curve" smooth="yes"/>
			<point x="307" y="582"/>
			<point x="356" y="530"/>
			<point x="356" y="443" type="curve" smooth="yes"/>
			<point x="356" y="401" type="line"/>
			<point x="410" y="403" type="line"/>
			<point x="410" y="444" type="line" smooth="yes"/>
			<point x="410" y="563"/>
			<point x="341" y="633"/>
			<point x="224" y="633" type="curve" smooth="yes"/>
			<point x="107" y="633"/>
			<point x="38" y="558"/>
			<point x="38" y="432" type="curve" smooth="yes"/>
			<point x="38" y="190" type="line" smooth="yes"/>
			<point x="38" y="62"/>
			<point x="107" y="-13"/>
			<point x="225" y="-13" type="curve" smooth="yes"/>
			<point x="346" y="-13"/>
			<point x="417" y="59"/>
			<point x="417" y="181" type="curve" smooth="yes"/>
		</contour>
	</outline>
</glyph>
<glyph name="caroncomb.alt" format="2">
	<advance width="126"/>
	<anchor x="9" y="820" name="_topright"/>
	<outline>
		<contour>
			<point x="34" y="650" type="line"/>
			<point x="60" y="650" type="line"/>
			<point x="79" y="754" type="line"/>
			<point x="79" y="820" type="line"/>
			<point x="34" y="820" type="line"/>
		</contour>
	</outline>
</glyph>
<glyph name="circumflexcomb.alt" format="2">
	<advance width="141"/>
	<anchor x="71" y="790" name="top"/>
	<anchor x="71" y="590" name="_top"/>
	<outline>
		<contour>
			<point x="0" y="670" type="line"/>
			<point x="42" y="670" type="line"/>
			<point x="66" y="734" type="line"/>
			<point x="68" y="754" type="line"/>
			<point x="73" y="754" type="line"/>
			<point x="75" y="734" type="line"/>
			<point x="100" y="670" type="line"/>
			<point x="141" y="670" type="line"/>
			<point x="102" y="780" type="line"/>
			<point x="39" y="780" type="line"/>
		</contour>
	</outline>
</glyph>
<glyph name="d.sc" format="2">
	<advance width="465"/>
	<anchor x="233" y="325" name="center"/>
	<anchor x="218" y="0" name="bottom"/>
	<anchor x="218" y="620" name="top"/>
	<outline>
		<contour>
			<point x="50" y="0" type="line"/>
			<point x="212" y="0" type="line" smooth="yes"/>
			<point x="341" y="0"/>
			<point x="418" y="78"/>
			<point x="418" y="211" type="curve" smooth="yes"/>
			<point x="418" y="406" type="line" smooth="yes"/>
			<point x="418" y="541"/>
			<point x="341" y="620"/>
			<point x="212" y="620" type="curve" smooth="yes"/>
			<point x="50" y="620" type="line"/>
		</contour>
		<contour>
			<point x="105" y="50" type="line"/>
			<point x="105" y="570" type="line"/>
			<point x="211" y="570" type="line" smooth="yes"/>
			<point x="306" y="570"/>
			<point x="362" y="512"/>
			<point x="362" y="413" type="curve" smooth="yes"/>
			<point x="362" y="214" type="line" smooth="yes"/>
			<point x="362" y="111"/>
			<point x="307" y="50"/>
			<point x="213" y="50" type="curve" smooth="yes"/>
		</contour>
	</outline>
</glyph>
<glyph name="dieresiscomb.alt" format="2">
	<advance width="348"/>
	<anchor x="174" y="780" name="top"/>
	<anchor x="174" y="590" name="_top"/>
	<outline>
		<contour>
			<point x="130" y="780" type="line"/>
			<point x="130" y="675" type="line"/>
			<point x="183" y="675" type="line"/>
			<point x="183" y="780" type="line"/>
		</contour>
		<contour>
			<point x="243" y="780" type="line"/>
			<point x="243" y="675" type="line"/>
			<point x="295" y="675" type="line"/>
			<point x="295" y="780" type="line"/>
		</contour>
	</outline>
</glyph>
<glyph name="e.sc" format="2">
	<advance width="413"/>
	<anchor x="370" y="10" name="ogonek"/>
	<anchor x="203" y="620" name="top"/>
	<anchor x="23" y="620" name="topleft"/>
	<anchor x="203" y="0" name="bottom"/>
	<outline>
		<contour>
			<point x="45" y="0" type="line"/>
			<point x="370" y="0" type="line"/>
			<point x="370" y="50" type="line"/>
			<point x="100" y="50" type="line"/>
			<point x="100" y="320" type="line"/>
			<point x="313" y="320" type="line"/>
			<point x="313" y="370" type="line"/>
			<point x="100" y="370" type="line"/>
			<point x="100" y="570" type="line"/>
			<point x="355" y="570" type="line"/>
			<point x="355" y="620" type="line"/>
			<point x="45" y="620" type="line"/>
		</contour>
	</outline>
</glyph>
<glyph name="eng.sc" format="2">
	<advance width="522"/>
	<outline>
		<contour>
			<point x="448" y="33" type="line"/>
			<point x="396" y="33" type="line"/>
			<point x="396" y="-55" type="line" smooth="yes"/>
			<point x="396" y="-107"/>
			<point x="367" y="-138"/>
			<point x="318" y="-138" type="curve" smooth="yes"/>
			<point x="302" y="-138"/>
			<point x="282" y="-135"/>
			<point x="266" y="-132" type="curve"/>
			<point x="266" y="-180" type="line"/>
			<point x="283" y="-185"/>
			<point x="306" y="-188"/>
			<point x="326" y="-188" type="curve" smooth="yes"/>
			<point x="403" y="-188"/>
			<point x="448" y="-142"/>
			<point x="448" y="-65" type="curve" smooth="yes"/>
		</contour>
		<component base="n.sc" xOffset="30"/>
	</outline>
</glyph>
<glyph name="eth.sc" format="2">
	<advance width="493"/>
	<outline>
		<contour>
			<point x="31" y="355" type="line"/>
			<point x="16" y="305" type="line"/>
			<point x="211" y="305" type="line"/>
			<point x="226" y="355" type="line"/>
		</contour>
		<component base="d.sc" xOffset="28"/>
	</outline>
</glyph>
<glyph name="f.sc" format="2">
	<advance width="403"/>
	<outline>
		<contour>
			<point x="45" y="0" type="line"/>
			<point x="100" y="0" type="line"/>
			<point x="100" y="320" type="line"/>
			<point x="313" y="320" type="line"/>
			<point x="313" y="370" type="line"/>
			<point x="100" y="370" type="line"/>
			<point x="100" y="570" type="line"/>
			<point x="355" y="570" type="line"/>
			<point x="355" y="620" type="line"/>
			<point x="45" y="620" type="line"/>
		</contour>
	</outline>
</glyph>
<glyph name="f_f" format="2">
	<advance width="498"/>
	<outline>
		<contour>
			<point x="110" y="0" type="line"/>
			<point x="160" y="0" type="line"/>
			<point x="160" y="735" type="line" smooth="yes"/>
			<point x="160" y="762"/>
			<point x="176" y="778"/>
			<point x="203" y="778" type="curve" smooth="yes"/>
			<point x="218" y="778"/>
			<point x="233" y="777"/>
			<point x="245" y="775" type="curve"/>
			<point x="245" y="820" type="line"/>
			<point x="231" y="823"/>
			<point x="213" y="825"/>
			<point x="197" y="825" type="curve" smooth="yes"/>
			<point x="143" y="825"/>
			<point x="110" y="796"/>
			<point x="110" y="745" type="curve" smooth="yes"/>
		</contour>
		<contour>
			<point x="315" y="0" type="line"/>
			<point x="365" y="0" type="line"/>
			<point x="365" y="735" type="line" smooth="yes"/>
			<point x="365" y="762"/>
			<point x="381" y="778"/>
			<point x="408" y="778" type="curve" smooth="yes"/>
			<point x="423" y="778"/>
			<point x="438" y="777"/>
			<point x="450" y="775" type="curve"/>
			<point x="450" y="820" type="line"/>
			<point x="436" y="823"/>
			<point x="418" y="825"/>
			<point x="402" y="825" type="curve" smooth="yes"/>
			<point x="348" y="825"/>
			<point x="315" y="796"/>
			<point x="315" y="745" type="curve" smooth="yes"/>
		</contour>
		<contour>
			<point x="25" y="545" type="line"/>
			<point x="450" y="545" type="line"/>
			<point x="450" y="590" type="line"/>
			<point x="25" y="590" type="line"/>
		</contour>
	</outline>
</glyph>
<glyph name="f_f_idotless" format="2">
	<advance width="636"/>
	<anchor x="577" y="10" name="ogonek"/>
	<anchor x="552" y="0" name="bottom"/>
	<anchor x="552" y="590" name="top"/>
	<outline>
		<contour>
			<point x="110" y="0" type="line"/>
			<point x="160" y="0" type="line"/>
			<point x="160" y="735" type="line" smooth="yes"/>
			<point x="160" y="762"/>
			<point x="176" y="778"/>
			<point x="203" y="778" type="curve" smooth="yes"/>
			<point x="218" y="778"/>
			<point x="233" y="777"/>
			<point x="245" y="775" type="curve"/>
			<point x="245" y="820" type="line"/>
			<point x="231" y="823"/>
			<point x="213" y="825"/>
			<point x="197" y="825" type="curve" smooth="yes"/>
			<point x="143" y="825"/>
			<point x="110" y="796"/>
			<point x="110" y="745" type="curve" smooth="yes"/>
		</contour>
		<contour>
			<point x="319" y="0" type="line"/>
			<point x="369" y="0" type="line"/>
			<point x="369" y="735" type="line" smooth="yes"/>
			<point x="369" y="762"/>
			<point x="385" y="778"/>
			<point x="412" y="778" type="curve" smooth="yes"/>
			<point x="426" y="778"/>
			<point x="442" y="777"/>
			<point x="454" y="775" type="curve"/>
			<point x="454" y="820" type="line"/>
			<point x="440" y="823"/>
			<point x="421" y="825"/>
			<point x="406" y="825" type="curve" smooth="yes"/>
			<point x="351" y="825"/>
			<point x="319" y="796"/>
			<point x="319" y="745" type="curve" smooth="yes"/>
		</contour>
		<contour>
			<point x="25" y="545" type="line"/>
			<point x="527" y="545" type="line"/>
			<point x="527" y="0" type="line"/>
			<point x="577" y="0" type="line"/>
			<point x="577" y="590" type="line"/>
			<point x="25" y="590" type="line"/>
		</contour>
	</outline>
</glyph>
<glyph name="f_f_jdotless" format="2">
	<advance width="636"/>
	<anchor x="552" y="590" name="top"/>
	<anchor x="552" y="-180" name="bottom"/>
	<outline>
		<contour>
			<point x="110" y="0" type="line"/>
			<point x="160" y="0" type="line"/>
			<point x="160" y="735" type="line" smooth="yes"/>
			<point x="160" y="762"/>
			<point x="176" y="778"/>
			<point x="203" y="778" type="curve" smooth="yes"/>
			<point x="218" y="778"/>
			<point x="233" y="777"/>
			<point x="245" y="775" type="curve"/>
			<point x="245" y="820" type="line"/>
			<point x="231" y="823"/>
			<point x="213" y="825"/>
			<point x="197" y="825" type="curve" smooth="yes"/>
			<point x="143" y="825"/>
			<point x="110" y="796"/>
			<point x="110" y="745" type="curve" smooth="yes"/>
		</contour>
		<contour>
			<point x="319" y="0" type="line"/>
			<point x="369" y="0" type="line"/>
			<point x="369" y="735" type="line" smooth="yes"/>
			<point x="369" y="762"/>
			<point x="385" y="778"/>
			<point x="412" y="778" type="curve" smooth="yes"/>
			<point x="426" y="778"/>
			<point x="442" y="777"/>
			<point x="454" y="775" type="curve"/>
			<point x="454" y="820" type="line"/>
			<point x="440" y="823"/>
			<point x="421" y="825"/>
			<point x="406" y="825" type="curve" smooth="yes"/>
			<point x="351" y="825"/>
			<point x="319" y="796"/>
			<point x="319" y="745" type="curve" smooth="yes"/>
		</contour>
		<contour>
			<point x="25" y="545" type="line"/>
			<point x="527" y="545" type="line"/>
			<point x="527" y="-95" type="line" smooth="yes"/>
			<point x="527" y="-122"/>
			<point x="511" y="-138"/>
			<point x="484" y="-138" type="curve" smooth="yes"/>
			<point x="470" y="-138"/>
			<point x="454" y="-137"/>
			<point x="442" y="-135" type="curve"/>
			<point x="442" y="-180" type="line"/>
			<point x="456" y="-183"/>
			<point x="475" y="-185"/>
			<point x="490" y="-185" type="curve" smooth="yes"/>
			<point x="545" y="-185"/>
			<point x="577" y="-156"/>
			<point x="577" y="-105" type="curve" smooth="yes"/>
			<point x="577" y="590" type="line"/>
			<point x="25" y="590" type="line"/>
		</contour>
	</outline>
</glyph>
<glyph name="f_f_t" format="2">
	<advance width="700"/>
	<anchor x="542" y="295" name="center"/>
	<anchor x="542" y="590" name="top"/>
	<anchor x="631" y="820" name="topright"/>
	<anchor x="594" y="0" name="bottom"/>
	<outline>
		<contour>
			<point x="110" y="0" type="line"/>
			<point x="160" y="0" type="line"/>
			<point x="160" y="735" type="line" smooth="yes"/>
			<point x="160" y="762"/>
			<point x="176" y="778"/>
			<point x="203" y="778" type="curve" smooth="yes"/>
			<point x="218" y="778"/>
			<point x="233" y="777"/>
			<point x="245" y="775" type="curve"/>
			<point x="245" y="820" type="line"/>
			<point x="231" y="823"/>
			<point x="213" y="825"/>
			<point x="197" y="825" type="curve" smooth="yes"/>
			<point x="143" y="825"/>
			<point x="110" y="796"/>
			<point x="110" y="745" type="curve" smooth="yes"/>
		</contour>
		<contour>
			<point x="319" y="0" type="line"/>
			<point x="369" y="0" type="line"/>
			<point x="369" y="735" type="line" smooth="yes"/>
			<point x="369" y="762"/>
			<point x="385" y="778"/>
			<point x="412" y="778" type="curve" smooth="yes"/>
			<point x="426" y="778"/>
			<point x="442" y="777"/>
			<point x="454" y="775" type="curve"/>
			<point x="454" y="820" type="line"/>
			<point x="440" y="823"/>
			<point x="421" y="825"/>
			<point x="406" y="825" type="curve" smooth="yes"/>
			<point x="351" y="825"/>
			<point x="319" y="796"/>
			<point x="319" y="745" type="curve" smooth="yes"/>
		</contour>
		<contour>
			<point x="517" y="76" type="line" smooth="yes"/>
			<point x="517" y="25"/>
			<point x="550" y="-5"/>
			<point x="604" y="-5" type="curve" smooth="yes"/>
			<point x="620" y="-5"/>
			<point x="638" y="-3"/>
			<point x="652" y="0" type="curve"/>
			<point x="652" y="45" type="line"/>
			<point x="640" y="44"/>
			<point x="625" y="43"/>
			<point x="610" y="43" type="curve" smooth="yes"/>
			<point x="583" y="43"/>
			<point x="567" y="59"/>
			<point x="567" y="86" type="curve" smooth="yes"/>
			<point x="567" y="740" type="line"/>
			<point x="547" y="740" type="line"/>
			<point x="517" y="690" type="line"/>
		</contour>
		<contour>
			<point x="25" y="590" type="line"/>
			<point x="25" y="545" type="line"/>
			<point x="652" y="545" type="line"/>
			<point x="652" y="590" type="line"/>
		</contour>
	</outline>
</glyph>
<glyph name="f_f_tbar" format="2">
	<advance width="700"/>
	<outline>
		<contour>
			<point x="437" y="305" type="line"/>
			<point x="637" y="305" type="line"/>
			<point x="652" y="350" type="line"/>
			<point x="452" y="350" type="line"/>
		</contour>
		<component base="f_f_t"/>
	</outline>
</glyph>
<glyph name="f_idotless" format="2">
	<advance width="428"/>
	<anchor x="369" y="10" name="ogonek"/>
	<anchor x="344" y="0" name="bottom"/>
	<anchor x="344" y="590" name="top"/>
	<outline>
		<contour>
			<point x="110" y="0" type="line"/>
			<point x="160" y="0" type="line"/>
			<point x="160" y="735" type="line" smooth="yes"/>
			<point x="160" y="762"/>
			<point x="176" y="778"/>
			<point x="203" y="778" type="curve" smooth="yes"/>
			<point x="218" y="778"/>
			<point x="234" y="777"/>
			<point x="245" y="775" type="curve"/>
			<point x="245" y="820" type="line"/>
			<point x="231" y="823"/>
			<point x="213" y="825"/>
			<point x="197" y="825" type="curve" smooth="yes"/>
			<point x="143" y="825"/>
			<point x="110" y="796"/>
			<point x="110" y="745" type="curve" smooth="yes"/>
		</contour>
		<contour>
			<point x="25" y="545" type="line"/>
			<point x="319" y="545" type="line"/>
			<point x="319" y="0" type="line"/>
			<point x="369" y="0" type="line"/>
			<point x="369" y="590" type="line"/>
			<point x="25" y="590" type="line"/>
		</contour>
	</outline>
</glyph>
<glyph name="f_jdotless" format="2">
	<advance width="425"/>
	<anchor x="341" y="590" name="top"/>
	<anchor x="341" y="-180" name="bottom"/>
	<outline>
		<contour>
			<point x="110" y="0" type="line"/>
			<point x="160" y="0" type="line"/>
			<point x="160" y="735" type="line" smooth="yes"/>
			<point x="160" y="762"/>
			<point x="176" y="778"/>
			<point x="203" y="778" type="curve" smooth="yes"/>
			<point x="218" y="778"/>
			<point x="233" y="777"/>
			<point x="245" y="775" type="curve"/>
			<point x="245" y="820" type="line"/>
			<point x="231" y="823"/>
			<point x="213" y="825"/>
			<point x="197" y="825" type="curve" smooth="yes"/>
			<point x="143" y="825"/>
			<point x="110" y="796"/>
			<point x="110" y="745" type="curve" smooth="yes"/>
		</contour>
		<contour>
			<point x="25" y="545" type="line"/>
			<point x="316" y="545" type="line"/>
			<point x="316" y="-95" type="line" smooth="yes"/>
			<point x="316" y="-122"/>
			<point x="300" y="-138"/>
			<point x="273" y="-138" type="curve" smooth="yes"/>
			<point x="259" y="-138"/>
			<point x="243" y="-137"/>
			<point x="231" y="-135" type="curve"/>
			<point x="231" y="-180" type="line"/>
			<point x="245" y="-183"/>
			<point x="264" y="-185"/>
			<point x="279" y="-185" type="curve" smooth="yes"/>
			<point x="334" y="-185"/>
			<point x="366" y="-156"/>
			<point x="366" y="-105" type="curve" smooth="yes"/>
			<point x="366" y="590" type="line"/>
			<point x="25" y="590" type="line"/>
		</contour>
	</outline>
</glyph>
<glyph name="f_t" format="2">
	<advance width="492"/>
	<anchor x="334" y="295" name="center"/>
	<anchor x="334" y="590" name="top"/>
	<anchor x="424" y="820" name="topright"/>
	<anchor x="391" y="0" name="bottom"/>
	<outline>
		<contour>
			<point x="110" y="0" type="line"/>
			<point x="160" y="0" type="line"/>
			<point x="160" y="735" type="line" smooth="yes"/>
			<point x="160" y="762"/>
			<point x="176" y="778"/>
			<point x="203" y="778" type="curve" smooth="yes"/>
			<point x="218" y="778"/>
			<point x="233" y="777"/>
			<point x="245" y="775" type="curve"/>
			<point x="245" y="820" type="line"/>
			<point x="231" y="823"/>
			<point x="213" y="825"/>
			<point x="197" y="825" type="curve" smooth="yes"/>
			<point x="143" y="825"/>
			<point x="110" y="796"/>
			<point x="110" y="745" type="curve" smooth="yes"/>
		</contour>
		<contour>
			<point x="309" y="76" type="line" smooth="yes"/>
			<point x="309" y="25"/>
			<point x="341" y="-5"/>
			<point x="396" y="-5" type="curve" smooth="yes"/>
			<point x="411" y="-5"/>
			<point x="430" y="-3"/>
			<point x="444" y="0" type="curve"/>
			<point x="444" y="45" type="line"/>
			<point x="432" y="44"/>
			<point x="416" y="43"/>
			<point x="402" y="43" type="curve" smooth="yes"/>
			<point x="375" y="43"/>
			<point x="359" y="59"/>
			<point x="359" y="86" type="curve" smooth="yes"/>
			<point x="359" y="740" type="line"/>
			<point x="339" y="740" type="line"/>
			<point x="309" y="690" type="line"/>
		</contour>
		<contour>
			<point x="25" y="590" type="line"/>
			<point x="25" y="545" type="line"/>
			<point x="444" y="545" type="line"/>
			<point x="444" y="590" type="line"/>
		</contour>
	</outline>
</glyph>
<glyph name="f_tbar" format="2">
	<advance width="492"/>
	<outline>
		<contour>
			<point x="229" y="305" type="line"/>
			<point x="429" y="305" type="line"/>
			<point x="444" y="350" type="line"/>
			<point x="244" y="350" type="line"/>
		</contour>
		<component base="f_t"/>
	</outline>
</glyph>
<glyph name="g.sc" format="2">
	<advance width="461"/>
	<anchor x="229" y="620" name="top"/>
	<anchor x="234" y="0" name="bottom"/>
	<outline>
		<contour>
			<point x="414" y="348" type="line"/>
			<point x="237" y="348" type="line"/>
			<point x="237" y="298" type="line"/>
			<point x="359" y="298" type="line"/>
			<point x="359" y="178" type="line" smooth="yes"/>
			<point x="359" y="90"/>
			<point x="310" y="38"/>
			<point x="226" y="38" type="curve" smooth="yes"/>
			<point x="143" y="38"/>
			<point x="94" y="93"/>
			<point x="94" y="186" type="curve" smooth="yes"/>
			<point x="94" y="430" type="line" smooth="yes"/>
			<point x="94" y="526"/>
			<point x="142" y="582"/>
			<point x="224" y="582" type="curve" smooth="yes"/>
			<point x="304" y="582"/>
			<point x="351" y="530"/>
			<point x="351" y="443" type="curve" smooth="yes"/>
			<point x="351" y="421" type="line"/>
			<point x="405" y="423" type="line"/>
			<point x="405" y="444" type="line" smooth="yes"/>
			<point x="405" y="563"/>
			<point x="338" y="633"/>
			<point x="225" y="633" type="curve" smooth="yes"/>
			<point x="107" y="633"/>
			<point x="38" y="558"/>
			<point x="38" y="432" type="curve" smooth="yes"/>
			<point x="38" y="190" type="line" smooth="yes"/>
			<point x="38" y="62"/>
			<point x="107" y="-13"/>
			<point x="225" y="-13" type="curve" smooth="yes"/>
			<point x="344" y="-13"/>
			<point x="414" y="57"/>
			<point x="414" y="176" type="curve" smooth="yes"/>
		</contour>
	</outline>
</glyph>
<glyph name="g.sc.ss02" format="2">
	<advance width="461"/>
	<anchor x="229" y="620" name="top"/>
	<anchor x="234" y="0" name="bottom"/>
	<outline>
		<contour>
			<point x="220" y="-13" type="curve" smooth="yes"/>
			<point x="299" y="-13"/>
			<point x="356" y="19"/>
			<point x="373" y="74" type="curve"/>
			<point x="378" y="74" type="line"/>
			<point x="386" y="0" type="line"/>
			<point x="414" y="0" type="line"/>
			<point x="414" y="348" type="line"/>
			<point x="237" y="348" type="line"/>
			<point x="237" y="298" type="line"/>
			<point x="359" y="298" type="line"/>
			<point x="359" y="178" type="line" smooth="yes"/>
			<point x="359" y="90"/>
			<point x="310" y="38"/>
			<point x="226" y="38" type="curve" smooth="yes"/>
			<point x="143" y="38"/>
			<point x="94" y="93"/>
			<point x="94" y="186" type="curve" smooth="yes"/>
			<point x="94" y="430" type="line" smooth="yes"/>
			<point x="94" y="526"/>
			<point x="142" y="582"/>
			<point x="224" y="582" type="curve" smooth="yes"/>
			<point x="304" y="582"/>
			<point x="351" y="530"/>
			<point x="351" y="443" type="curve" smooth="yes"/>
			<point x="351" y="421" type="line"/>
			<point x="405" y="423" type="line"/>
			<point x="405" y="444" type="line" smooth="yes"/>
			<point x="405" y="563"/>
			<point x="338" y="633"/>
			<point x="225" y="633" type="curve" smooth="yes"/>
			<point x="107" y="633"/>
			<point x="38" y="558"/>
			<point x="38" y="432" type="curve" smooth="yes"/>
			<point x="38" y="190" type="line" smooth="yes"/>
			<point x="38" y="62"/>
			<point x="106" y="-13"/>
		</contour>
	</outline>
</glyph>
<glyph name="g.ss02" format="2">
	<advance width="422"/>
	<anchor x="199" y="595" name="top"/>
	<anchor x="209" y="-180" name="bottom"/>
	<outline>
		<contour>
			<point x="62" y="270" type="line" smooth="yes"/>
			<point x="62" y="176"/>
			<point x="113" y="120"/>
			<point x="199" y="120" type="curve" smooth="yes"/>
			<point x="286" y="120"/>
			<point x="337" y="175"/>
			<point x="337" y="268" type="curve" smooth="yes"/>
			<point x="337" y="455" type="line" smooth="yes"/>
			<point x="337" y="548"/>
			<point x="286" y="603"/>
			<point x="200" y="603" type="curve" smooth="yes"/>
			<point x="113" y="603"/>
			<point x="62" y="548"/>
			<point x="62" y="455" type="curve" smooth="yes"/>
		</contour>
		<contour>
			<point x="113" y="268" type="curve" smooth="yes"/>
			<point x="113" y="455" type="line" smooth="yes"/>
			<point x="113" y="520"/>
			<point x="145" y="558"/>
			<point x="199" y="558" type="curve" smooth="yes"/>
			<point x="254" y="558"/>
			<point x="286" y="520"/>
			<point x="286" y="455" type="curve" smooth="yes"/>
			<point x="286" y="270" type="line" smooth="yes"/>
			<point x="286" y="204"/>
			<point x="254" y="165"/>
			<point x="200" y="165" type="curve" smooth="yes"/>
			<point x="145" y="165"/>
			<point x="113" y="203"/>
		</contour>
		<contour>
			<point x="130" y="159" type="line"/>
			<point x="101" y="144"/>
			<point x="84" y="118"/>
			<point x="84" y="89" type="curve" smooth="yes"/>
			<point x="84" y="49"/>
			<point x="112" y="20"/>
			<point x="160" y="10" type="curve" smooth="yes"/>
			<point x="243" y="-7" type="line" smooth="yes"/>
			<point x="296" y="-18"/>
			<point x="328" y="-44"/>
			<point x="328" y="-76" type="curve" smooth="yes"/>
			<point x="328" y="-121"/>
			<point x="284" y="-148"/>
			<point x="209" y="-148" type="curve" smooth="yes"/>
			<point x="134" y="-148"/>
			<point x="89" y="-117"/>
			<point x="89" y="-65" type="curve" smooth="yes"/>
			<point x="89" y="-26"/>
			<point x="113" y="5"/>
			<point x="154" y="19" type="curve"/>
			<point x="135" y="38" type="line"/>
			<point x="74" y="21"/>
			<point x="38" y="-20"/>
			<point x="38" y="-72" type="curve" smooth="yes"/>
			<point x="38" y="-148"/>
			<point x="102" y="-193"/>
			<point x="209" y="-193" type="curve" smooth="yes"/>
			<point x="316" y="-193"/>
			<point x="379" y="-148"/>
			<point x="379" y="-72" type="curve" smooth="yes"/>
			<point x="379" y="-18"/>
			<point x="335" y="22"/>
			<point x="261" y="36" type="curve" smooth="yes"/>
			<point x="177" y="52" type="line" smooth="yes"/>
			<point x="149" y="57"/>
			<point x="132" y="73"/>
			<point x="132" y="95" type="curve" smooth="yes"/>
			<point x="132" y="113"/>
			<point x="140" y="129"/>
			<point x="154" y="137" type="curve"/>
		</contour>
		<contour>
			<point x="275" y="560" type="curve"/>
			<point x="303" y="535" type="line"/>
			<point x="316" y="557"/>
			<point x="346" y="570"/>
			<point x="383" y="570" type="curve"/>
			<point x="383" y="620" type="line"/>
			<point x="337" y="620"/>
			<point x="297" y="598"/>
		</contour>
	</outline>
</glyph>
<glyph name="h.sc" format="2">
	<advance width="454"/>
	<outline>
		<contour>
			<point x="45" y="0" type="line"/>
			<point x="100" y="0" type="line"/>
			<point x="100" y="300" type="line"/>
			<point x="345" y="300" type="line"/>
			<point x="345" y="0" type="line"/>
			<point x="400" y="0" type="line"/>
			<point x="400" y="620" type="line"/>
			<point x="345" y="620" type="line"/>
			<point x="345" y="350" type="line"/>
			<point x="100" y="350" type="line"/>
			<point x="100" y="620" type="line"/>
			<point x="45" y="620" type="line"/>
		</contour>
	</outline>
</glyph>
<glyph name="j.sc" format="2">
	<advance width="416"/>
	<outline>
		<contour>
			<point x="94" y="246" type="line"/>
			<point x="39" y="243" type="line"/>
			<point x="39" y="160" type="line" smooth="yes"/>
			<point x="39" y="51"/>
			<point x="99" y="-13"/>
			<point x="200" y="-13" type="curve" smooth="yes"/>
			<point x="302" y="-13"/>
			<point x="362" y="51"/>
			<point x="362" y="159" type="curve" smooth="yes"/>
			<point x="362" y="620" type="line"/>
			<point x="307" y="620" type="line"/>
			<point x="307" y="161" type="line" smooth="yes"/>
			<point x="307" y="84"/>
			<point x="267" y="38"/>
			<point x="200" y="38" type="curve" smooth="yes"/>
			<point x="133" y="38"/>
			<point x="94" y="82"/>
			<point x="94" y="156" type="curve" smooth="yes"/>
		</contour>
	</outline>
</glyph>
<glyph name="j.sc.ss03" format="2">
	<advance width="278"/>
	<outline>
		<contour>
			<point x="224" y="116" type="curve" smooth="yes"/>
			<point x="224" y="620" type="line"/>
			<point x="169" y="620" type="line"/>
			<point x="169" y="126" type="line" smooth="yes"/>
			<point x="169" y="73"/>
			<point x="140" y="43"/>
			<point x="91" y="43" type="curve" smooth="yes"/>
			<point x="74" y="43"/>
			<point x="54" y="45"/>
			<point x="39" y="49" type="curve"/>
			<point x="39" y="0" type="line"/>
			<point x="55" y="-5"/>
			<point x="78" y="-8"/>
			<point x="99" y="-8" type="curve" smooth="yes"/>
			<point x="176" y="-8"/>
			<point x="224" y="38"/>
		</contour>
	</outline>
</glyph>
<glyph name="k.sc" format="2">
	<advance width="440"/>
	<anchor x="210" y="620" name="top"/>
	<anchor x="210" y="0" name="bottom"/>
	<outline>
		<contour>
			<point x="45" y="0" type="line"/>
			<point x="100" y="0" type="line"/>
			<point x="100" y="245" type="line"/>
			<point x="190" y="351" type="line"/>
			<point x="195" y="351" type="line"/>
			<point x="338" y="0" type="line"/>
			<point x="401" y="0" type="line"/>
			<point x="233" y="390" type="line"/>
			<point x="388" y="620" type="line"/>
			<point x="321" y="620" type="line"/>
			<point x="117" y="345" type="line"/>
			<point x="102" y="304" type="line"/>
			<point x="97" y="304" type="line"/>
			<point x="100" y="351" type="line"/>
			<point x="100" y="620" type="line"/>
			<point x="45" y="620" type="line"/>
		</contour>
	</outline>
</glyph>
<glyph name="k.sc.ss04" format="2">
	<advance width="393"/>
	<anchor x="182" y="620" name="top"/>
	<anchor x="182" y="0" name="bottom"/>
	<outline>
		<contour>
			<point x="45" y="0" type="line"/>
			<point x="100" y="0" type="line"/>
			<point x="100" y="273" type="line"/>
			<point x="97" y="305" type="line"/>
			<point x="101" y="305" type="line"/>
			<point x="112" y="273" type="line"/>
			<point x="285" y="0" type="line"/>
			<point x="354" y="0" type="line"/>
			<point x="146" y="322" type="line"/>
			<point x="345" y="620" type="line"/>
			<point x="276" y="620" type="line"/>
			<point x="112" y="369" type="line"/>
			<point x="101" y="337" type="line"/>
			<point x="97" y="337" type="line"/>
			<point x="100" y="369" type="line"/>
			<point x="100" y="620" type="line"/>
			<point x="45" y="620" type="line"/>
		</contour>
	</outline>
</glyph>
<glyph name="k.ss04" format="2">
	<advance width="382"/>
	<anchor x="174" y="820" name="top"/>
	<anchor x="176" y="0" name="bottom"/>
	<outline>
		<contour>
			<point x="50" y="0" type="line"/>
			<point x="100" y="0" type="line"/>
			<point x="100" y="289" type="line"/>
			<point x="97" y="318" type="line"/>
			<point x="102" y="318" type="line"/>
			<point x="112" y="289" type="line"/>
			<point x="284" y="0" type="line"/>
			<point x="343" y="0" type="line"/>
			<point x="145" y="332" type="line"/>
			<point x="315" y="590" type="line"/>
			<point x="258" y="590" type="line"/>
			<point x="114" y="367" type="line"/>
			<point x="102" y="338" type="line"/>
			<point x="97" y="338" type="line"/>
			<point x="100" y="367" type="line"/>
			<point x="100" y="820" type="line"/>
			<point x="50" y="820" type="line"/>
		</contour>
	</outline>
</glyph>
<glyph name="l.sc" format="2">
	<advance width="404"/>
	<anchor x="178" y="355" name="center"/>
	<anchor x="85" y="620" name="top"/>
	<anchor x="140" y="630" name="topright"/>
	<anchor x="210" y="0" name="bottom"/>
	<outline>
		<contour>
			<point x="370" y="0" type="line"/>
			<point x="370" y="50" type="line"/>
			<point x="100" y="50" type="line"/>
			<point x="100" y="620" type="line"/>
			<point x="45" y="620" type="line"/>
			<point x="45" y="0" type="line"/>
		</contour>
	</outline>
</glyph>
<glyph name="lslash.sc" format="2">
	<advance width="450"/>
	<outline>
		<contour>
			<point x="30" y="293" type="line"/>
			<point x="260" y="330" type="line"/>
			<point x="260" y="378" type="line"/>
			<point x="30" y="342" type="line"/>
		</contour>
		<component base="l.sc" xOffset="46"/>
	</outline>
</glyph>
<glyph name="m.sc" format="2">
	<advance width="637"/>
	<outline>
		<contour>
			<point x="583" y="0" type="line"/>
			<point x="583" y="620" type="line"/>
			<point x="507" y="620" type="line"/>
			<point x="329" y="111" type="line"/>
			<point x="316" y="43" type="line"/>
			<point x="311" y="43" type="line"/>
			<point x="298" y="111" type="line"/>
			<point x="119" y="620" type="line"/>
			<point x="45" y="620" type="line"/>
			<point x="45" y="0" type="line"/>
			<point x="97" y="0" type="line"/>
			<point x="97" y="486" type="line"/>
			<point x="90" y="563" type="line"/>
			<point x="95" y="563" type="line"/>
			<point x="114" y="486" type="line"/>
			<point x="284" y="0" type="line"/>
			<point x="340" y="0" type="line"/>
			<point x="509" y="486" type="line"/>
			<point x="530" y="563" type="line"/>
			<point x="535" y="563" type="line"/>
			<point x="528" y="486" type="line"/>
			<point x="528" y="0" type="line"/>
		</contour>
	</outline>
</glyph>
<glyph name="macroncomb.alt" format="2">
	<advance width="338"/>
	<anchor x="169" y="760" name="top"/>
	<anchor x="169" y="590" name="_top"/>
	<outline>
		<contour>
			<point x="114" y="750" type="line"/>
			<point x="114" y="705" type="line"/>
			<point x="289" y="705" type="line"/>
			<point x="289" y="750" type="line"/>
		</contour>
	</outline>
</glyph>
<glyph name="n.sc" format="2">
	<advance width="472"/>
	<anchor x="240" y="620" name="top"/>
	<anchor x="238" y="0" name="bottom"/>
	<outline>
		<contour>
			<point x="45" y="620" type="line"/>
			<point x="45" y="0" type="line"/>
			<point x="97" y="0" type="line"/>
			<point x="97" y="470" type="line"/>
			<point x="90" y="560" type="line"/>
			<point x="95" y="560" type="line"/>
			<point x="125" y="470" type="line"/>
			<point x="355" y="0" type="line"/>
			<point x="418" y="0" type="line"/>
			<point x="418" y="620" type="line"/>
			<point x="367" y="620" type="line"/>
			<point x="367" y="146" type="line"/>
			<point x="374" y="55" type="line"/>
			<point x="368" y="55" type="line"/>
			<point x="339" y="146" type="line"/>
			<point x="106" y="620" type="line"/>
		</contour>
	</outline>
</glyph>
<glyph name="o.sc" format="2">
	<advance width="478"/>
	<anchor x="234" y="330" name="center"/>
	<anchor x="315" y="10" name="ogonek"/>
	<anchor x="234" y="620" name="top"/>
	<anchor x="454" y="620" name="topright"/>
	<anchor x="23" y="620" name="topleft"/>
	<anchor x="234" y="0" name="bottom"/>
	<outline>
		<contour>
			<point x="38" y="190" type="line" smooth="yes"/>
			<point x="38" y="63"/>
			<point x="111" y="-13"/>
			<point x="235" y="-13" type="curve" smooth="yes"/>
			<point x="358" y="-13"/>
			<point x="431" y="62"/>
			<point x="431" y="189" type="curve" smooth="yes"/>
			<point x="431" y="431" type="line" smooth="yes"/>
			<point x="431" y="558"/>
			<point x="358" y="633"/>
			<point x="235" y="633" type="curve" smooth="yes"/>
			<point x="111" y="633"/>
			<point x="38" y="558"/>
			<point x="38" y="432" type="curve" smooth="yes"/>
		</contour>
		<contour>
			<point x="94" y="186" type="curve" smooth="yes"/>
			<point x="94" y="430" type="line" smooth="yes"/>
			<point x="94" y="526"/>
			<point x="146" y="582"/>
			<point x="234" y="582" type="curve" smooth="yes"/>
			<point x="323" y="582"/>
			<point x="375" y="528"/>
			<point x="375" y="435" type="curve" smooth="yes"/>
			<point x="375" y="191" type="line" smooth="yes"/>
			<point x="375" y="95"/>
			<point x="324" y="38"/>
			<point x="236" y="38" type="curve" smooth="yes"/>
			<point x="147" y="38"/>
			<point x="94" y="93"/>
		</contour>
	</outline>
</glyph>
<glyph name="oe.sc" format="2">
	<advance width="760"/>
	<outline>
		<contour>
			<point x="50" y="190" type="line" smooth="yes"/>
			<point x="50" y="63"/>
			<point x="121" y="-13"/>
			<point x="241" y="-13" type="curve" smooth="yes"/>
			<point x="312" y="-13"/>
			<point x="368" y="15"/>
			<point x="391" y="62" type="curve"/>
			<point x="395" y="62" type="line"/>
			<point x="395" y="0" type="line"/>
			<point x="717" y="0" type="line"/>
			<point x="717" y="50" type="line"/>
			<point x="442" y="50" type="line"/>
			<point x="442" y="320" type="line"/>
			<point x="647" y="320" type="line"/>
			<point x="647" y="370" type="line"/>
			<point x="442" y="370" type="line"/>
			<point x="442" y="570" type="line"/>
			<point x="697" y="570" type="line"/>
			<point x="697" y="620" type="line"/>
			<point x="395" y="620" type="line"/>
			<point x="395" y="558" type="line"/>
			<point x="391" y="558" type="line"/>
			<point x="370" y="605"/>
			<point x="314" y="633"/>
			<point x="241" y="633" type="curve" smooth="yes"/>
			<point x="121" y="633"/>
			<point x="50" y="558"/>
			<point x="50" y="432" type="curve" smooth="yes"/>
		</contour>
		<contour>
			<point x="106" y="186" type="curve" smooth="yes"/>
			<point x="106" y="430" type="line" smooth="yes"/>
			<point x="106" y="526"/>
			<point x="157" y="582"/>
			<point x="245" y="582" type="curve" smooth="yes"/>
			<point x="334" y="582"/>
			<point x="387" y="528"/>
			<point x="387" y="435" type="curve" smooth="yes"/>
			<point x="387" y="191" type="line" smooth="yes"/>
			<point x="387" y="95"/>
			<point x="335" y="38"/>
			<point x="247" y="38" type="curve" smooth="yes"/>
			<point x="158" y="38"/>
			<point x="106" y="93"/>
		</contour>
	</outline>
</glyph>
<glyph name="one.ss07" format="2">
	<advance width="204"/>
	<outline>
		<contour>
			<point x="95" y="780" type="line"/>
			<point x="95" y="743"/>
			<point x="88" y="699"/>
			<point x="75" y="663" type="curve"/>
			<point x="75" y="0" type="line"/>
			<point x="130" y="0" type="line"/>
			<point x="130" y="780" type="line"/>
		</contour>
	</outline>
</glyph>
<glyph name="oslash.sc" format="2">
	<advance width="476"/>
	<outline>
		<contour>
			<point x="475" y="421" type="line"/>
			<point x="475" y="477" type="line"/>
			<point x="-6" y="191" type="line"/>
			<point x="-6" y="136" type="line"/>
		</contour>
		<component base="o.sc" xOffset="-1"/>
	</outline>
</glyph>
<glyph name="p.sc" format="2">
	<advance width="419"/>
	<outline>
		<contour>
			<point x="45" y="0" type="line"/>
			<point x="100" y="0" type="line"/>
			<point x="100" y="270" type="line"/>
			<point x="215" y="270" type="line" smooth="yes"/>
			<point x="313" y="270"/>
			<point x="371" y="325"/>
			<point x="371" y="419" type="curve" smooth="yes"/>
			<point x="371" y="471" type="line" smooth="yes"/>
			<point x="371" y="565"/>
			<point x="313" y="620"/>
			<point x="216" y="620" type="curve" smooth="yes"/>
			<point x="45" y="620" type="line"/>
		</contour>
		<contour>
			<point x="100" y="320" type="line"/>
			<point x="100" y="570" type="line"/>
			<point x="215" y="570" type="line" smooth="yes"/>
			<point x="278" y="570"/>
			<point x="316" y="534"/>
			<point x="316" y="473" type="curve" smooth="yes"/>
			<point x="316" y="417" type="line" smooth="yes"/>
			<point x="316" y="356"/>
			<point x="278" y="320"/>
			<point x="215" y="320" type="curve" smooth="yes"/>
		</contour>
	</outline>
</glyph>
<glyph name="q.sc" format="2">
	<advance width="478"/>
	<outline>
		<contour>
			<point x="38" y="190" type="line" smooth="yes"/>
			<point x="38" y="63"/>
			<point x="111" y="-13"/>
			<point x="235" y="-13" type="curve" smooth="yes"/>
			<point x="358" y="-13"/>
			<point x="431" y="62"/>
			<point x="431" y="189" type="curve" smooth="yes"/>
			<point x="431" y="431" type="line" smooth="yes"/>
			<point x="431" y="558"/>
			<point x="358" y="633"/>
			<point x="235" y="633" type="curve" smooth="yes"/>
			<point x="111" y="633"/>
			<point x="38" y="558"/>
			<point x="38" y="432" type="curve" smooth="yes"/>
		</contour>
		<contour>
			<point x="94" y="186" type="curve" smooth="yes"/>
			<point x="94" y="430" type="line" smooth="yes"/>
			<point x="94" y="526"/>
			<point x="146" y="582"/>
			<point x="234" y="582" type="curve" smooth="yes"/>
			<point x="323" y="582"/>
			<point x="375" y="528"/>
			<point x="375" y="435" type="curve" smooth="yes"/>
			<point x="375" y="191" type="line" smooth="yes"/>
			<point x="375" y="95"/>
			<point x="324" y="38"/>
			<point x="236" y="38" type="curve" smooth="yes"/>
			<point x="147" y="38"/>
			<point x="94" y="93"/>
		</contour>
		<contour>
			<point x="259" y="14" type="line"/>
			<point x="259" y="-6" type="line" smooth="yes"/>
			<point x="259" y="-75"/>
			<point x="300" y="-116"/>
			<point x="371" y="-116" type="curve" smooth="yes"/>
			<point x="383" y="-116"/>
			<point x="392" y="-115"/>
			<point x="398" y="-113" type="curve"/>
			<point x="398" y="-64" type="line"/>
			<point x="392" y="-65"/>
			<point x="384" y="-66"/>
			<point x="376" y="-66" type="curve" smooth="yes"/>
			<point x="326" y="-66"/>
			<point x="296" y="-41"/>
			<point x="296" y="2" type="curve" smooth="yes"/>
			<point x="296" y="14" type="line"/>
		</contour>
	</outline>
</glyph>
<glyph name="r.sc" format="2">
	<advance width="437"/>
	<anchor x="191" y="620" name="top"/>
	<anchor x="201" y="0" name="bottom"/>
	<outline>
		<contour>
			<point x="45" y="0" type="line"/>
			<point x="100" y="0" type="line"/>
			<point x="100" y="285" type="line"/>
			<point x="243" y="285" type="line"/>
			<point x="344" y="0" type="line"/>
			<point x="403" y="0" type="line"/>
			<point x="304" y="274" type="line" smooth="yes"/>
			<point x="299" y="288"/>
			<point x="289" y="298"/>
			<point x="278" y="302" type="curve"/>
			<point x="278" y="306" type="line"/>
			<point x="336" y="316"/>
			<point x="371" y="357"/>
			<point x="371" y="415" type="curve" smooth="yes"/>
			<point x="371" y="489" type="line" smooth="yes"/>
			<point x="371" y="572"/>
			<point x="320" y="620"/>
			<point x="233" y="620" type="curve" smooth="yes"/>
			<point x="45" y="620" type="line"/>
		</contour>
		<contour>
			<point x="100" y="335" type="line"/>
			<point x="100" y="570" type="line"/>
			<point x="233" y="570" type="line" smooth="yes"/>
			<point x="285" y="570"/>
			<point x="316" y="541"/>
			<point x="316" y="491" type="curve" smooth="yes"/>
			<point x="316" y="413" type="line" smooth="yes"/>
			<point x="316" y="364"/>
			<point x="286" y="335"/>
			<point x="234" y="335" type="curve" smooth="yes"/>
		</contour>
	</outline>
</glyph>
<glyph name="r.sc.ss05" format="2">
	<advance width="459"/>
	<anchor x="239" y="620" name="top"/>
	<anchor x="239" y="0" name="bottom"/>
	<outline>
		<contour>
			<point x="75" y="0" type="line"/>
			<point x="130" y="0" type="line"/>
			<point x="130" y="280" type="line"/>
			<point x="253" y="280" type="line" smooth="yes"/>
			<point x="310" y="280"/>
			<point x="343" y="242"/>
			<point x="343" y="178" type="curve" smooth="yes"/>
			<point x="343" y="80" type="line" smooth="yes"/>
			<point x="343" y="45"/>
			<point x="349" y="16"/>
			<point x="360" y="0" type="curve"/>
			<point x="414" y="0" type="line"/>
			<point x="416" y="4" type="line"/>
			<point x="405" y="29"/>
			<point x="398" y="60"/>
			<point x="398" y="89" type="curve" smooth="yes"/>
			<point x="398" y="175" type="line" smooth="yes"/>
			<point x="398" y="243"/>
			<point x="368" y="291"/>
			<point x="317" y="303" type="curve"/>
			<point x="317" y="307" type="line"/>
			<point x="366" y="322"/>
			<point x="395" y="368"/>
			<point x="395" y="430" type="curve" smooth="yes"/>
			<point x="395" y="469" type="line" smooth="yes"/>
			<point x="395" y="564"/>
			<point x="337" y="620"/>
			<point x="238" y="620" type="curve" smooth="yes"/>
			<point x="75" y="620" type="line"/>
		</contour>
		<contour>
			<point x="130" y="330" type="line"/>
			<point x="130" y="570" type="line"/>
			<point x="237" y="570" type="line" smooth="yes"/>
			<point x="302" y="570"/>
			<point x="340" y="533"/>
			<point x="340" y="471" type="curve" smooth="yes"/>
			<point x="340" y="428" type="line" smooth="yes"/>
			<point x="340" y="366"/>
			<point x="302" y="330"/>
			<point x="239" y="330" type="curve" smooth="yes"/>
		</contour>
	</outline>
</glyph>
<glyph name="registered.ss10" format="2">
	<advance width="899"/>
	<outline>
		<contour>
			<point x="450" y="800" type="curve" smooth="yes"/>
			<point x="229" y="800"/>
			<point x="50" y="621"/>
			<point x="50" y="400" type="curve" smooth="yes"/>
			<point x="50" y="179"/>
			<point x="229" y="0"/>
			<point x="450" y="0" type="curve" smooth="yes"/>
			<point x="673" y="0"/>
			<point x="850" y="179"/>
			<point x="850" y="400" type="curve" smooth="yes"/>
			<point x="850" y="621"/>
			<point x="671" y="800"/>
		</contour>
		<contour>
			<point x="450" y="758" type="curve" smooth="yes"/>
			<point x="649" y="758"/>
			<point x="807" y="597"/>
			<point x="807" y="400" type="curve" smooth="yes"/>
			<point x="807" y="202"/>
			<point x="648" y="43"/>
			<point x="450" y="43" type="curve" smooth="yes"/>
			<point x="251" y="43"/>
			<point x="92" y="202"/>
			<point x="92" y="400" type="curve" smooth="yes"/>
			<point x="92" y="599"/>
			<point x="251" y="758"/>
		</contour>
		<contour>
			<point x="330" y="166" type="line"/>
			<point x="372" y="166" type="line"/>
			<point x="372" y="381" type="line"/>
			<point x="480" y="381" type="line"/>
			<point x="556" y="166" type="line"/>
			<point x="601" y="166" type="line"/>
			<point x="526" y="373" type="line" smooth="yes"/>
			<point x="522" y="383"/>
			<point x="515" y="390"/>
			<point x="506" y="394" type="curve"/>
			<point x="506" y="398" type="line"/>
			<point x="550" y="406"/>
			<point x="577" y="436"/>
			<point x="577" y="479" type="curve" smooth="yes"/>
			<point x="577" y="535" type="line" smooth="yes"/>
			<point x="577" y="598"/>
			<point x="538" y="635"/>
			<point x="472" y="635" type="curve" smooth="yes"/>
			<point x="330" y="635" type="line"/>
		</contour>
		<contour>
			<point x="372" y="419" type="line"/>
			<point x="372" y="597" type="line"/>
			<point x="472" y="597" type="line" smooth="yes"/>
			<point x="512" y="597"/>
			<point x="535" y="574"/>
			<point x="535" y="537" type="curve" smooth="yes"/>
			<point x="535" y="478" type="line" smooth="yes"/>
			<point x="535" y="441"/>
			<point x="512" y="419"/>
			<point x="473" y="419" type="curve" smooth="yes"/>
		</contour>
	</outline>
</glyph>
<glyph name="s.sc" format="2">
	<advance width="416"/>
	<anchor x="204" y="620" name="top"/>
	<anchor x="204" y="0" name="bottom"/>
	<outline>
		<contour>
			<point x="33" y="182" type="line"/>
			<point x="33" y="153" type="line" smooth="yes"/>
			<point x="33" y="49"/>
			<point x="98" y="-13"/>
			<point x="207" y="-13" type="curve" smooth="yes"/>
			<point x="314" y="-13"/>
			<point x="377" y="46"/>
			<point x="377" y="146" type="curve" smooth="yes"/>
			<point x="377" y="179"/>
			<point x="365" y="216"/>
			<point x="346" y="246" type="curve" smooth="yes"/>
			<point x="327" y="276"/>
			<point x="294" y="305"/>
			<point x="259" y="328" type="curve" smooth="yes"/>
			<point x="196" y="369" type="line" smooth="yes"/>
			<point x="164" y="390"/>
			<point x="137" y="414"/>
			<point x="123" y="435" type="curve" smooth="yes"/>
			<point x="111" y="453"/>
			<point x="104" y="475"/>
			<point x="104" y="494" type="curve" smooth="yes"/>
			<point x="104" y="499" type="line" smooth="yes"/>
			<point x="104" y="551"/>
			<point x="142" y="582"/>
			<point x="205" y="582" type="curve" smooth="yes"/>
			<point x="267" y="582"/>
			<point x="304" y="548"/>
			<point x="304" y="490" type="curve" smooth="yes"/>
			<point x="304" y="469" type="line"/>
			<point x="358" y="476" type="line"/>
			<point x="358" y="496" type="line" smooth="yes"/>
			<point x="358" y="582"/>
			<point x="300" y="633"/>
			<point x="203" y="633" type="curve" smooth="yes"/>
			<point x="106" y="633"/>
			<point x="48" y="581"/>
			<point x="48" y="493" type="curve" smooth="yes"/>
			<point x="48" y="468"/>
			<point x="57" y="438"/>
			<point x="73" y="412" type="curve" smooth="yes"/>
			<point x="89" y="386"/>
			<point x="121" y="357"/>
			<point x="158" y="333" type="curve" smooth="yes"/>
			<point x="221" y="293" type="line" smooth="yes"/>
			<point x="256" y="271"/>
			<point x="286" y="244"/>
			<point x="301" y="219" type="curve" smooth="yes"/>
			<point x="313" y="199"/>
			<point x="321" y="173"/>
			<point x="321" y="148" type="curve" smooth="yes"/>
			<point x="321" y="142" type="line" smooth="yes"/>
			<point x="321" y="77"/>
			<point x="279" y="38"/>
			<point x="207" y="38" type="curve" smooth="yes"/>
			<point x="132" y="38"/>
			<point x="87" y="83"/>
			<point x="87" y="159" type="curve" smooth="yes"/>
			<point x="87" y="189" type="line"/>
		</contour>
	</outline>
</glyph>
<glyph name="seven.ss09" format="2">
	<advance width="463"/>
	<outline>
		<contour>
			<point x="39" y="730" type="line"/>
			<point x="374" y="730" type="line"/>
			<point x="136" y="0" type="line"/>
			<point x="194" y="0" type="line"/>
			<point x="429" y="730" type="line"/>
			<point x="429" y="780" type="line"/>
			<point x="39" y="780" type="line"/>
		</contour>
	</outline>
</glyph>
<glyph name="t.sc" format="2">
	<advance width="449"/>
	<anchor x="221" y="355" name="center"/>
	<anchor x="221" y="0" name="bottom"/>
	<anchor x="221" y="620" name="top"/>
	<outline>
		<contour>
			<point x="40" y="620" type="line"/>
			<point x="40" y="570" type="line"/>
			<point x="193" y="570" type="line"/>
			<point x="193" y="0" type="line"/>
			<point x="248" y="0" type="line"/>
			<point x="248" y="570" type="line"/>
			<point x="400" y="570" type="line"/>
			<point x="400" y="620" type="line"/>
		</contour>
	</outline>
</glyph>
<glyph name="tbar.sc" format="2">
	<advance width="449"/>
	<outline>
		<contour>
			<point x="66" y="365" type="line"/>
			<point x="51" y="315" type="line"/>
			<point x="371" y="315" type="line"/>
			<point x="386" y="365" type="line"/>
		</contour>
		<component base="t.sc"/>
	</outline>
</glyph>
